<?xml version="1.0" standalone="no"?>
<!DOCTYPE svg PUBLIC "-//W3C//DTD SVG 1.1//EN" "http://www.w3.org/Graphics/SVG/1.1/DTD/svg11.dtd" >
<svg xmlns="http://www.w3.org/2000/svg" xmlns:xlink="http://www.w3.org/1999/xlink" version="1.1">
<metadata>
Created by FontForge 20170910 at Fri Jan  8 14:01:29 2016
 By Jimmy Wärting
Please read this before using the font.

-----------------------------------------------

-You may use this version of `BOXING' for personal use.

. For commercial use, you need to donate via Pay Pal. [tanoveron@gmail.com]

. You may not Sell or Distribute my Fonts for profit or alter them in
any way without asking me first.  [tanoveron@gmail.com]

I hope you enjoy the typeface and make beautiful things with it.

-------------------------------------------------

Created by Tano Veron

-------------------------------------------------

Copyright (c) 2016 Tano Veron. All Rights Reserved.
More about me, please visit:

www.be.net/tanoveron
fb.me/tanoveron
www.instagram.com/tanoveron
</metadata>
<defs>
<font id="BOXING" horiz-adv-x="217" >
  <font-face 
    font-family="BOXING"
    font-weight="400"
    font-stretch="normal"
    units-per-em="1000"
    panose-1="0 0 0 0 0 0 0 0 0 0"
    ascent="725"
    descent="-275"
    x-height="800"
    cap-height="804"
    bbox="-103 -332 886 998"
    underline-thickness="50"
    underline-position="-100"
    stemh="23"
    stemv="144"
    unicode-range="U+0020-FB02"
  />
<missing-glyph horiz-adv-x="247" 
 />
    <glyph glyph-name=".notdef" horiz-adv-x="247" 
 />
    <glyph glyph-name="space" unicode=" " horiz-adv-x="247" 
 />
    <glyph glyph-name="exclam" unicode="!" 
d="M125 -195h-107h-19v18v102v19h19h107h18v-19v-102v-18h-18zM136 44h-107h-19v19l-10 722v19h19h107h18v-19l-10 -722v-19h2z" />
    <glyph glyph-name="quotedbl" unicode="&#x22;" horiz-adv-x="300" 
d="M138 780v-11v35h116v-22l-17 -191h-83zM-3 783v21h116v-22l-17 -191h-83z" />
    <glyph glyph-name="numbersign" unicode="#" horiz-adv-x="527" 
d="M193 454l-22 -262h76l22 262h-76zM213 -205l24 286h-75l-25 -286h-104l24 286h-57l9 111h57l22 262h-58l10 111h58l19 230h105l-20 -230h76l20 230h104l-19 -230h59l-9 -111h-60l-22 -262h60l-10 -111h-59l-24 -286h-105z" />
    <glyph glyph-name="dollar" unicode="$" horiz-adv-x="429" 
d="M275 796c61 -16 117 -67 117 -204v-64v-18v0v-1h-19h-106h-18v18v99c0 6 -1 32 -51 32c-36 0 -40 -22 -40 -32v-87c0 -3 0 -27 21 -61c36 -58 78 -116 124 -173c60 -75 89 -135 89 -182v-150c0 -91 -40 -146 -117 -162v-55h-144v55c-76 16 -117 71 -117 162v107v19h1v0
h18h107h18v-18v-107c0 -12 3 -25 34 -26c38 1 57 10 57 26v84v11v2c0 20 -9 39 -15 49c-37 61 -82 122 -130 183c-61 75 -90 135 -90 182v107c0 137 56 188 117 204v66h144v-66z" />
    <glyph glyph-name="percent" unicode="%" horiz-adv-x="645" 
d="M156 541c23 0 40 17 40 39s-17 39 -40 39c-22 0 -39 -17 -39 -39s17 -39 39 -39zM156 685c59 0 105 -46 105 -105s-46 -104 -105 -104c-58 0 -104 45 -104 104s46 105 104 105zM491 -53c22 0 39 17 39 40c0 22 -17 39 -39 39s-39 -17 -39 -39c0 -23 17 -40 39 -40z
M491 91c59 0 105 -46 105 -104c0 -59 -46 -105 -105 -105s-105 46 -105 105c0 58 46 104 105 104zM220 -110h-16h-68h-30l12 28l290 737l11 23h15h68h28l-9 -23l-290 -737z" />
    <glyph glyph-name="ampersand" unicode="&#x26;" horiz-adv-x="963" 
d="M886 776v-91h-854v91h854zM886 -83v-91h-854v91h854zM112 396v122c0 12 3 15 15 15h26c12 0 15 -3 15 -15v-122h-25h-5h-26zM34 -15h66h12v11v310h10h36h10v-310v-11h12h66h11v11v496c0 108 -56 131 -104 131h-26c-48 0 -104 -23 -104 -131v-496v-11h11zM398 -15h12v11
v310l71 -312l3 -9h9h81h12v11v610v11h-12h-68h-11v-11v-338l-72 340l-2 9h-9h-82h-11v-11v-610v-11h11h68zM769 75l-36 1v450h36c22 0 22 -9 22 -15v-420c0 -6 0 -16 -22 -16zM882 91v420c0 88 -51 106 -93 106h-136h-11v-11v-610v-11h11h136c42 0 93 18 93 106z" />
    <glyph glyph-name="quoteright" unicode="&#x2019;" 
d="M58 659h-67v139h151v-125l-63 -145h-59z" />
    <glyph glyph-name="parenleft" unicode="(" horiz-adv-x="214" 
d="M146 -200h-127h-19v19v962v19h19h126v-75h-51v-850l52 -1v-74z" />
    <glyph glyph-name="parenright" unicode=")" horiz-adv-x="214" 
d="M127 -200h-127v74l52 1v850h-51v75h126h19v-19v-962v-19h-19z" />
    <glyph glyph-name="asterisk" unicode="*" horiz-adv-x="316" 
d="M218 792l5 5l5 -5l30 -30l5 -5l-5 -6l-63 -63l63 -63l5 -5l-5 -5l-30 -30l-5 -5l-5 5l-63 63l-63 -63l-5 -5l-6 5l-29 30l-5 5l5 5l63 63l-63 63l-5 6l5 5l29 30l6 5l5 -5l63 -64z" />
    <glyph glyph-name="plus" unicode="+" horiz-adv-x="536" 
d="M500 308h15v-15v-84v-15h-15h-178v-179v-14h-15h-84h-15v14v179h-178h-15v15v84v15h15h178v178v15h15h84h15v-15v-178h178z" />
    <glyph glyph-name="comma" unicode="," 
d="M68 -201h-67v139h151v-125l-63 -145h-59z" />
    <glyph glyph-name="hyphen" unicode="-" horiz-adv-x="428" 
d="M380 308h15v-15v-84v-15h-15h-58v0v0h-15h-84h-15v0v0h-178h-15v15v84v15h15h178v0v0h15h84h15v0v0h58z" />
    <glyph glyph-name="period" unicode="." 
d="M126 -200h-107h-19v19v101v19h19h107h18v-19v-101v-19h-18z" />
    <glyph glyph-name="slash" unicode="/" horiz-adv-x="377" 
d="M143 -204h-19h-57h-19l5 23l160 962l2 19h19h57h19l-3 -19l-160 -962z" />
    <glyph glyph-name="zero" unicode="0" horiz-adv-x="379" 
d="M381 3c0 -176 -92 -213 -170 -213h-43c-77 0 -170 37 -170 213v584c0 176 93 213 170 213h43c78 0 170 -37 170 -213v-584zM236 -40v670c0 19 -6 24 -25 24h-43c-18 0 -24 -5 -24 -24v-670c0 -19 6 -24 24 -24h43c19 0 25 5 25 24z" />
    <glyph glyph-name="one" unicode="1" horiz-adv-x="201" 
d="M196 795h5v-19v0v-107v-18v-837v-19h-19h-107h-18v19v837h-52h-5v18v107v19h5h52h18h107h14z" />
    <glyph glyph-name="two" unicode="2" horiz-adv-x="379" 
d="M159 110c-6 -10 -15 -29 -15 -48v-98c0 -11 9 -21 27 -25h208v-144h-168h-43h-168v139v5v174c0 48 29 107 90 183c46 57 88 115 124 174c21 34 21 57 21 60v88c0 10 -4 32 -40 32c-50 0 -51 -26 -51 -32v-117h-143v0h-1v83c0 174 92 211 168 211h43
c77 0 168 -37 168 -211v-107c0 -48 -29 -107 -89 -183c-49 -61 -94 -122 -131 -184z" />
    <glyph glyph-name="three" unicode="3" horiz-adv-x="370" 
d="M370 474c0 -33 -10 -73 -52 -96c42 -23 52 -63 52 -96v-319c0 -139 -79 -168 -147 -168h-204h-19v19v125h155v0h47c18 0 24 6 24 24v319c0 19 -29 24 -46 24h-25v0h-80v137h69v0h34c23 3 48 13 48 31v153c0 19 -29 24 -46 24h-25h-11h-144v125v19h19h204
c68 0 147 -29 147 -168v-153z" />
    <glyph glyph-name="four" unicode="4" horiz-adv-x="379" 
d="M360 795h19v-19v-962v-19h-19l-107 1h-18v18v485h-91h-19h-106h-19v18v459v18h19h106h19v-18v-333h91v333v18h18z" />
    <glyph glyph-name="five" unicode="5" horiz-adv-x="403" 
d="M199 443c181 -1 180 -161 180 -161v-319c0 -129 -55 -167 -132 -167l-79 -1h-159v0v0v145h195v1c27 3 31 22 31 31v195v0v115c0 19 -29 24 -46 24h-189v130v359h369v-144h-223v-208h53z" />
    <glyph glyph-name="six" unicode="6" horiz-adv-x="379" 
d="M378 299c1 -6 1 -12 1 -17v-62v-224v-43c0 -139 -79 -168 -146 -168h-22h-9h-34c-76 0 -168 37 -168 211v15v68v227v108v237v5v139h144v-144v-208l15 -1c3 0 -4 1 -1 1h93c117 0 127 -144 127 -144zM235 169v106c0 6 0 31 -51 31c-35 0 -40 -22 -40 -31v-103v0v-102v-49
v-59c0 -6 1 -32 51 -32c36 0 40 22 40 32v46v0v159v2z" />
    <glyph glyph-name="seven" unicode="7" horiz-adv-x="402" 
d="M250 651h-250v144h402v-150l-1 -3l-255 -847h-139h-7z" />
    <glyph glyph-name="eight" unicode="8" horiz-adv-x="384" 
d="M384 462c0 -35 -13 -77 -64 -99c42 -29 64 -81 64 -129v-86v-111v-75c0 -138 -86 -167 -158 -167h-69c-71 0 -157 29 -157 167v39v147v86c0 48 22 100 64 129c-52 22 -64 64 -64 99v176c0 138 86 167 157 167h69c72 0 158 -29 158 -167v-176zM154 638v-182
c0 -10 0 -22 37 -22h1h1c36 0 36 12 36 22v182c0 9 0 24 -36 24h-2c-37 0 -37 -15 -37 -24zM193 -62c36 0 36 15 36 24v83v229c0 18 -6 24 -26 24h-23c-19 0 -26 -6 -26 -24v-229v-83c0 -9 0 -24 37 -24h2z" />
    <glyph glyph-name="nine" unicode="9" horiz-adv-x="379" 
d="M1 373c-1 5 -1 11 -1 16v62v143v43c0 139 80 168 147 168h21h10h33c77 0 168 -37 168 -211v-15v-139v-74v-108v-319v-5v-139h-144v144v290h-14c-4 0 4 0 0 0h-92c-117 0 -128 144 -128 144zM144 573v-176c0 -6 1 -32 51 -32c36 0 40 22 40 32v173v0v-121v120v59
c0 6 -1 32 -51 32c-36 0 -40 -22 -40 -32v-46v0v-6v-3z" />
    <glyph glyph-name="colon" unicode=":" 
d="M126 -200h-107h-19v19v101v19h19h107h18v-19v-101v-19h-18zM126 223h-107h-19v18v102v19h19h107h18v-19v-102v-18h-18z" />
    <glyph glyph-name="semicolon" unicode=";" 
d="M126 222h-107h-19v19v102v18h19h107h26v-18v-102v-19h-26zM1 -201h67l-38 -131h59l63 145v125h-151v-139z" />
    <glyph glyph-name="less" unicode="&#x3c;" horiz-adv-x="337" 
d="M35 243l257 174l-5 -363z" />
    <glyph glyph-name="equal" unicode="=" horiz-adv-x="634" 
d="M590 192h15v-15v-84v-15h-15h-178v0v0h-15h-84h-15v0v0h-178h-15v15v84v15h15h178v0v0h15h84h15v0v0h178zM590 408h15v-15v-84v-15h-15h-178v0v0h-15h-84h-15v0v0h-178h-15v15v84v15h15h178v0v0h15h84h15v0v0h178z" />
    <glyph glyph-name="greater" unicode="&#x3e;" horiz-adv-x="337" 
d="M35 417l257 -174l-252 -189z" />
    <glyph glyph-name="question" unicode="?" horiz-adv-x="453" 
d="M162 578v-59h-139v49c0 161 55 246 203 246c149 0 197 -85 197 -246c0 -106 -29 -192 -105 -294c-60 -81 -50 -131 -50 -198v-69l-134 -2v77c0 80 -9 138 50 222c68 97 91 173 91 274c0 69 3 102 -53 102s-60 -33 -60 -102zM130 -206v142h142v-142h-142z" />
    <glyph glyph-name="at" unicode="@" horiz-adv-x="712" 
d="M562 -182l-9 34v0v-34h-7v47h9l8 -28v0v28h7v-47h-8zM525 -146v-25c0 -4 1 -5 4 -5c2 0 4 1 4 5v25c0 4 -2 5 -4 5c-3 0 -4 -1 -4 -5zM518 -171v25c0 7 3 12 11 12c7 0 11 -5 11 -12v-25c0 -7 -4 -12 -11 -12c-8 0 -11 5 -11 12zM501 -142h-4v-14h3c3 0 4 1 4 5v5
c0 3 -1 4 -3 4zM513 -182h-8v6v7c0 5 -2 6 -5 6h-3v-19h-7v47h11c8 0 11 -3 11 -11v-3c0 -5 -2 -8 -5 -10v0c4 -2 5 -5 5 -10v-7c0 -3 0 -4 1 -6zM471 -142v-13h10v-7h-10v-13h13v-7h-20v47h20v-7h-13zM441 -135l5 -38v0l6 38h7l-8 -47h-11l-7 47h8zM414 -146v-25
c0 -4 1 -5 4 -5c2 0 4 1 4 5v25c0 4 -2 5 -4 5c-3 0 -4 -1 -4 -5zM407 -171v25c0 7 4 12 11 12s11 -5 11 -12v-25c0 -7 -4 -12 -11 -12s-11 5 -11 12zM393 -182l-9 34v0v-34h-7v47h9l8 -28v0v28h6v-47h-7zM359 -143l-4 -24h7l-3 24v0zM365 -135l7 -47h-7l-1 8h-10l-1 -8h-7
l8 47h11zM323 -142v7h23v-7h-7v-40h-8v40h-8zM296 -182l19 47h6l-18 -47h-7zM271 -142v7h23v-7h-8v-40h-7v40h-8zM254 -142v-13h11v-7h-11v-13h13v-7h-20v47h20v-7h-13zM233 -182l-9 34v0v-34h-7v47h9l8 -28v0v28h6v-47h-7zM203 -175h7v-7h-7v7zM184 -142v-13h10v-7h-10v-13
h13v-7h-20v47h20v-7h-13zM159 -161h-3v-14h4c2 0 4 1 4 4v4c0 5 -2 6 -5 6zM159 -142h-3v-12h3c2 0 4 1 4 5v3c0 3 -1 4 -4 4zM170 -146v-1c0 -5 -1 -8 -4 -10v0c4 -2 5 -5 5 -10v-4c0 -7 -4 -11 -11 -11h-12v47h11c8 0 11 -3 11 -11zM134 -175h7v-7h-7v7zM117 -182l-3 25v0
l-3 -25h-10l-5 47h7l4 -37v0l4 37h7l4 -37v0l3 37h7l-5 -47h-10zM78 -182l-3 25v0l-3 -25h-10l-5 47h7l4 -37v0l4 37h7l3 -37v0l4 37h7l-6 -47h-9zM38 -182l-2 25v0l-3 -25h-10l-6 47h8l4 -37v0l3 37h7l4 -37v0l4 37h6l-5 -47h-10zM397 -96h4v5v115l27 -116l1 -4h3h31h4v5
v227v5h-4h-26h-4v-5v-126l-27 127l-1 4h-3h-30h-5v-5v-227v-5h5h25zM168 101v-157c0 -4 -1 -6 -5 -6h-11c-4 0 -5 2 -5 6v157c0 4 1 6 5 6h11c4 0 5 -2 5 -6zM202 -46v137c0 41 -21 50 -39 50h-11c-18 0 -39 -9 -39 -50v-137c0 -41 21 -50 39 -50h11c18 0 39 9 39 50z
M518 -96v0h1h4h12h4h20h6h4v5v144v5h-4h-36h-5v-5v-25v-5h5h6v-79c0 -4 -1 -6 -6 -6h-10c-4 0 -5 2 -5 6v157c0 4 1 6 5 6h10c5 0 6 -2 6 -6v-30h4h26h4v20c0 41 -21 50 -40 50h-10c-18 0 -40 -9 -40 -50v-137c0 -40 21 -49 39 -50zM321 -96h25h5v5v227v5h-5h-25h-4v-5v-227
v-5h4zM305 135l1 6h-5h-27h-3l-1 -4l-14 -61l-17 61l-1 4h-3h-27h-6l2 -6l34 -110l-34 -115l-1 -6h5h26h3l1 4l18 67l14 -67l1 -4h3h25h6l-1 6l-30 115zM49 -62v87h8c4 0 11 -1 11 -6v-75c0 -4 -1 -6 -6 -6h-13zM49 57v50h8c4 0 11 -2 11 -6v-36c0 -4 -6 -7 -11 -7zM19 -96
h49c15 0 34 7 34 40v75c0 8 -2 18 -12 23c10 6 12 15 12 23v36c0 33 -19 40 -34 40h-49h-4v-5v-227v-5h4zM372 652c11 -20 16 -47 39 -55c24 16 20 64 2 77c-6 -15 -31 -11 -41 -22zM539 358c-8 -6 -18 -11 -34 -9c-3 -14 20 -21 27 -37c3 -10 1 -24 5 -37
c7 -25 26 -42 27 -55c2 -25 -23 -57 -54 -44c23 59 -11 112 -42 145c7 -34 25 -71 19 -110c-23 8 -79 -16 -81 7c-1 12 31 13 42 20c10 49 -27 71 -32 113c-1 7 -12 5 -17 7c6 75 38 123 34 207c-41 -40 -67 41 -89 65c-24 -7 -49 -14 -71 -23c-9 -31 -27 -53 -30 -91
c-2 -8 8 -3 10 -7c2 -51 20 -92 42 -128c2 -9 -9 -4 -10 -10c15 -33 22 -76 25 -121c13 -22 44 -27 54 -52c-28 -6 -56 6 -79 8c16 51 -18 66 -19 113c-17 13 -13 31 -23 47c-13 22 -49 19 -56 47c-74 -19 -113 -97 -109 -178c-23 -5 -38 -40 -66 -24c2 24 32 26 37 51
c7 35 -12 76 19 96c5 54 53 90 62 153c5 7 21 14 12 27c-30 -32 -54 29 -22 52c-12 33 21 39 30 59c10 2 14 10 29 8c-6 40 25 58 55 42c16 -19 -1 -43 12 -60c20 17 48 0 66 13c4 20 28 44 47 32c7 16 19 27 35 34c11 3 8 -8 17 -7c0 7 -9 5 -7 15c25 45 109 28 78 -42
c9 -15 25 -22 37 -32c17 -37 3 -72 3 -116c29 -32 22 -131 17 -178z" />
    <glyph glyph-name="A" unicode="A" horiz-adv-x="433" 
d="M229 610v12h139v-12h-139zM140 622v-12h-140c0 4 1 8 1 12h139zM140 571v-14h-140v14h140zM229 557v14h139v-14h-139zM5 662c1 4 2 8 3 11h353c1 -3 2 -7 2 -11h-358zM229 583v13h139v-13h-139zM140 596v-13h-140v13h140zM59 767c3 3 7 6 11 9h229c3 -3 7 -6 11 -9h-251z
M35 740c2 3 4 7 7 10h285c2 -3 5 -7 7 -10h-299zM11 688c1 4 2 8 4 11h339c1 -3 2 -7 3 -11h-346zM20 714c2 4 4 8 6 11h317c1 -3 3 -7 5 -11h-328zM140 638v-2h-138c0 4 1 8 1 12h138c-1 -3 -1 -6 -1 -10zM229 638c0 4 -1 7 -1 10h137c1 -4 1 -8 2 -12h-138v2zM229 33v23
h139v-23h-139zM0 33v23h140v-23h-140zM0 -182v186h140v-186v-18h-18h-104h-18v18zM229 -182v186h139v-186v-18h-18h-103h-18v18zM0 7v23h140v-23h-140zM229 7v23h139v-23h-139zM0 59v23h140v-23h-140zM229 59v23h139v-23h-139zM0 374v17h368v-17h-368zM0 399v18h368v-18
h-368zM0 294v19h368v-19h-139v10h-17h-56h-16v-10h-140zM0 322v17h368v-17h-368zM0 425v16h368v-16h-368zM229 268v20h139v-20h-139zM0 268v20h140v-20h-140zM140 493v-14h-140v14h140zM229 479v14h139v-14h-139zM229 505v14h139v-14h-139zM140 519v-14h-140v14h140z
M140 467v-14h-140v14h140zM229 453v14h139v-14h-139zM0 348v17h368v-17h-368zM0 242v21h140v-21h-140zM229 242v21h139v-21h-139zM229 137v22h139v-22h-139zM0 137v22h140v-22h-140zM0 111v23h140v-23h-140zM229 111v23h139v-23h-139zM229 85v23h139v-23h-139zM0 85v23h140
v-23h-140zM140 545v-14h-140v14h140zM229 531v14h139v-14h-139zM0 216v21h140v-21h-140zM229 216v21h139v-21h-139zM0 190v21h140v-21h-140zM229 190v21h139v-21h-139zM0 164v21h140v-21h-140zM229 164v21h139v-21h-139zM100 791c12 5 23 7 35 9h98c12 -2 24 -4 36 -9h-169z
" />
    <glyph glyph-name="B" unicode="B" horiz-adv-x="436" 
d="M144 627v-11h-144v11h144zM226 616v11h144v-11h-144zM144 577v-15h-144v15h144zM226 562v15h144v-15h-144zM367 680c0 -4 1 -8 1 -12h-368v12h367zM226 588v13h144v-13h-144zM144 601v-13h-144v13h144zM301 783c4 -3 9 -6 14 -9h-315v7v2h301zM333 757c3 -4 6 -7 8 -11
h-341v11h333zM361 706l3 -12h-364v12h361zM350 732c2 -4 4 -8 5 -12h-355v12h350zM223 642c-5 6 -13 9 -22 12h169v-12h-147zM144 654v-12h-144v12h144zM226 35v24h144v-24h-144zM144 59v-24h-144v24h144zM226 -32v38h144v-38c0 -139 -80 -168 -147 -168h-204h-19v19v187
h144v-62h58c18 0 24 6 24 24zM226 9v23h144v-23h-144zM144 32v-23h-144v23h144zM144 85v-24h-144v24h144zM226 61v24h144v-24h-144zM0 378v17h335c-5 -4 -10 -8 -17 -12c3 -1 6 -3 9 -5h-327zM0 404v17h357c-3 -6 -8 -12 -13 -17h-344zM0 298v19h367c2 -6 3 -13 3 -19h-148
c-9 10 -29 13 -42 13h-36v-13h-144zM0 326v17h358c3 -6 5 -11 7 -17h-365zM0 430v16h366c-1 -5 -3 -11 -5 -16h-361zM144 292v-20h-144v20h144zM226 287c0 2 0 4 -1 5h145v-5v-15h-144v15zM226 484v14h144v-14h-144zM144 498v-14h-144v14h144zM144 524v-14h-144v14h144z
M226 510v14h144v-14h-144zM144 472v-14h-144v14h144zM210 458c7 3 12 8 15 14h145c0 -5 0 -9 -1 -14h-159zM0 352v17h338c6 -5 11 -11 15 -17h-353zM144 266v-20h-144v20h144zM226 246v20h144v-20h-144zM144 162v-22h-144v22h144zM226 140v22h144v-22h-144zM144 137v-23
h-144v23h144zM226 114v23h144v-23h-144zM226 88v23h144v-23h-144zM144 111v-23h-144v23h144zM144 551v-15h-144v15h144zM226 536v15h144v-15h-144zM226 220v20h144v-20h-144zM144 240v-20h-144v20h144zM144 214v-20h-144v20h144zM226 194v20h144v-20h-144zM144 188v-21h-144
v21h144zM226 167v21h144v-21h-144zM223 800c9 0 18 -1 27 -2h-250v2h19h204z" />
    <glyph glyph-name="C" unicode="C" horiz-adv-x="430" 
d="M235 616v11h143c0 -3 0 -7 1 -11h-144zM1 616c0 4 0 8 1 11h142v-11h-143zM235 562v15h144v-15h-144zM0 562v15h144v-15h-144zM8 668l3 12h358l3 -12h-364zM0 589v12h144v-13h-144v1zM235 588v13h144v-12v-1h-144zM88 783h204c5 -3 10 -6 14 -9h-233zM43 746
c3 4 6 7 9 11h275c3 -4 6 -7 9 -11h-293zM15 694c1 4 3 8 4 12h341c2 -4 3 -8 4 -12h-349zM26 720c2 4 4 8 7 12h314l6 -12h-327zM3 642c1 4 1 8 2 12h149c-5 -3 -8 -6 -9 -12h-142zM234 642c-1 6 -4 9 -8 12h148c1 -4 2 -8 2 -12h-142zM379 59v-24h-144v24h144zM0 35v24
h144v-24h-144zM168 -200c-76 0 -166 36 -168 206h144v-38c0 -18 6 -24 24 -24h43c18 0 24 6 24 24v38h144c-1 -170 -92 -206 -168 -206h-43zM379 11v-2h-144v23h144v-21zM0 11v21h144v-23h-144v2zM0 61v24h144v-24h-144zM379 85v-24h-144v24h144zM0 378v17h144v-17h-144z
M0 404v17h144v-17h-144zM235 411v10h144v-10h-18h-107h-19zM0 298v19h144v-19h-144zM0 326v17h144v-17h-144zM0 430v16h144v-16h-144zM235 430v16h144v-16h-144zM0 272v20h144v-20h-144zM0 484v14h144v-14h-144zM235 484v14h144v-14h-144zM0 510v14h144v-14h-144zM235 510
v14h144v-14h-144zM235 458v14h144v-14h-144zM0 458v14h144v-14h-144zM0 352v17h144v-17h-144zM0 246v20h144v-20h-144zM0 140v22h144v-22h-144zM379 115v-1h-144v1h19h107h18zM0 114v23h144v-23h-144zM379 97v-9h-144v9v14h144v-14zM0 88v23h144v-23h-144zM0 536v15h144v-15
h-144zM235 536v15h144v-15h-144zM0 220v20h144v-20h-144zM0 194v20h144v-20h-144zM0 167v21h144v-21h-144zM211 800c9 0 18 -1 28 -2h-98c9 1 18 2 27 2h43z" />
    <glyph glyph-name="D" unicode="D" horiz-adv-x="446" 
d="M235 616v11h144v-11h-144zM144 627v-11h-144v11h144zM235 562v15h144v-15h-144zM144 577v-15h-144v15h144zM0 668v12h376c0 -4 1 -8 1 -12h-377zM144 601v-13h-144v13h144zM235 588v13h144v-13h-144zM0 783h310c5 -3 9 -6 14 -9h-324v7v2zM0 746v11h342c3 -4 6 -7 8 -11
h-350zM0 694v12h370l3 -12h-373zM0 720v12h359c2 -4 4 -8 5 -12h-364zM144 654v-12h-144v12h144zM234 642c-1 5 -5 9 -13 12h158v-12h-145zM144 59v-24h-144v24h144zM235 35v24h144v-24h-144zM235 -32v38h144v-38c0 -139 -79 -168 -146 -168h-214h-19v19v187h144v-62l57 -1
c34 0 34 16 34 25zM144 32v-23h-144v23h144zM235 9v23h144v-23h-144zM235 61v24h144v-24h-144zM144 85v-24h-144v24h144zM235 378v17h144v-17h-144zM144 395v-17h-144v17h144zM235 404v17h144v-17h-144zM144 421v-17h-144v17h144zM144 317v-19h-144v19h144zM235 298v19h144
v-19h-144zM144 343v-17h-144v17h144zM235 326v17h144v-17h-144zM144 446v-16h-144v16h144zM235 430v16h144v-16h-144zM235 272v20h144v-20h-144zM144 292v-20h-144v20h144zM144 498v-14h-144v14h144zM235 484v14h144v-14h-144zM144 524v-14h-144v14h144zM235 510v14h144v-14
h-144zM144 472v-14h-144v14h144zM235 458v14h144v-14h-144zM235 352v17h144v-17h-144zM144 369v-17h-144v17h144zM144 266v-20h-144v20h144zM235 246v20h144v-20h-144zM235 140v22h144v-22h-144zM144 162v-22h-144v22h144zM144 137v-23h-144v23h144zM235 114v23h144v-23
h-144zM235 88v23h144v-23h-144zM144 111v-23h-144v23h144zM235 536v15h144v-15h-144zM144 551v-15h-144v15h144zM235 220v20h144v-20h-144zM144 240v-20h-144v20h144zM144 214v-20h-144v20h144zM235 194v20h144v-20h-144zM144 188v-21h-144v21h144zM235 167v21h144v-21h-144
zM233 800c8 0 17 -1 26 -2h-259v2h19h214z" />
    <glyph glyph-name="E" unicode="E" horiz-adv-x="392" 
d="M0 616v11h144v-11h-144zM0 562v15h144v-15h-144zM0 668v12h342v-6v-6h-342zM0 588v13h144v-13h-144zM0 781v2h342v-2v-7h-342v7zM0 746v11h342v-11h-342zM0 694v12h342v-12h-342zM0 720v12h342v-12h-342zM0 642v12h144v-12h-144zM0 35v24h144v-24h-144zM0 -181v187h144
v-62h192h6v-18v-107v-19h-6h-317h-19v19zM0 9v23h144v-23h-144zM0 61v24h144v-24h-144zM0 378v17h330v-17h-330zM0 404v17h330v-17h-330zM0 298v19h330v-13h-19h-167v-6h-144zM0 326v17h330v-17h-330zM0 430v16h330v-14v-2h-330zM0 272v20h144v-20h-144zM0 484v14h144v-14
h-144zM0 510v14h144v-14h-144zM0 458v14h144v-14h-144zM0 352v17h330v-17h-330zM0 246v20h144v-20h-144zM0 140v22h144v-22h-144zM0 114v23h144v-23h-144zM0 88v23h144v-23h-144zM0 536v15h144v-15h-144zM0 220v20h144v-20h-144zM0 194v20h144v-20h-144zM0 167v21h144v-21
h-144zM19 800h317h6v-2h-342v2h19z" />
    <glyph glyph-name="F" unicode="F" horiz-adv-x="382" 
d="M0 615v12h144v-12h-144zM0 562v14h144v-14h-144zM0 667v12h342v-5v-7h-342zM0 588v13h144v-13h-144zM0 781v1h342v-1v-8h-342v8zM0 746v10h342v-10h-342zM0 694v11h342v-11h-342zM0 720v11h342v-11h-342zM0 641v12h144v-12h-144zM0 35v23h144v-23h-144zM0 -181v187h144
v-187v-19h-19h-106h-19v19zM0 9v23h144v-23h-144zM0 61v24h144v-24h-144zM0 377v18h330v-18h-330zM0 403v18h330v-18h-330zM0 298v19h330v-13h-19h-167v-6h-144zM0 325v18h330v-18h-330zM0 430v16h330v-14v-2h-330zM0 272v20h144v-20h-144zM0 483v15h144v-15h-144zM0 509v15
h144v-15h-144zM0 457v15h144v-15h-144zM0 351v18h330v-18h-330zM0 245v21h144v-21h-144zM0 140v21h144v-21h-144zM0 113v24h144v-24h-144zM0 87v24h144v-24h-144zM0 535v15h144v-15h-144zM0 219v21h144v-21h-144zM0 193v21h144v-21h-144zM0 167v20h144v-20h-144zM0 800h19
l323 -1v-1h-342v2z" />
    <glyph glyph-name="G" unicode="G" horiz-adv-x="442" 
d="M1 616c0 4 0 8 1 11h142v-11h-143zM235 616v11h143c0 -3 0 -7 1 -11h-144zM0 562v15h144v-15h-144zM235 562v15h144v-15h-144zM8 668l3 12h358l3 -12h-364zM0 589v12h144v-13h-144v1zM235 588v13h144v-12v-1h-144zM88 783h204c5 -3 10 -6 14 -9h-233zM43 746
c3 4 6 7 9 11h275c3 -4 6 -7 9 -11h-293zM15 694c1 4 3 8 4 12h341c2 -4 3 -8 4 -12h-349zM26 720c2 4 4 8 7 12h314l6 -12h-327zM3 642c1 4 1 8 2 12h149c-5 -3 -8 -6 -9 -12h-142zM234 642c-1 6 -4 9 -8 12h148c1 -4 2 -8 2 -12h-142zM379 59v-24h-144v24h144zM0 35v24
h144v-24h-144zM163 -200c-75 2 -161 40 -163 206h144v-38c0 -18 6 -24 24 -24h43c19 0 24 6 24 24v38h144v-187v-19h-18h-24h-83h-19h-49h-18h-5v0zM0 11v21h144v-23h-144v2zM379 32v-23h-144v23h144zM379 85v-23h-144v23h144zM0 62v23h144v-23h-144zM379 395v-17h-189v17
h189zM0 378v17h144v-17h-144zM379 421v-17h-189v17h189zM0 404v17h144v-17h-144zM0 298v19h144v-19h-144zM379 317v-19h-144v6h-27h-18v13h189zM379 343v-17h-189v17h189zM0 326v17h144v-17h-144zM0 430v16h144v-16h-144zM379 446v-16h-189v16h189zM379 292v-20h-144v20h144
zM0 272v20h144v-20h-144zM0 484v14h144v-14h-144zM0 510v14h144v-14h-144zM235 510v14h144v-14h-144zM0 458v14h144v-14h-144zM379 369v-17h-189v17h189zM0 352v17h144v-17h-144zM379 266v-20h-144v20h144zM0 246v20h144v-20h-144zM0 140v22h144v-22h-144zM379 162v-22h-144
v22h144zM0 114v23h144v-23h-144zM379 137v-23h-144v23h144zM0 88v23h144v-23h-144zM379 111v-23h-144v23h144zM235 536v15h144v-15h-144zM0 536v15h144v-15h-144zM0 220v20h144v-20h-144zM379 240v-20h-144v20h144zM379 214v-20h-144v20h144zM0 194v20h144v-20h-144z
M379 188v-21h-144v21h144zM0 167v21h144v-21h-144zM211 800c9 0 18 -1 28 -2h-98c9 1 18 2 27 2h43z" />
    <glyph glyph-name="H" unicode="H" horiz-adv-x="452" 
d="M235 615v12h144v-12h-144zM144 627v-12h-144v12h144zM235 562v14h144v-14h-144zM144 576v-14h-144v14h144zM235 668v11h144v-11h-144zM144 679v-11h-144v11h144zM144 601v-13h-144v13h144zM235 588v13h144v-13h-144zM144 781v-8h-144v8v1h144v-1zM235 781v1h144v-1v-8
h-144v8zM235 746v10h144v-10h-144zM144 756v-10h-144v10h144zM144 705v-11h-144v11h144zM235 694v11h144v-11h-144zM235 720v11h144v-11h-144zM144 731v-11h-144v11h144zM235 642v11h144v-11h-144zM144 653v-11h-144v11h144zM235 36v23h144v-23h-144zM0 36v23h144v-23h-144z
M235 -181v188h144v-188v-19h-19l-107 1h-18v18zM0 -181v188h144v-188v-18h-19h-107h-18v18zM235 10v23h144v-23h-144zM0 10v23h144v-23h-144zM0 62v23h144v-23h-144zM235 62v23h144v-23h-144zM0 378v17h379v-17h-379zM0 404v17h379v-17h-379zM0 298v19h379v-19h-144v6h-91
v-6h-144zM0 326v17h379v-17h-379zM0 430v16h379v-16h-379zM0 272v20h144v-20h-144zM235 272v20h144v-20h-144zM144 498v-14h-144v14h144zM235 484v14h144v-14h-144zM235 510v14h144v-14h-144zM144 524v-14h-144v14h144zM235 457v15h144v-15h-144zM144 472v-15h-144v15h144z
M0 352v17h379v-17h-379zM0 246v20h144v-20h-144zM235 246v20h144v-20h-144zM235 140v22h144v-22h-144zM0 140v22h144v-22h-144zM235 114v23h144v-23h-144zM0 114v23h144v-23h-144zM0 88v23h144v-23h-144zM235 88v23h144v-23h-144zM235 536v14h144v-14h-144zM144 550v-14
h-144v14h144zM0 220v20h144v-20h-144zM235 220v20h144v-20h-144zM235 194v20h144v-20h-144zM0 194v20h144v-20h-144zM0 168v20h144v-20h-144zM235 168v20h144v-20h-144zM144 799v-1h-144v1h18h107h19zM253 799l107 1h19v-2h-144v1h18z" />
    <glyph glyph-name="I" unicode="I" 
d="M0 616v11h144v-11h-144zM0 562v15h144v-15h-144zM0 668v12h144v-12h-144zM0 588v13h144v-13h-144zM0 781v2h144v-2v-7h-144v7zM0 746v11h144v-11h-144zM0 694v12h144v-12h-144zM0 720v12h144v-12h-144zM0 642v12h144v-12h-144zM0 35v24h144v-24h-144zM0 -181v187h144
v-187v-19h-18h-107h-19v19zM0 9v23h144v-23h-144zM0 62v23h144v-23h-144zM0 378v17h144v-17h-144zM0 404v17h144v-17h-144zM0 298v19h144v-19h-144zM0 326v17h144v-17h-144zM0 430v16h144v-16h-144zM0 272v20h144v-20h-144zM0 484v14h144v-14h-144zM0 510v14h144v-14h-144z
M0 458v14h144v-14h-144zM0 352v17h144v-17h-144zM0 246v20h144v-20h-144zM0 140v22h144v-22h-144zM0 114v23h144v-23h-144zM0 88v23h144v-23h-144zM0 536v15h144v-15h-144zM0 220v20h144v-20h-144zM0 194v20h144v-20h-144zM0 167v21h144v-21h-144zM19 804h107h18v-6h-144v6
h19z" />
    <glyph glyph-name="J" unicode="J" horiz-adv-x="451" 
d="M235 616v11h144v-11h-144zM235 562v15h144v-15h-144zM235 668v12h144v-12h-144zM235 588v13h144v-13h-144zM235 781v2h144v-2v-7h-144v7zM235 746v11h144v-11h-144zM235 694v12h144v-12h-144zM235 720v12h144v-12h-144zM235 642v12h144v-12h-144zM144 59v-24h-144v24h144
zM235 35v24h144v-24h-144zM235 -32v38h144c-1 -170 -92 -206 -168 -206h-43c-76 0 -166 36 -168 206h144v-38c0 -18 6 -24 24 -24h43c19 0 24 6 24 24zM144 32v-23h-144v2v21h144zM235 9v23h144v-21v-2h-144zM144 85v-23h-144v23h144zM235 62v23h144v-23h-144zM235 378v17
h144v-17h-144zM235 404v17h144v-17h-144zM235 298v19h144v-19h-144zM235 326v17h144v-17h-144zM235 430v16h144v-16h-144zM235 272v20h144v-20h-144zM235 484v14h144v-14h-144zM235 510v14h144v-14h-144zM235 458v14h144v-14h-144zM235 352v17h144v-17h-144zM235 246v20h144
v-20h-144zM144 266v-20h-144v20h144zM144 162v-22h-144v22h144zM235 140v22h144v-22h-144zM235 114v23h144v-23h-144zM144 137v-23h-144v23h144zM144 111v-23h-144v23h144zM235 88v23h144v-23h-144zM235 536v15h144v-15h-144zM144 240v-20h-144v20h144zM235 220v20h144v-20
h-144zM144 214v-20h-144v20h144zM235 194v20h144v-20h-144zM235 167v21h144v-21h-144zM144 188v-21h-144v21h144zM254 800h107h18v-2h-144v2h19z" />
    <glyph glyph-name="K" unicode="K" horiz-adv-x="466" 
d="M339 642l-5 -11h-147l5 11h147zM146 642v-11h-146v11h146zM146 591v-15h-146v15h146zM316 591l-6 -15h-147l6 15h147zM146 695v-11h-146v11h146zM363 695l-5 -11h-148l5 11h148zM327 616l-6 -13h-147l6 13h147zM146 616v-13h-146v13h146zM410 800l-4 -9h-149l4 9h149z
M146 796v-5h-146v5v4h146v-4zM146 774v-11h-146v11h146zM398 774l-4 -11h-150l5 11h149zM146 722v-12h-146v12h146zM375 722l-5 -12h-149l5 12h149zM146 748v-11h-146v11h146zM387 748l-5 -11h-149l5 11h149zM146 669v-12h-146v12h146zM351 669l-5 -12h-148l5 12h148zM0 42
v23h146v-23h-146zM312 65l9 -23h-139l-9 23h139zM333 12l73 -186l10 -26h-28h-109h-13l-4 13l-70 199h141zM0 -181v193h146v-193v-19h-19h-108h-19v19zM0 15v24h146v-24h-146zM322 39l9 -24h-140l-8 24h139zM0 68v24h146v-24h-146zM301 92l10 -24h-139l-8 24h137zM233 407
l-8 -18h-225v18h233zM245 433l-8 -17h-237v17h245zM210 325l7 -17h-217v19h209zM204 342l2 -6h-206v18h209zM256 458l-7 -16h-249v16h256zM219 302l8 -20h-227v20h219zM280 511l-6 -14h-274v14h280zM292 538l-6 -15h-286v15h292zM268 485l-6 -15h-262v15h268zM221 380
l-8 -17h-213v17h221zM229 276l9 -21h-238v21h229zM271 170l9 -22h-280v22h271zM281 145l9 -24h-136l-8 21v-21h-146v24h281zM291 118l9 -23h-137l-8 23h136zM0 95v23h146v-23h-146zM146 564v-14h-146v14h146zM304 564l-6 -14h-147l7 14h146zM240 249l8 -20h-248v20h240z
M250 223l8 -21h-258v21h250zM261 196l8 -20h-269v20h261z" />
    <glyph glyph-name="L" unicode="L" horiz-adv-x="412" 
d="M146 642v-11h-146v11h146zM146 591v-15h-146v15h146zM146 695v-11h-146v11h146zM146 616v-13h-146v13h146zM146 796v-5h-146v5v4h146v-4zM146 774v-11h-146v11h146zM146 722v-12h-146v12h146zM146 748v-11h-146v11h146zM146 669v-12h-146v12h146zM146 65v-23h-146v23h146
zM363 -73v-108v-19h-18h-326h-19v19v193h146v-66h199h18v-19zM146 39v-24h-146v24h146zM146 92v-24h-146v24h146zM146 407v-18h-146v18h146zM146 433v-17h-146v17h146zM146 327v-19h-146v19h146zM146 354v-18h-146v18h146zM146 458v-16h-146v16h146zM146 302v-20h-146v20
h146zM146 511v-14h-146v14h146zM146 538v-15h-146v15h146zM146 485v-15h-146v15h146zM146 380v-17h-146v17h146zM146 276v-21h-146v21h146zM146 170v-22h-146v22h146zM146 145v-24h-146v24h146zM146 118v-23h-146v23h146zM146 564v-14h-146v14h146zM146 249v-20h-146v20h146
zM146 223v-21h-146v21h146zM146 196v-20h-146v20h146z" />
    <glyph glyph-name="M" unicode="M" horiz-adv-x="653" 
d="M221 642l2 -11h-223v11h221zM581 642v-11h-221l2 11h219zM581 591v-15h-230l2 15h228zM230 591l3 -15h-233v15h230zM211 695l2 -11h-213v11h211zM581 695v-11h-212l2 11h210zM226 616l2 -13h-228v13h226zM581 616v-13h-226l2 13h224zM581 796v-5h-194l1 9h193v-4z
M193 800l1 -9h-194v5v4h193zM581 773v-10h-199l2 10h197zM197 773l2 -10h-199v10h197zM581 722v-12h-208l2 12h206zM207 722l2 -12h-209v12h207zM202 748l2 -11h-204v11h202zM581 748v-11h-204l2 11h202zM581 669v-12h-217l2 12h215zM216 669l2 -12h-218v12h216zM186 42
l-3 23h215l-4 -23h-208zM581 65v-23h-147v23h147zM0 42v23h146v-23h-146zM581 12v-193v-19h-19h-109h-19v19v193h147zM217 -184l-27 196h200l-27 -196l-3 -16h-15h-109h-16zM0 -181v193h146v-193v-19h-19h-108h-19v19zM190 15l-3 24h207l-3 -24h-201zM581 39v-24h-147v24
h147zM0 15v24h146v-24h-146zM0 68v24h146v-24h-146zM581 92v-24h-147v24h147zM182 68l-3 24h222l-3 -24h-216zM581 407v-18h-261l3 18h258zM263 407l3 -18h-266v18h263zM581 433v-17h-257l3 17h254zM258 433l4 -17h-262v17h258zM0 308v19h146v-19h-146zM581 327v-19h-147v19
h147zM306 308l4 19h124l-3 -19h-125zM277 327l4 -19h-132l-3 19h131zM273 354l3 -18h-276v18h273zM581 354v-18h-270l3 18h267zM581 458v-16h-252l2 16h250zM254 458l3 -16h-257v16h254zM0 282v20h146v-20h-146zM302 282l3 20h126l-3 -20h-126zM282 302l4 -20h-133l-3 20
h132zM581 302v-20h-147v20h147zM244 511l3 -14h-247v14h244zM581 511v-14h-243l2 14h241zM581 538v-15h-239l2 15h237zM240 538l2 -15h-242v15h240zM581 485v-15h-248l3 15h245zM249 485l3 -15h-252v15h249zM581 380v-17h-266l3 17h263zM268 380l3 -17h-271v17h268zM0 255
v21h146v-21h-146zM581 276v-21h-147v21h147zM298 255l3 21h126l-3 -21h-126zM287 276l3 -21h-134l-2 21h133zM171 148l-3 22h244l-3 -22h-238zM581 170v-22h-147v22h147zM0 148v22h146v-22h-146zM0 121v24h146v-24h-146zM581 145v-24h-147v24h147zM175 121l-3 24h237l-3 -24
h-231zM179 95l-4 23h230l-3 -23h-223zM581 118v-23h-147v23h147zM0 95v23h146v-23h-146zM581 564v-14h-235l3 14h232zM235 564l3 -14h-238v14h235zM0 229v20h146v-20h-146zM294 234l3 15h126l-3 -20h-260l-3 20h134zM581 249v-20h-147v20h147zM164 202l-3 21h259l-3 -21
h-253zM581 223v-21h-147v21h147zM0 202v21h146v-21h-146zM168 176l-3 20h251l-3 -20h-245zM0 176v20h146v-20h-146zM581 196v-20h-147v20h147z" />
    <glyph glyph-name="N" unicode="N" horiz-adv-x="501" 
d="M201 642l2 -11h-203v11h201zM429 642v-11h-147v11h147zM211 591l4 -15h-215v15h211zM429 591v-15h-147v15h147zM429 695v-11h-147v11h147zM190 695l2 -11h-192v11h190zM206 616l3 -13h-209v13h206zM429 616v-13h-147v13h147zM168 800l1 -9h-169v5v4h168zM429 796v-5h-147
v5v4h147v-4zM429 773v-10h-147v10h147zM173 773l2 -10h-175v10h173zM184 722l2 -12h-186v12h184zM429 722v-12h-147v12h147zM429 748v-11h-147v11h147zM178 748l3 -11h-181v11h178zM429 669v-12h-147v12h147zM195 669l3 -12h-198v12h195zM429 65v-23h-220l-5 23h225zM0 42
v23h146v-23h-146zM429 12v-193v-19h-19h-131h-14l-4 14l-45 198h213zM0 -181v193h146v-193v-19h-19h-108h-19v19zM0 15v24h146v-24h-146zM429 39v-24h-214l-5 24h219zM0 68v24h146v-24h-146zM429 92v-24h-226l-5 24h231zM250 407l4 -18h-254v18h250zM429 407v-18h-147v18
h147zM245 433l3 -17h-248v17h245zM429 433v-17h-147v17h147zM429 327v-19h-147v19h147zM267 327l4 -19h-123l-2 8v-8h-146v19h267zM261 354l4 -18h-265v18h261zM429 354v-18h-147v18h147zM429 458v-16h-147v16h147zM239 458l4 -16h-243v16h239zM272 302l5 -20h-123l-5 20
h123zM0 282v20h146v-20h-146zM429 302v-20h-147v20h147zM228 511l3 -14h-231v14h228zM429 511v-14h-147v14h147zM429 538v-15h-147v15h147zM223 538l3 -15h-226v15h223zM234 485l3 -15h-237v15h234zM429 485v-15h-147v15h147zM256 380l4 -17h-260v17h256zM429 380v-17h-147
v17h147zM278 276l4 -21h-122l-5 21h123zM429 276v-21h-147v21h147zM0 255v21h146v-21h-146zM0 148v22h146v-22h-146zM429 170v-22h-244l-5 22h249zM0 121v24h146v-24h-146zM429 145v-24h-238l-6 24h244zM0 95v23h146v-23h-146zM429 118v-23h-232l-5 23h237zM429 564v-14
h-147v14h147zM217 564l3 -14h-220v14h217zM0 229v20h146v-20h-146zM429 249v-20h-263l-5 20h268zM429 223v-21h-257l-4 21h261zM0 202v21h146v-21h-146zM429 196v-20h-251l-4 20h255zM0 176v20h146v-20h-146z" />
    <glyph glyph-name="O" unicode="O" horiz-adv-x="450" 
d="M146 646v-12h-147c0 4 1 8 1 12h146zM239 634v12h146c0 -4 1 -8 1 -12h-147zM146 594v-15h-148v15h148zM239 579v15h148v-15h-148zM375 699c1 -3 2 -7 3 -11h-371c1 4 2 8 3 11h365zM239 606v13h148v-13h-148zM146 619v-13h-148v13h148zM291 805c6 -3 12 -6 17 -9h-231
c5 3 11 6 17 9h197zM331 778c3 -3 7 -6 10 -10h-297l10 10h277zM366 726c2 -4 3 -8 5 -12h-357c2 4 4 8 5 12h347zM352 753c2 -4 5 -8 7 -12h-333c3 4 5 8 7 12h319zM171 672c-14 0 -21 -3 -23 -11h-146c0 4 1 8 2 12h377c1 -4 2 -8 2 -12h-145c-3 8 -10 11 -24 11h-43z
M146 63v-24h-148v24h148zM239 39v24h148v-24h-148zM387 9c-1 -177 -94 -214 -173 -214h-43c-79 0 -172 37 -173 214h148v-41c0 -19 6 -25 25 -25h43c19 0 25 6 25 25v41h148zM146 36v-24h-148v24h148zM239 12v24h148v-24h-148zM239 66v24h148v-24h-148zM146 90v-24h-148v24
h148zM239 390v18h148v-18h-148zM146 408v-18h-148v18h148zM239 417v18h148v-18h-148zM146 435v-18h-148v18h148zM146 328v-20h-148v20h148zM239 308v20h148v-20h-148zM146 354v-18h-148v18h148zM239 336v18h148v-18h-148zM146 460v-16h-148v16h148zM239 444v16h148v-16h-148
zM146 302v-21h-148v21h148zM239 281v21h148v-21h-148zM239 499v14h148v-14h-148zM146 513v-14h-148v14h148zM239 525v15h148v-15h-148zM146 540v-15h-148v15h148zM239 472v15h148v-15h-148zM146 487v-15h-148v15h148zM239 363v18h148v-18h-148zM146 381v-18h-148v18h148z
M146 275v-20h-148v20h148zM239 255v20h148v-20h-148zM239 146v22h148v-22h-148zM146 168v-22h-148v22h148zM239 119v24h148v-24h-148zM146 143v-24h-148v24h148zM239 93v23h148v-23h-148zM146 116v-23h-148v23h148zM239 552v15h148v-15h-148zM146 567v-15h-148v15h148z
M239 228v21h148v-21h-148zM146 249v-21h-148v21h148zM239 201v21h148v-21h-148zM146 222v-21h-148v21h148zM239 174v21h148v-21h-148zM146 195v-21h-148v21h148z" />
    <glyph glyph-name="P" unicode="P" horiz-adv-x="425" 
d="M239 631v11h146v-11h-146zM146 642v-11h-146v11h146zM239 576v15h146v-15h-146zM146 591v-15h-146v15h146zM381 695c1 -3 1 -7 2 -11h-383v11h381zM146 616v-13h-146v13h146zM239 603v13h146v-13h-146zM309 800c6 -3 11 -5 16 -9h-325v5v4h309zM345 773c3 -3 6 -6 9 -10
h-354v10h345zM374 722c2 -4 3 -8 4 -12h-378v12h374zM363 748c2 -3 4 -7 6 -11h-369v11h363zM146 669v-12h-146v12h384c1 -4 1 -8 1 -12h-148c-4 6 -12 12 -33 12h-58zM146 65v-23h-146v23h146zM146 12v-193v-19h-19h-108h-19v19v193h146zM146 39v-24h-146v24h146zM146 92
v-24h-146v24h146zM381 407c-1 -6 -3 -12 -4 -18h-377v18h381zM384 433c0 -6 -1 -12 -2 -17h-382v17h384zM343 327c-7 -7 -15 -14 -24 -19h-319v19h343zM363 354c-4 -7 -8 -13 -12 -18h-351v18h363zM234 442c5 5 5 11 5 16h146v-16h-151zM146 458v-16h-146v16h146zM146 288
v-6h-146v20h308c-23 -10 -48 -14 -72 -14h-90zM146 511v-14h-146v14h146zM239 497v14h146v-14h-146zM239 523v15h146v-15h-146zM146 538v-15h-146v15h146zM239 470v15h146v-15h-146zM146 485v-15h-146v15h146zM374 380c-2 -6 -4 -12 -7 -17h-367v17h374zM146 276v-21h-146
v21h146zM146 170v-22h-146v22h146zM146 145v-24h-146v24h146zM146 118v-23h-146v23h146zM146 564v-14h-146v14h146zM239 550v14h146v-14h-146zM146 249v-20h-146v20h146zM146 223v-21h-146v21h146zM146 196v-20h-146v20h146z" />
    <glyph glyph-name="Q" unicode="Q" horiz-adv-x="427" 
d="M123 631v-11h-146c1 4 1 8 2 12h144v-1zM216 631v1h144c0 -4 1 -8 1 -12h-145v11zM123 580v-15h-147v15h147zM216 565v15h146v-15h-146zM-14 673l3 12h361l3 -12h-367zM123 605v-13h-147c0 5 1 9 1 13h146zM216 592v13h146v-13h-146zM259 790c7 -2 13 -5 19 -9h-218
c6 4 12 7 19 9h180zM25 753c3 4 7 7 10 10h268c4 -3 7 -6 10 -10h-288zM-6 700c1 4 3 8 5 12h341c1 -4 3 -8 5 -12h-351zM6 726c2 5 5 9 7 12h312c2 -3 5 -7 7 -12h-326zM-20 647c1 4 2 8 2 12h374c1 -4 1 -8 2 -12h-145c-4 6 -10 8 -22 8h-44c-11 0 -18 -2 -21 -8h-146z
M216 29v24h146v-24h-146zM123 53v-24h-147v24h147zM216 -44v43h146c0 -103 -32 -159 -74 -187l73 -136h-168l-51 109c-77 2 -166 41 -166 214h147v-43c0 -6 1 -11 2 -15h12h76c2 4 3 9 3 15zM123 26v-24h-147v24h147zM216 2v24h146v-24h-146zM216 56v23h146v-23h-146z
M123 79v-23h-147v23h147zM123 395v-17h-147v17h147zM216 378v17h146v-17h-146zM216 404v18h146v-18h-146zM123 422v-18h-147v18h147zM216 296v20h146v-20h-146zM123 316v-20h-147v20h147zM216 325v17h146v-17h-146zM123 342v-17h-147v17h147zM216 431v16h146v-16h-146z
M123 447v-16h-147v16h147zM216 270v21h146v-21h-146zM123 291v-21h-147v21h147zM123 500v-14h-147v14h147zM216 486v14h146v-14h-146zM216 512v15h146v-15h-146zM123 527v-15h-147v15h147zM216 459v15h146v-15h-146zM123 474v-15h-147v15h147zM216 351v18h146v-18h-146z
M123 369v-18h-147v18h147zM216 243v21h146v-21h-146zM123 264v-21h-147v21h147zM123 158v-23h-147v23h147zM216 135v23h146v-23h-146zM216 109v23h146v-23h-146zM123 132v-23h-147v23h147zM123 106v-24h-147v24h147zM216 82v24h146v-24h-146zM216 539v15h146v-15h-146z
M123 554v-15h-147v15h147zM123 237v-20h-147v20h147zM216 217v20h146v-20h-146zM216 190v21h146v-21h-146zM123 211v-21h-147v21h147zM123 184v-21h-147v21h147zM216 163v21h146v-21h-146z" />
    <glyph glyph-name="R" unicode="R" horiz-adv-x="432" 
d="M217 631v11h146v-11h-146zM146 642v-11h-146v11h146zM217 576v15h146v-15h-146zM146 591v-15h-146v15h146zM359 695c1 -3 1 -7 2 -11h-361v11h359zM217 603v13h146v-13h-146zM146 616v-13h-146v13h146zM287 800c6 -3 11 -5 16 -9h-303v5v4h287zM323 774c3 -4 6 -7 9 -11
h-332v11h323zM353 722l3 -12h-356v12h353zM341 748c2 -3 4 -7 6 -11h-347v11h341zM146 669v-12h-146v12h362c1 -4 1 -8 1 -12h-148c-4 6 -12 12 -33 12h-36zM363 65v-23h-146v23h146zM0 42v23h146v-23h-146zM217 12h146v-212h-146v212zM0 -181v193h146v-193v-19h-19h-108
h-19v19zM363 39v-24h-146v24h146zM0 15v24h146v-24h-146zM363 92v-24h-146v24h146zM0 68v24h146v-24h-146zM350 407c-3 -6 -7 -12 -12 -18h-338v18h350zM360 433c-1 -6 -3 -12 -5 -17h-355v17h360zM336 327c4 -6 7 -12 10 -19h-346v19h336zM314 354c6 -6 11 -12 16 -18h-330
v18h314zM217 458h146c0 -5 0 -10 -1 -16h-150c5 5 5 11 5 16zM146 458v-16h-146v16h146zM349 302c3 -7 5 -13 7 -20h-140c-2 11 -8 15 -23 15h-47v-15h-146v20h349zM217 497v14h146v-14h-146zM146 511v-14h-146v14h146zM146 538v-15h-146v15h146zM217 523v15h146v-15h-146z
M217 470v15h146v-15h-146zM146 485v-15h-146v15h146zM303 363h1h-304v17h329c-7 -6 -16 -12 -26 -17zM0 255v21h146v-21h-146zM358 276c2 -7 3 -14 4 -21h-145v17v4h141zM0 148v22h146v-22h-146zM363 170v-22h-146v22h146zM363 145v-24h-146v24h146zM0 121v24h146v-24h-146z
M0 95v23h146v-23h-146zM363 118v-23h-146v23h146zM217 550v14h146v-14h-146zM146 564v-14h-146v14h146zM0 229v20h146v-20h-146zM363 231v-2h-146v20h145c1 -6 1 -12 1 -18zM363 223v-21h-146v21h146zM0 202v21h146v-21h-146zM0 176v20h146v-20h-146zM363 196v-20h-146v20
h146z" />
    <glyph glyph-name="S" unicode="S" horiz-adv-x="444" 
d="M-1 623c0 4 1 8 1 12h146v-12h-147zM240 623v12h146c0 -4 1 -8 1 -12h-147zM-2 568v15h148v-15h-148zM240 568v15h148v-15h-148zM6 677l3 12h368l3 -12h-374zM240 595v13h147c1 -4 1 -8 1 -13v0h-148zM-2 595v13h148v-13h-148v0zM90 795h206l15 -9h-237c5 3 11 6 16 9z
M43 758c3 3 6 7 9 10h281c4 -3 7 -7 10 -10h-300zM14 704c1 4 3 8 4 12h349c2 -4 4 -8 5 -12h-358zM25 731c3 4 5 8 7 12h322l6 -12h-335zM2 650c0 4 1 8 1 12h161c-10 -3 -15 -7 -17 -12h-145zM236 650c-3 5 -11 9 -26 12h172c1 -4 2 -8 2 -12h-148zM240 45v4h148v-24h-148
v20zM146 49v-24h-148v24h148zM240 -42v37h148v-37c0 -113 -60 -173 -173 -173h-44c-113 0 -173 60 -173 173v37h148v-37c0 -13 3 -26 35 -28c39 2 59 11 59 28zM240 -2v24h148v-24h-148zM146 22v-24h-148v24h148zM240 58c0 6 -1 12 -2 18h150v-24h-148v3v3zM146 68v-16h-148
v16v8h148v-8zM34 378c-4 6 -7 12 -10 18h199c4 -6 8 -12 13 -18h-202zM20 405c-3 6 -6 12 -8 18h192l12 -18h-196zM90 297c-5 6 -9 12 -14 18h207c4 -5 8 -10 13 -16c1 -1 2 -2 2 -3h-206c-1 0 -1 1 -2 1zM70 324c-5 6 -9 12 -13 18h205c5 -6 9 -12 14 -18h-206zM8 432
c-2 5 -3 11 -5 16h184c3 -5 7 -11 11 -16h-190zM113 269c-6 7 -11 14 -17 21h207c6 -7 11 -14 16 -21h-206zM-2 487v15h158c2 -5 4 -10 7 -15h-165zM-2 514v15h149c1 -4 2 -9 4 -15h-153zM240 514v15h148v-15h-148zM1 460c-1 5 -2 10 -2 15h170l2 -2c2 -4 5 -9 8 -13h-178z
M51 351l-12 18h203c5 -6 9 -12 14 -18h-205zM133 242c-5 7 -10 14 -16 21h206l15 -21h-205zM209 133c-4 7 -9 15 -14 22h186c2 -7 4 -15 5 -22h-177zM222 113c-3 6 -7 11 -11 17h175c1 -6 2 -12 2 -18v-6h-162c-2 3 -3 5 -4 7zM237 79c-3 9 -6 18 -9 24h160v-24h-151z
M146 87v-8h-148v8h19h110h19zM240 541v15h148v-15h-148zM-2 541v15h148v-15h-148zM153 215l-15 21h203c5 -7 9 -14 13 -21h-201zM172 188l-15 21h200c4 -7 8 -14 11 -21h-196zM191 161l-15 21h195c3 -7 6 -14 8 -21h-188z" />
    <glyph glyph-name="T" unicode="T" horiz-adv-x="465" 
d="M131 630v12h146v-12h-146zM131 575v15h146v-15h-146zM0 690v5h408v-5v-7h-408v7zM131 602v13h146v-13h-146zM0 799v1h408v-1v-8h-408v8zM0 763v10h408v-10h-408zM0 710v12h408v-12h-408zM0 736v12h408v-12h-408zM131 657v12h146v-12h-146zM131 39v24h146v-24h-146z
M131 -181v190h146v-190v-19h-18h-109h-19v19zM131 12v24h146v-24h-146zM131 66v23h146v-23h-146zM131 388v18h146v-18h-146zM131 414v18h146v-18h-146zM131 306v20h146v-20h-146zM131 335v17h146v-17h-146zM131 441v16h146v-16h-146zM131 280v21h146v-21h-146zM131 496v14
h146v-14h-146zM131 522v15h146v-15h-146zM131 469v15h146v-15h-146zM131 361v18h146v-18h-146zM131 253v21h146v-21h-146zM131 145v23h146v-23h-146zM131 119v23h146v-23h-146zM131 92v24h146v-24h-146zM131 549v15h146v-15h-146zM131 227v20h146v-20h-146zM131 200v21h146
v-21h-146zM131 174v20h146v-20h-146z" />
    <glyph glyph-name="U" unicode="U" horiz-adv-x="451" 
d="M144 627v-12h-144v12h144zM235 615v12h144v-12h-144zM144 576v-14h-144v14h144zM235 562v14h144v-14h-144zM144 679v-12h-144v12h144zM235 667v12h144v-12h-144zM235 588v13h144v-13h-144zM144 601v-13h-144v13h144zM235 781v1h144v-1v-8h-144v8zM144 781v-8h-144v8v1
h144v-1zM144 756v-10h-144v10h144zM235 746v10h144v-10h-144zM144 705v-11h-144v11h144zM235 694v11h144v-11h-144zM144 731v-11h-144v11h144zM235 720v11h144v-11h-144zM144 653v-12h-144v12h144zM235 641v12h144v-12h-144zM144 58v-23h-144v23h144zM235 35v23h144v-23
h-144zM235 -32v38h144c-2 -170 -92 -206 -168 -206h-43c-76 0 -166 36 -168 206h144v-38c0 -18 6 -24 24 -24h43c19 0 24 6 24 24zM235 9v23h144v-21v-2h-144zM144 32v-23h-144v2v21h144zM144 84v-23h-144v23h144zM235 61v23h144v-23h-144zM235 377v18h144v-18h-144z
M144 395v-18h-144v18h144zM144 421v-18h-144v18h144zM235 403v18h144v-18h-144zM235 297v19h144v-19h-144zM144 316v-19h-144v19h144zM144 342v-17h-144v17h144zM235 325v17h144v-17h-144zM144 445v-16h-144v16h144zM235 429v16h144v-16h-144zM144 292v-21h-144v21h144z
M235 271v21h144v-21h-144zM235 483v15h144v-15h-144zM144 498v-15h-144v15h144zM144 524v-15h-144v15h144zM235 509v15h144v-15h-144zM235 457v15h144v-15h-144zM144 472v-15h-144v15h144zM144 369v-18h-144v18h144zM235 351v18h144v-18h-144zM235 245v20h144v-20h-144z
M144 265v-20h-144v20h144zM235 139v22h144v-22h-144zM144 161v-22h-144v22h144zM235 113v23h144v-23h-144zM144 136v-23h-144v23h144zM235 87v23h144v-23h-144zM144 110v-23h-144v23h144zM235 535v15h144v-15h-144zM144 550v-15h-144v15h144zM144 239v-20h-144v20h144z
M235 219v20h144v-20h-144zM144 213v-20h-144v20h144zM235 193v20h144v-20h-144zM235 167v20h144v-20h-144zM144 187v-20h-144v20h144zM144 800v-1h-144v1h19h107h18zM254 800h107h18v-1h-144v1h19z" />
    <glyph glyph-name="V" unicode="V" horiz-adv-x="514" 
d="M292 612l1 12h139l-2 -12h-138zM166 624l1 -12h-139l-2 12h140zM285 559l2 14h138l-2 -14h-138zM172 573l2 -14h-138l-2 14h138zM298 665l1 11h141l-2 -11h-140zM160 676l1 -11h-141l-1 11h141zM169 598l2 -13h-139l-2 13h139zM288 585l2 13h138l-2 -13h-138zM148 779
l1 -9h-145l-1 9h145zM310 770l1 9h144v-1l-1 -8h-144zM151 753l1 -10h-143l-2 10h144zM307 743l1 10h143l-1 -10h-143zM157 702l1 -12h-142l-1 12h142zM301 690l1 12h142l-2 -12h-141zM154 728l1 -11h-142l-2 11h143zM304 717l1 11h143l-2 -11h-142zM163 650l1 -12h-140
l-2 12h141zM295 638l1 12h140l-2 -12h-139zM115 34l-4 23h237l-4 -23h-229zM148 -185l-29 190h221l-28 -190l-3 -15h-15h-128h-16zM119 8l-4 23h229l-3 -23h-222zM111 60l-4 23h245l-4 -23h-237zM264 375l2 18h132l-3 -18h-131zM194 393l2 -18h-132l-3 18h133zM267 401l2 18
h133l-3 -18h-132zM191 419l2 -18h-133l-3 18h134zM203 315l2 -19h-129l-3 19h130zM254 296l2 19h130l-3 -19h-129zM200 341l2 -18h-131l-2 18h131zM257 323l3 18h130l-3 -18h-130zM270 427l2 16h133l-2 -16h-133zM188 443l1 -16h-133l-3 16h135zM206 290l2 -20h-129l-3 20
h130zM251 270l3 20h128l-3 -20h-128zM276 481l2 14h135l-2 -14h-135zM181 495l2 -14h-135l-2 14h135zM279 507l2 14h136l-2 -14h-136zM178 521l2 -14h-136l-2 14h136zM184 469l2 -14h-134l-2 14h134zM273 455l2 14h134l-2 -14h-134zM261 349l2 18h131l-3 -18h-130zM197 367
l2 -18h-131l-3 18h132zM209 264l2 -20h-128l-3 20h129zM248 244l2 20h129l-3 -20h-128zM221 160l3 -22h-125l-3 22h125zM236 138l2 22h125l-3 -22h-124zM224 135l3 -23h-124l-3 23h124zM232 112l3 23h124l-3 -23h-124zM230 89l2 20h124l-4 -23h-245l-3 23h123zM175 547
l2 -14h-137l-2 14h137zM282 533l2 14h137l-2 -14h-137zM245 218l2 20h128l-3 -20h-127zM212 238l2 -20h-127l-3 20h128zM242 192l2 20h127l-3 -20h-126zM215 212l2 -20h-126l-3 20h127zM239 166l2 20h126l-3 -20h-125zM218 186l3 -20h-126l-3 20h126zM145 800l1 -4h-145
l-1 4h22h107h16zM330 800h107h22l-1 -4h-145l1 4h16z" />
    <glyph glyph-name="W" unicode="W" horiz-adv-x="721" 
d="M156 627l1 -12h-131l-2 12h132zM409 627l2 -12h-160l2 12h156zM509 615l1 12h129l-2 -12h-128zM502 562l2 14h128l-2 -14h-128zM161 576l2 -14h-130l-2 14h130zM417 576l3 -14h-178l3 14h172zM150 679l1 -12h-133l-1 12h133zM515 667l1 12h130l-2 -12h-129zM401 679
l2 -12h-144l2 12h140zM159 601l1 -13h-130l-2 13h131zM505 588l2 13h128l-2 -13h-128zM413 601l3 -13h-170l2 13h165zM139 782l1 -9h-137l-1 6v3h137zM527 773l1 9h132v-3l-1 -6h-132zM385 782l1 -9h-110l1 9h108zM389 756l1 -10h-118l1 10h116zM142 756l1 -10h-136l-1 10
h136zM524 746l1 10h131l-1 -10h-131zM518 694l1 11h131l-2 -11h-130zM147 705l2 -11h-134l-2 11h134zM397 705l2 -11h-136l2 11h132zM393 731l2 -11h-128l2 11h124zM144 731l2 -11h-135l-2 11h135zM521 720l1 11h131l-1 -11h-131zM512 641l1 12h129l-1 -12h-129zM153 653
l1 -12h-132l-2 12h133zM405 653l2 -12h-152l2 12h148zM109 35l-3 23h198l-2 -23h-193zM369 35l-3 23h195l-3 -23h-189zM140 -184l-27 190h186l-21 -191l-3 -15h-16h-100h-17zM397 -184l-24 190h181l-26 -190l-2 -16h-16h-95h-16zM373 9l-3 23h187l-3 -23h-181zM113 9l-4 23
h192l-2 -23h-186zM366 61l-3 23h202l-4 -23h-195zM105 61l-3 23h205l-2 -23h-200zM446 395l3 -18h-236l3 18h230zM481 377l2 18h124l-2 -18h-124zM181 395l2 -18h-123l-3 18h124zM178 421l2 -18h-124l-2 18h124zM442 421l3 -18h-228l3 18h222zM484 403l2 18h125l-3 -18h-124
zM190 316l2 -19h-121l-2 19h121zM200 297l3 19h130l-2 -19h-131zM459 316l3 -19h-126l-2 19h125zM472 297l2 19h122l-2 -19h-122zM455 342l2 -17h-252l2 17h248zM187 342l2 -17h-122l-2 17h122zM475 325l2 17h123l-2 -17h-123zM487 429l2 16h125l-2 -16h-125zM176 445l1 -16
h-125l-2 16h126zM438 445l3 -16h-220l3 16h214zM192 292l3 -21h-120l-3 21h120zM469 271l2 21h122l-3 -21h-121zM196 271l3 21h131l-2 -21h-132zM463 292l3 -21h-126l-3 21h126zM430 498l2 -15h-202l2 15h198zM170 498l2 -15h-127l-2 15h127zM493 483l2 15h126l-2 -15h-126z
M496 509l2 15h127l-2 -15h-127zM426 524l2 -15h-194l2 15h190zM167 524l2 -15h-128l-2 15h128zM173 472l1 -15h-126l-2 15h127zM490 457l2 15h126l-2 -15h-126zM434 472l2 -15h-210l2 15h206zM478 351l2 18h123l-2 -18h-123zM450 369l3 -18h-244l3 18h238zM184 369l2 -18
h-122l-3 18h123zM79 245l-3 20h251l-2 -20h-246zM467 261l1 4h121l-2 -20h-244l-3 20h127v-4zM356 139l-2 22h221l-3 -22h-216zM94 139l-3 22h225l-3 -22h-219zM98 113l-4 23h219l-3 -23h-212zM359 113l-2 23h215l-3 -23h-210zM101 87l-3 23h212l-3 -23h-206zM363 87l-3 23
h208l-3 -23h-202zM164 550l2 -15h-129l-2 15h129zM499 535l2 15h127l-2 -15h-127zM422 550l2 -15h-186l2 15h182zM83 219l-3 20h244l-2 -20h-239zM346 219l-2 20h242l-3 -20h-237zM350 193l-3 20h235l-3 -20h-229zM86 193l-3 20h238l-2 -20h-233zM353 167l-3 20h229l-3 -20
h-223zM90 167l-3 20h231l-2 -20h-226zM137 803v-4h-137v4h21h99h17zM381 803l1 -4h-102l1 4h16h81h3zM547 803h104h11v-4h-132v4h17z" />
    <glyph glyph-name="X" unicode="X" horiz-adv-x="491" 
d="M199 627l3 -12h-146l-3 12h146zM246 615l3 12h142l-4 -12h-141zM234 562l3 14h139l-4 -14h-138zM212 576l4 -14h-143l-5 14h144zM184 679l3 -12h-147l-3 12h147zM258 667l3 12h144l-3 -12h-144zM240 588l3 13h140l-3 -13h-140zM206 601l3 -13h-144l-4 13h145zM282 773
l2 9h151l-2 -6l-1 -3h-150zM156 782l2 -9h-150l-1 3l-2 6h151zM163 756l3 -10h-149l-4 10h150zM276 746l2 10h149l-3 -10h-148zM264 694l3 11h146l-3 -11h-146zM177 705l3 -11h-148l-3 11h148zM270 720l3 11h147l-3 -11h-147zM170 731l3 -11h-149l-3 11h149zM191 653l4 -12
h-147l-3 12h146zM252 641l3 12h143l-3 -12h-143zM69 35l6 23h141l-7 -23h-140zM240 35l-5 23h132l6 -23h-133zM285 -185l-39 191h135l47 -183l6 -23h-24h-107h-15zM7 -176l53 182h142l-52 -192l-4 -14h-14h-107h-25zM245 9l-5 23h134l6 -23h-135zM61 9l7 23h141l-7 -23h-141
zM76 61l7 23h140l-7 -23h-140zM234 61l-4 23h130l6 -23h-132zM129 377l-6 18h202l-5 -18h-191zM121 403l-5 18h216l-5 -18h-206zM149 311l-2 5h156l-2 -5l3 -14h-159zM145 325l-6 17h171l-5 -17h-160zM113 429l-5 16h231l-4 -16h-222zM138 271l6 21h162l5 -21h-173zM97 483
l-5 15h262l-4 -15h-253zM89 509l-5 15h277l-4 -15h-268zM104 457l-4 15h247l-4 -15h-239zM137 351l-6 18h186l-4 -18h-176zM130 245l6 20h177l5 -20h-188zM99 139l6 22h235l6 -22h-247zM92 113l6 23h248l7 -23h-261zM84 87l7 23h262l6 -23h-130l-2 12l-4 -12h-139zM228 535
l3 15h138l-4 -15h-137zM220 550l4 -15h-143l-5 15h144zM122 219l6 20h192l5 -20h-203zM115 193l6 20h205l6 -20h-217zM107 167l6 20h220l6 -20h-232zM289 803h151v-3v0h-152v0zM151 802v-2h-151v2v0h150h1z" />
    <glyph glyph-name="Y" unicode="Y" horiz-adv-x="483" 
d="M248 615l3 12h143l-3 -12h-143zM196 627l3 -12h-145l-3 12h145zM209 576l4 -14h-143l-5 14h144zM237 562l3 14h141l-4 -14h-140zM182 679l3 -12h-146l-4 12h147zM259 667l3 12h145l-3 -12h-145zM242 588l3 13h142l-3 -13h-142zM202 601l4 -13h-144l-4 13h144zM156 782
l2 -9h-150l-1 3l-2 6h151zM282 773l2 9h150l-1 -5l-1 -4h-150zM162 756l3 -10h-149l-3 10h149zM276 746l2 10h149l-2 -10h-149zM265 694l3 11h146l-3 -11h-146zM175 705l3 -11h-147l-3 11h147zM271 720l2 11h148l-3 -11h-147zM169 731l3 -11h-149l-3 11h149zM189 653l3 -12
h-146l-3 12h146zM254 641l2 12h145l-3 -12h-144zM156 35v23h144v-23h-144zM156 -182v188h144v-188v-18h-18h-107h-19v18zM156 9v23h144v-23h-144zM156 61v23h144v-23h-144zM123 377l-5 18h216l-5 -18h-206zM116 403l-5 18h229l-4 -18h-220zM147 297l-6 19h172l-5 -19h-161z
M139 325l-6 17h187l-5 -17h-176zM108 429l-5 16h244l-4 -16h-235zM154 271l-6 21h159l-5 -21h-148zM92 483l-4 15h272l-3 -15h-265zM226 510l3 14h138l-4 -15h-278l-4 15h141zM100 457l-4 15h258l-4 -15h-250zM131 351l-5 18h201l-5 -18h-191zM156 265h144v-20h-144v20z
M156 139v22h144v-22h-144zM156 113v23h144v-23h-144zM156 87v23h144v-23h-144zM231 535l3 15h140l-4 -15h-139zM215 550l4 -15h-142l-4 15h142zM156 219v20h144v-20h-144zM156 193v20h144v-20h-144zM156 167v20h144v-20h-144zM303 800h112h24v0h-151v0h15zM151 800h-151v0
h25h112h14z" />
    <glyph glyph-name="Z" unicode="Z" horiz-adv-x="455" 
d="M235 615l4 12h154l-4 -12h-154zM216 562l5 14h154l-5 -14h-154zM0 674v5h401v-12h-401v7zM225 588l5 13h154l-5 -13h-154zM0 781v1h401v-1v-8h-401v8zM0 746v10h401v-10h-401zM0 694v11h401v-11h-401zM0 720v11h401v-11h-401zM244 641l4 12h153v-3l-1 -3l-2 -6h-154z
M30 35l8 23h154l-8 -23h-154zM1 -47l19 53h154l-22 -62h230h19v-18v-108v-18h-19h-363h-19v18v129v3zM21 9l8 23h154l-8 -23h-154zM39 61l8 23h154l-8 -23h-154zM151 377l6 18h154l-6 -18h-154zM160 403l6 18h154l-6 -18h-154zM123 297l6 19h154l-7 -19h-153zM132 325l6 17
h154l-6 -17h-154zM169 429l6 16h154l-6 -16h-154zM113 271l8 21h153l-7 -21h-154zM188 483l5 15h154l-5 -15h-154zM197 509l5 15h154l-5 -15h-154zM179 457l5 15h154l-5 -15h-154zM142 351l6 18h154l-7 -18h-153zM104 245l7 20h154l-7 -20h-154zM67 139l7 22h154l-7 -22
h-154zM58 113l8 23h154l-9 -23h-153zM48 87l9 23h153l-8 -23h-154zM207 535l5 15h154l-6 -15h-153zM95 219l7 20h154l-7 -20h-154zM86 193l7 20h154l-7 -20h-154zM77 167l7 20h154l-8 -20h-153zM19 800h363h19v0h-401v0h19z" />
    <glyph glyph-name="bracketleft" unicode="[" horiz-adv-x="214" 
d="M146 -200h-127h-19v19v962v19h19h126v-75h-51v-850l52 -1v-74z" />
    <glyph glyph-name="backslash" unicode="\" horiz-adv-x="302" 
d="M238 -204h-57h-18l-4 23l-160 962l-3 19h18h57h19l3 -19l160 -962l4 -23h-19z" />
    <glyph glyph-name="bracketright" unicode="]" horiz-adv-x="214" 
d="M127 -200h-127v74l52 1v850h-51v75h126h19v-19v-962v-19h-19z" />
    <glyph glyph-name="asciicircum" unicode="^" horiz-adv-x="420" 
d="M208 362l174 -257l-363 5z" />
    <glyph glyph-name="underscore" unicode="_" horiz-adv-x="551" 
d="M480 -92h15v-15v-74v-15h-15h-178v0v0h-15h-84h-15v0v0h-178h-15v15v74v15h15h178v0v0h15h84h15v0v0h178z" />
    <glyph glyph-name="quoteleft" unicode="&#x2018;" 
d="M75 667h67v-139h-151v124l63 146h59z" />
    <glyph glyph-name="a" unicode="a" horiz-adv-x="434" 
d="M122 -200h-104h-18v18v787c0 169 89 205 163 205h42c74 0 163 -36 163 -205v-787v-18h-18h-104h-18v18v495h-16h-56h-16v-495v-18h-18zM140 647v-192h40h9h39v192c0 18 -6 23 -23 23h-42c-18 0 -23 -5 -23 -23z" />
    <glyph glyph-name="b" unicode="b" horiz-adv-x="437" 
d="M223 -200h-204h-19v19v962v19h19h204c68 0 147 -29 147 -168v-153c0 -33 -10 -73 -52 -96c42 -23 52 -62 52 -96v-319c0 -139 -79 -168 -147 -168zM144 656v-208h34c23 3 48 13 48 31v153c0 19 -29 24 -46 24h-36zM144 311v-367h58c18 0 24 6 24 24v319
c0 19 -29 24 -46 24h-36z" />
    <glyph glyph-name="c" unicode="c" horiz-adv-x="431" 
d="M168 -205c-77 0 -170 37 -170 213v584c0 176 93 213 170 213h43c78 0 170 -37 170 -213v-162v-18h-18h-108h-19v18v205c0 19 -6 24 -25 24h-43c-18 0 -24 -5 -24 -24v-670c0 -19 6 -25 24 -25h43c19 0 25 6 25 25v130v18h19h108h18v-18v-87c0 -176 -92 -213 -170 -213
h-43z" />
    <glyph glyph-name="d" unicode="d" horiz-adv-x="447" 
d="M379 -32c0 -139 -79 -168 -146 -168h-214h-19v19v962v19h19h214c67 0 146 -29 146 -168v-664zM201 -57c34 0 34 16 34 25v664c0 9 0 24 -34 24h-57v-712z" />
    <glyph glyph-name="e" unicode="e" horiz-adv-x="392" 
d="M342 -200h-6h-317h-19v19v962v19h19h317h6v-19v-107v-19h-6h-192v-204h167h19v-19v-110v-18h-19h-167v-360h192h6v-18v-107v-19z" />
    <glyph glyph-name="f" unicode="f" horiz-adv-x="396" 
d="M330 655h-186v-205h167h19v-18v-110v-18h-19h-167v-485v-19h-19h-106h-19v19v962v19h19l323 -1v-18v-107v-19h-12z" />
    <glyph glyph-name="g" unicode="g" horiz-adv-x="443" 
d="M163 -200c-75 2 -163 40 -163 211v578c0 174 92 211 168 211h43c77 0 168 -37 168 -211v-84h-18h-107h-19v127c0 18 -6 24 -24 24h-43c-18 0 -24 -6 -24 -24v-664c0 -18 6 -24 24 -24h43c18 0 24 6 24 24v336h-27h-18v18v107v19h18h153h18v-19v-610v-19h-18h-24h-83h-19
h-49h-18h-5v0z" />
    <glyph glyph-name="h" unicode="h" horiz-adv-x="452" 
d="M125 -199h-106h-19v18v962v18h19h106h19v-18v-333h91v333v18h18l107 1h19v-19v-962v-19h-19l-107 1h-18v18v485h-91v-485v-18h-19z" />
    <glyph glyph-name="i" unicode="i" 
d="M126 -200h-107h-19v19v962v19h19h107h18v-19v-962v-19h-18z" />
    <glyph glyph-name="j" unicode="j" horiz-adv-x="451" 
d="M361 800h18v-19v-770c0 -174 -91 -211 -168 -211h-43c-76 0 -168 37 -168 211v231v19h19h107h18v-19v-274c0 -18 6 -24 24 -24h43c18 0 24 6 24 24v813v19h19h107z" />
    <glyph glyph-name="k" unicode="k" horiz-adv-x="463" 
d="M382 -200h-107h-13l-4 12l-114 325v-318v-19h-18h-107h-19v19v962v19h19h107h18v-19v-253l114 261l5 11h12h107h29l-12 -26l-198 -440l6 -17l193 -492l9 -25h-27z" />
    <glyph glyph-name="l" unicode="l" horiz-adv-x="400" 
d="M358 -200h-18h-321h-19v19v962v19h19h107h18v-19v-837h196h18v-18v-107v-19z" />
    <glyph glyph-name="m" unicode="m" horiz-adv-x="645" 
d="M355 -200h-15h-107h-16l-3 15l-70 546v-542v-19h-18h-107h-19v19v962v19h19h140h27l4 -14l100 -558l92 557l3 15h40h129h18v-19v-962v-19h-18h-107h-19v19v542l-70 -546z" />
    <glyph glyph-name="n" unicode="n" horiz-adv-x="495" 
d="M144 -200h-18h-107h-19v19v962v19h19h128h15l3 -14l113 -539v534v19h19h107h18v-19v-962v-19h-18h-129h-14l-4 14l-113 494v-489v-19z" />
    <glyph glyph-name="o" unicode="o" horiz-adv-x="444" 
d="M381 8c0 -176 -92 -213 -170 -213h-43c-77 0 -170 37 -170 213v584c0 176 93 213 170 213h43c78 0 170 -37 170 -213v-584zM236 -35v670c0 19 -6 24 -25 24h-43c-18 0 -24 -5 -24 -24v-670c0 -19 6 -24 24 -24h43c19 0 25 5 25 24z" />
    <glyph glyph-name="p" unicode="p" horiz-adv-x="425" 
d="M379 449c0 -139 -79 -168 -146 -168h-89v-462v-19h-18h-107h-19v19v962v19h19h214c67 0 146 -29 146 -168v-183zM235 449v183c0 9 0 24 -34 24h-57v-231l57 -1c34 0 34 15 34 25z" />
    <glyph glyph-name="q" unicode="q" horiz-adv-x="427" 
d="M192 809c77 0 169 -37 169 -213v-580c0 -103 -31 -158 -73 -186l62 -139h-165l-41 112c-76 2 -164 41 -164 213v580c0 176 92 213 169 213h43zM217 -27v666c0 19 -6 25 -25 25h-43c-18 0 -24 -6 -24 -25v-666c0 -7 -1 -16 9 -16h17h59c7 0 7 9 7 16z" />
    <glyph glyph-name="r" unicode="r" horiz-adv-x="425" 
d="M211 800c67 0 147 -29 147 -168v-177c0 -36 -12 -78 -59 -100c39 -29 59 -82 59 -130v-425h-144v466c0 18 -6 24 -24 24h-46v-471v-19h-18h-107h-19v19v962v19h19h192zM214 449v183c0 9 0 24 -34 24h-36v-229l36 -1c34 0 34 12 34 23z" />
    <glyph glyph-name="s" unicode="s" horiz-adv-x="437" 
d="M211 815c78 0 170 -37 170 -213v-65v-19v0v0h-19h-108h-18v18v108c0 6 -4 24 -45 24c-36 0 -47 -14 -47 -24v-96c0 -4 0 -27 21 -62c36 -59 79 -117 126 -175c61 -76 90 -137 90 -185v-161c0 -111 -58 -170 -170 -170h-43c-111 0 -170 59 -170 170v108v19h1v0h18h108h19
v-18v-108c0 -12 12 -25 44 -27c38 1 48 11 48 27v85v11v2c0 20 -9 50 -15 59c-38 62 -83 124 -132 186c-61 76 -91 137 -91 185v108c0 176 93 213 170 213h43z" />
    <glyph glyph-name="t" unicode="t" horiz-adv-x="460" 
d="M19 800l363 -1h19v-18v-107v-18h-19h-110v-837v-19h-18h-107h-19v19v837h-109h-19v18v107v19h19z" />
    <glyph glyph-name="u" unicode="u" horiz-adv-x="451" 
d="M254 800h107h18v-19v-770c0 -174 -91 -211 -168 -211h-43c-76 0 -168 37 -168 211v770v19h19h107h18v-19v-813c0 -18 6 -24 24 -24h43c18 0 24 6 24 24v813v19h19z" />
    <glyph glyph-name="v" unicode="v" horiz-adv-x="514" 
d="M330 800h107h22l-4 -22l-143 -963l-3 -15h-15h-128h-16l-2 15l-148 985h22h107h16l2 -15l83 -696l82 696l2 15h16z" />
    <glyph glyph-name="w" unicode="w" horiz-adv-x="720" 
d="M547 800h94h21l-2 -21l-132 -962l-2 -17h-16h-95h-16l-2 16l-64 507l-55 -508l-3 -15h-16h-100h-17l-2 17l-138 962l-2 21h21h99h17l2 -17l56 -517l83 518l2 16h16h82h4l2 -16l83 -523l61 523l2 16h17z" />
    <glyph glyph-name="x" unicode="x" horiz-adv-x="491" 
d="M440 800l-7 -24l-132 -466l127 -487l6 -23h-24h-107h-15l-3 15l-58 284l-77 -285l-4 -14h-14h-107h-25l7 24l142 487l-142 465l-7 24h25h112h14l4 -14l71 -259l59 259l3 14h15h112h25z" />
    <glyph glyph-name="y" unicode="y" horiz-adv-x="483" 
d="M303 800h112h24l-6 -23l-133 -511v-447v-19h-19h-106h-19v19v446l-149 511l-7 24h25h112h14l4 -14l71 -276l59 275l3 15h15z" />
    <glyph glyph-name="z" unicode="z" horiz-adv-x="455" 
d="M19 800h363h19v-19v-128v-3l-1 -3l-248 -703h230h19v-18v-107v-19h-19h-363h-19v19v128v3l1 3l248 703h-230h-19v18v107v19h19z" />
    <glyph glyph-name="braceleft" unicode="{" horiz-adv-x="253" 
d="M186 -200h-146v496l-40 40v28l40 33v403h145v-45l-51 -30v-850l52 -31v-44z" />
    <glyph glyph-name="bar" unicode="|" 
d="M156 -240h-77h-19v19v1042v19h19h77h18v-19v-1042v-19h-18z" />
    <glyph glyph-name="braceright" unicode="}" horiz-adv-x="236" 
d="M0 800h146v-406l40 -40v-28l-40 -33v-493h-145v45l51 30v850l-52 31v44z" />
    <glyph glyph-name="asciitilde" unicode="~" horiz-adv-x="495" 
d="M47 843c0 108 50 146 97 146c32 0 58 -16 80 -30c19 -11 36 -22 54 -22s36 6 36 49v3h87v-3c0 -94 -68 -147 -115 -147c-32 0 -56 16 -76 29c-17 12 -33 22 -51 22s-25 -12 -25 -47v-4h-87v4z" />
    <glyph glyph-name="exclamdown" unicode="&#xa1;" 
d="M19 804h107h18v-19v-101v-19h-18h-107h-19v19v101v19h19zM8 565h107h18v-19l10 -723v-18h-18h-107h-19v18l10 723v19h-1z" />
    <glyph glyph-name="cent" unicode="&#xa2;" horiz-adv-x="429" 
d="M275 796h-144v66h144v-66zM131 -189h144v-55h-144v55zM168 -205c-77 0 -170 37 -170 213v584c0 176 93 213 170 213h43c78 0 170 -37 170 -213v-162v-18h-18h-108h-19v18v205c0 19 -6 24 -25 24h-43c-18 0 -24 -5 -24 -24v-670c0 -19 6 -25 24 -25h43c19 0 25 6 25 25
v130v18h19h108h18v-18v-87c0 -176 -92 -213 -170 -213h-43z" />
    <glyph glyph-name="fraction" unicode="&#x2044;" horiz-adv-x="358" 
d="M71 -204h-57h-18l4 23l250 962l3 19h18h57h19l-3 -19l-250 -962l-4 -23h-19z" />
    <glyph glyph-name="yen" unicode="&#xa5;" horiz-adv-x="483" 
d="M303 800h112h24l-6 -23l-133 -511v-447v-19h-19h-106h-19v19v446l-149 511l-7 24h25h112h14l4 -14l71 -276l59 275l3 15h15zM400 308h15v-15v-84v-15h-15h-58v0v0h-15h-84h-15v0v0h-168h-15v15v84v15h15h168v0v0h15h84h15v0v0h58z" />
    <glyph glyph-name="florin" unicode="&#x192;" horiz-adv-x="480" 
d="M420 655h-216v-215h77h19v-8v-100v2h-19h-77v-515v-19h-19h-106h-19v19v962v19h19l353 -1v-18v-107v-19h-12zM287 444h15v-15v-84v-15h-15h-59v0v0h-14h-84h-15v0v0h-139h-14v15v84v15h14h139v0v0h15h84h14v0v0h59z" />
    <glyph glyph-name="quotesingle" unicode="'" horiz-adv-x="142" 
d="M-3 783v21h116v-22l-17 -191h-83z" />
    <glyph glyph-name="quotedblleft" unicode="&#x201c;" horiz-adv-x="332" 
d="M73 666h60v-125h-136v112l57 131h53zM224 666h60v-125h-136v112l57 131h53z" />
    <glyph glyph-name="guillemotleft" unicode="&#xab;" horiz-adv-x="386" 
d="M194 240l165 112l-3 -233zM5 240l164 112l-3 -233z" />
    <glyph glyph-name="guilsinglleft" unicode="&#x2039;" horiz-adv-x="215" 
d="M5 240l164 112l-3 -233z" />
    <glyph glyph-name="guilsinglright" unicode="&#x203a;" horiz-adv-x="215" 
d="M5 352l164 -112l-161 -121z" />
    <glyph glyph-name="fi" unicode="&#xfb01;" horiz-adv-x="525" 
d="M482 650h-338v-205h139h19v-18v-110v-18h-19h-139v-485v-19h-19h-106h-19v19v962v19h19l476 -1v-18v-107v-19h-13zM476 -205h-107h-18v19v761v19h18h107h19v-19v-761v-19h-19z" />
    <glyph glyph-name="fl" unicode="&#xfb02;" horiz-adv-x="674" 
d="M482 650h-338v-205h139h19v-18v-110v-18h-19h-139v-485v-19h-19h-106h-19v19v962v19h19l476 -1v-18v-107v-19h-13zM652 -205h-283h-18v19v761v19h18h107h19v-19l3 -633l154 1v-148z" />
    <glyph glyph-name="endash" unicode="&#x2013;" horiz-adv-x="428" 
d="M380 308h15v-15v-84v-15h-15h-58v0v0h-15h-84h-15v0v0h-178h-15v15v84v15h15h178v0v0h15h84h15v0v0h58z" />
    <glyph glyph-name="dagger" unicode="&#x2020;" horiz-adv-x="536" 
d="M400 410h9v-9v-54v-9h-9h-99v-251v-9h-9h-54h-9v9v251h-99h-9v9v54v9h9h99v115v9h9h54h9v-9v-115h99z" />
    <glyph glyph-name="daggerdbl" unicode="&#x2021;" horiz-adv-x="434" 
d="M358 427h9v-9v-54v-10h-9h-115v-114v-9h-9h-54h-9v9v114h-115h-9v10v54v9h9h115v114v10h9h54h9v-10v-114h115zM358 227h9v-9v-54v-9h-9h-115v-115v-9h-9h-54h-9v9v115h-115h-9v9v54v9h9h115v114v10h9h54h9v-10v-114h115z" />
    <glyph glyph-name="periodcentered" unicode="&#xb7;" horiz-adv-x="279" 
d="M216 226l-90 -91l-16 -16l-16 16l-86 87l-16 15l16 16l90 91l16 16l16 -16l86 -87l16 -15z" />
    <glyph glyph-name="paragraph" unicode="&#xb6;" horiz-adv-x="425" 
d="M359 -200h7h18v19v962v19h-18h-7h-19v-19v-962v-19h19zM10 449v183c0 139 80 168 147 168h114h18v-19v-962v-19h-18h-7h-19v19v462h-88c-67 0 -147 29 -147 168z" />
    <glyph glyph-name="bullet" unicode="&#x2022;" horiz-adv-x="255" 
d="M216 226l-90 -91l-16 -16l-16 16l-86 87l-16 15l16 16l90 91l16 16l16 -16l86 -87l16 -15z" />
    <glyph glyph-name="quotesinglbase" unicode="&#x201a;" horiz-adv-x="151" 
d="M-3 3v21h116v-22l-17 -191h-83z" />
    <glyph glyph-name="quotedblbase" unicode="&#x201e;" horiz-adv-x="300" 
d="M138 0v-11v35h116v-22l-17 -191h-83zM-3 3v21h116v-22l-17 -191h-83z" />
    <glyph glyph-name="quotedblright" unicode="&#x201d;" horiz-adv-x="332" 
d="M208 659h-60v125h136v-112l-57 -131h-53zM57 659h-60v125h136v-112l-57 -131h-53z" />
    <glyph glyph-name="guillemotright" unicode="&#xbb;" horiz-adv-x="386" 
d="M194 352l165 -112l-161 -121zM5 352l164 -112l-161 -121z" />
    <glyph glyph-name="ellipsis" unicode="&#x2026;" horiz-adv-x="627" 
d="M126 -200h-107h-19v19v101v19h19h107h18v-19v-101v-19h-18zM347 -200h-107h-19v19v101v19h19h107h18v-19v-101v-19h-18zM565 -200h-107h-18v19v101v19h18h107h19v-19v-101v-19h-19z" />
    <glyph glyph-name="perthousand" unicode="&#x2030;" horiz-adv-x="645" 
d="M507 -45c18 0 31 14 31 32c0 17 -13 31 -31 31s-31 -14 -31 -31c0 -18 13 -32 31 -32zM507 70c47 0 84 -36 84 -83s-37 -84 -84 -84s-84 37 -84 84s37 83 84 83zM106 409c18 0 32 13 32 31s-14 32 -32 32c-17 0 -31 -14 -31 -32s14 -31 31 -31zM106 524
c48 0 84 -37 84 -84s-36 -83 -84 -83c-47 0 -83 36 -83 83s36 84 83 84zM315 -45c18 0 31 14 31 32c0 17 -13 31 -31 31s-31 -14 -31 -31c0 -18 13 -32 31 -32zM315 70c47 0 84 -36 84 -83s-37 -84 -84 -84s-84 37 -84 84s37 83 84 83zM140 -111h-13h-55h-24l10 22l232 590
l9 18h12h54h23l-8 -18l-231 -590z" />
    <glyph glyph-name="questiondown" unicode="&#xbf;" horiz-adv-x="453" 
d="M283 30v59h140v-49c0 -161 -56 -246 -204 -246s-196 85 -196 246c0 106 28 192 104 294c61 81 51 131 51 198c0 19 0 20 -1 69l134 2c1 -57 1 -54 1 -77c0 -80 8 -138 -51 -222c-68 -97 -90 -173 -90 -274c0 -69 -3 -102 52 -102c56 0 60 33 60 102zM316 814v-142h-143
v142h143z" />
    <glyph glyph-name="grave" unicode="`" horiz-adv-x="434" 
d="M35 981h124l78 -128h-85z" />
    <glyph glyph-name="acute" unicode="&#xb4;" 
d="M58 659h-67v139h151v-125l-63 -145h-59z" />
    <glyph glyph-name="circumflex" unicode="&#x2c6;" horiz-adv-x="433" 
d="M136 857h-103l98 122h108l97 -122h-103l-49 60z" />
    <glyph glyph-name="tilde" unicode="&#x2dc;" horiz-adv-x="495" 
d="M47 843c0 108 50 146 97 146c32 0 58 -16 80 -30c19 -11 36 -22 54 -22s36 6 36 49v3h87v-3c0 -94 -68 -147 -115 -147c-32 0 -56 16 -76 29c-17 12 -33 22 -51 22s-25 -12 -25 -47v-4h-87v4z" />
    <glyph glyph-name="macron" unicode="&#xaf;" horiz-adv-x="300" 
d="M185 967v-6v21h69v-14l-10 -114h-50zM101 967v-6v21h69v-14l-10 -114h-50zM16 969v13h70v-14l-10 -114h-50z" />
    <glyph glyph-name="breve" unicode="&#x2d8;" horiz-adv-x="433" 
d="M233 979h103l-97 -122h-108l-98 122h103l49 -61z" />
    <glyph glyph-name="dieresis" unicode="&#xa8;" horiz-adv-x="300" 
d="M138 780v-11v35h116v-22l-17 -191h-83zM-3 783v21h116v-22l-17 -191h-83z" />
    <glyph glyph-name="ring" unicode="&#x2da;" horiz-adv-x="434" 
d="M186 898c16 0 28 12 28 27s-12 27 -28 27c-15 0 -27 -12 -27 -27s12 -27 27 -27zM186 998c41 0 73 -32 73 -73s-32 -73 -73 -73s-72 32 -72 73s31 73 72 73z" />
    <glyph glyph-name="cedilla" unicode="&#xb8;" horiz-adv-x="138" 
d="M52 -128h-33v68h74v-61l-31 -72h-29z" />
    <glyph glyph-name="hungarumlaut" unicode="&#x2dd;" horiz-adv-x="430" 
 />
    <glyph glyph-name="ogonek" unicode="&#x2db;" horiz-adv-x="430" 
d="M209 -214c49 0 74 -12 74 -47c0 -53 -42 -60 -101 -60c-54 0 -95 12 -95 57v10h73v-8c0 -15 11 -20 22 -20c17 0 25 7 25 24c0 19 -12 26 -36 26h-10v40h48v-22z" />
    <glyph glyph-name="caron" unicode="&#x2c7;" horiz-adv-x="433" 
d="M233 979h103l-97 -122h-108l-98 122h103l49 -61z" />
    <glyph glyph-name="emdash" unicode="&#x2014;" horiz-adv-x="551" 
d="M500 308h15v-15v-84v-15h-15h-178v0v0h-15h-84h-15v0v0h-178h-15v15v84v15h15h178v0v0h15h84h15v0v0h178z" />
    <glyph glyph-name="AE" unicode="&#xc6;" horiz-adv-x="622" 
d="M122 -200h-104h-18v18v787c0 169 89 205 163 205h42c74 0 163 -36 163 -205v-787v-18h-18h-104h-18v18v495h-16h-56h-16v-495v-18h-18zM140 647v-192h40h9h39v192c0 18 -6 23 -23 23h-42c-18 0 -23 -5 -23 -23zM572 -200h-6h-318h-18v19v962v27h19h317h6v-27v-107v-19h-6
h-192v-204h167h19v-19v-110v-18h-19h-167v-360h192h6v-18v-107v-19z" />
    <glyph glyph-name="ordfeminine" unicode="&#xaa;" horiz-adv-x="434" 
d="M176 745c23 0 40 17 40 40s-17 40 -40 40c-22 0 -40 -17 -40 -40s18 -40 40 -40zM176 891c60 0 107 -46 107 -106s-47 -106 -107 -106c-59 0 -106 46 -106 106s47 106 106 106z" />
    <glyph glyph-name="Oslash" unicode="&#xd8;" horiz-adv-x="461" 
d="M381 8c0 -176 -92 -213 -170 -213h-43c-77 0 -170 37 -170 213v584c0 176 93 213 170 213h43c78 0 170 -37 170 -213v-584zM236 -35v670c0 19 -6 24 -25 24h-43c-18 0 -24 -5 -24 -24v-670c0 -19 6 -24 24 -24h43c19 0 25 5 25 24zM-17 -204h-69h-17l9 17l459 976l7 17
h17h69h17l-7 -17l-459 -976l-9 -17h-17z" />
    <glyph glyph-name="OE" unicode="&#x152;" horiz-adv-x="637" 
d="M381 8c0 -176 -92 -213 -170 -213h-43c-77 0 -170 37 -170 213v584c0 176 93 213 170 213h43c78 0 170 -37 170 -213v-584zM236 -35v670c0 19 -6 24 -25 24h-43c-18 0 -24 -5 -24 -24v-670c0 -19 6 -24 24 -24h43c19 0 25 5 25 24zM582 -204h-6h-317h-19v23v962v22l19 -1
l317 1h6v-22v-107v-19h-6h-192v-204h167h19v-19v-110v-18h-19h-167v-360h192h6v-18v-107v-23z" />
    <glyph glyph-name="ordmasculine" unicode="&#xba;" horiz-adv-x="434" 
d="M176 745c23 0 40 17 40 40s-17 40 -40 40c-22 0 -40 -17 -40 -40s18 -40 40 -40zM176 891c60 0 107 -46 107 -106s-47 -106 -107 -106c-59 0 -106 46 -106 106s47 106 106 106z" />
    <glyph glyph-name="ae" unicode="&#xe6;" horiz-adv-x="622" 
d="M122 -200h-104h-18v18v787c0 169 89 205 163 205h42c74 0 163 -36 163 -205v-787v-18h-18h-104h-18v18v495h-16h-56h-16v-495v-18h-18zM140 647v-192h40h9h39v192c0 18 -6 23 -23 23h-42c-18 0 -23 -5 -23 -23zM572 -200h-6h-318h-18v19v962v27h19h317h6v-27v-107v-19h-6
h-192v-204h167h19v-19v-110v-18h-19h-167v-360h192h6v-18v-107v-19z" />
    <glyph glyph-name="dotlessi" unicode="&#x131;" 
d="M156 -240h-77h-19v19v382v19h19h77h18v-19v-382v-19h-18z" />
    <glyph glyph-name="lslash" unicode="&#x142;" horiz-adv-x="412" 
d="M216 -220h-77h-19v19v922v19h19h77h18v-19v-922v-19h-18zM350 468h15v-15v-84v-15h-15h-58v0v0h-15h-84h-15v0v0h-178h-15v15v84v15h15h178v0v0h15h84h15v0v0h58z" />
    <glyph glyph-name="oslash" unicode="&#xf8;" horiz-adv-x="461" 
d="M381 8c0 -176 -92 -213 -170 -213h-43c-77 0 -170 37 -170 213v584c0 176 93 213 170 213h43c78 0 170 -37 170 -213v-584zM236 -35v670c0 19 -6 24 -25 24h-43c-18 0 -24 -5 -24 -24v-670c0 -19 6 -24 24 -24h43c19 0 25 5 25 24zM-17 -204h-69h-17l9 17l459 976l7 17
h17h69h17l-7 -17l-459 -976l-9 -17h-17z" />
    <glyph glyph-name="oe" unicode="&#x153;" horiz-adv-x="637" 
d="M381 8c0 -176 -92 -213 -170 -213h-43c-77 0 -170 37 -170 213v584c0 176 93 213 170 213h43c78 0 170 -37 170 -213v-584zM236 -35v670c0 19 -6 24 -25 24h-43c-18 0 -24 -5 -24 -24v-670c0 -19 6 -24 24 -24h43c19 0 25 5 25 24zM582 -204h-6h-317h-19v23v962v22l19 -1
l317 1h6v-22v-107v-19h-6h-192v-204h167h19v-19v-110v-18h-19h-167v-360h192h6v-18v-107v-23z" />
    <glyph glyph-name="germandbls" unicode="&#xdf;" horiz-adv-x="437" 
d="M223 -200h-204h-19v19v962v19h19h204c68 0 147 -29 147 -168v-153c0 -33 -10 -73 -52 -96c42 -23 52 -62 52 -96v-319c0 -139 -79 -168 -147 -168zM144 656v-208h34c23 3 48 13 48 31v153c0 19 -29 24 -46 24h-36zM144 311v-367h58c18 0 24 6 24 24v319
c0 19 -29 24 -46 24h-36z" />
    <glyph glyph-name="onesuperior" unicode="&#xb9;" horiz-adv-x="122" 
d="M54 799h1v-3v0v-17v-3v-134v-3h-3h-17h-3v3v134h-8h-1v3v17v3h1h8h3h17h2z" />
    <glyph glyph-name="logicalnot" unicode="&#xac;" horiz-adv-x="463" 
d="M389 167v-12h-12h-68h-12v12v125h-256h-12v12v69v12h12h336h12v-12v-206z" />
    <glyph glyph-name="mu" unicode="&#xb5;" horiz-adv-x="451" 
d="M254 800h107h18v-19v-770c0 -174 -91 -211 -168 -211h-43c-76 0 -168 37 -168 211v770v19h19h107h18v-19v-813c0 -18 6 -24 24 -24h43c18 0 24 6 24 24v813v19h19zM126 -280h-107h-19v19v962v19h19h107h18v-19v-962v-19h-18z" />
    <glyph glyph-name="trademark" unicode="&#x2122;" horiz-adv-x="170" 
d="M-26 797h55h2v-3v-16v-3h-2h-17v-125v-3h-3h-16h-3v3v125h-16h-3v3v16v3h3zM95 647h-2h-16h-3v2l-11 76v-75v-3h-2h-17h-2v3v144v3h2h22h4v-2l15 -84l14 84l1 2h5h20h2v-3v-144v-3h-2h-16h-3v3v75l-11 -76v-2z" />
    <glyph glyph-name="Eth" unicode="&#xd0;" horiz-adv-x="487" 
d="M429 -32c0 -139 -79 -168 -146 -168h-214h-19v19v962v19h19h214c67 0 146 -29 146 -168v-664zM251 -57c34 0 34 16 34 25v664c0 9 0 24 -34 24h-57v-712zM240 308h15v-15v-84v-15h-15h-58v0v0h-15h-84h-15v0v0h-58h-15v15v84v15h15h58v0v0h15h84h15v0v0h58z" />
    <glyph glyph-name="onehalf" unicode="&#xbd;" horiz-adv-x="330" 
d="M71 576h-6h-15l11 18l122 209l9 14h15h5h15l-9 -14l-122 -209l-11 -18h-14zM64 799h1v-3v0v-17v-3v-134v-3h-3h-17h-3v3v134h-8h-1v3v17v3h1h8h3h17h2zM226 636c-1 -1 -2 -4 -2 -8v-15c0 -2 1 -3 4 -4h33v-23h-26h-7h-27v22v1v28c0 7 4 17 14 29c8 9 14 18 20 28
c3 5 3 9 3 9v14c0 2 0 6 -6 6c-8 0 -8 -5 -8 -6v-18h-23v0v0v13c0 28 14 34 27 34h7c12 0 26 -6 26 -34v-17c0 -8 -4 -17 -14 -29c-8 -10 -15 -20 -21 -30z" />
    <glyph glyph-name="plusminus" unicode="&#xb1;" horiz-adv-x="403" 
d="M357 424h10v-11v-59v-10h-10h-125v-125v-10h-10h-59h-10v10v125h-125h-11v10v59v11h11h125v125v10h10h59h10v-10v-125h125zM353 129h15v-15v-39v-15h-15h-31v0v0h-15h-84h-15v0v0h-178h-15v15v39v15h15h178v0v0h15h84h15v0v0h31z" />
    <glyph glyph-name="Thorn" unicode="&#xde;" horiz-adv-x="524" 
d="M439 299c0 -139 -79 -168 -146 -168h-149v-312v-19h-18h-107h-19v19v982l150 -1l-1 -150h144c67 0 146 -29 146 -168v-183zM295 299v183c0 9 0 24 -34 24h-117v-231l117 -1c34 0 34 15 34 25z" />
    <glyph glyph-name="onequarter" unicode="&#xbc;" horiz-adv-x="330" 
d="M71 576h-6h-15l11 18l122 209l9 14h15h5h15l-9 -14l-122 -209l-11 -18h-14zM64 799h1v-3v0v-17v-3v-134v-3h-3h-17h-3v3v134h-8h-1v3v17v3h1h8h3h17h2zM259 744h3v-3v-154v-3h-3h-17h-3v3v78h-14h-3h-17h-3v3v73v3h3h17h3v-3v-53h14v53v3h3h17z" />
    <glyph glyph-name="divide" unicode="&#xf7;" horiz-adv-x="476" 
d="M429 298h12v-11v-68v-11h-12h-135v-1v1h-11h-68h-11v-1v1h-173h-12v11v68v11h12h173v0v0h11h68h11v0v0h135zM273 36h-85h-15v15v82v14h15h85h15v-14v-82v-15h-15zM273 374h-85h-15v15v82v14h15h85h15v-14v-82v-15h-15z" />
    <glyph glyph-name="brokenbar" unicode="&#xa6;" 
d="M156 -240h-77h-19v19v382v19h19h77h18v-19v-382v-19h-18zM156 420h-77h-19v18v383v19h19h77h18v-19v-383v-18h-18z" />
    <glyph glyph-name="degree" unicode="&#xb0;" horiz-adv-x="434" 
d="M186 898c16 0 28 12 28 27s-12 27 -28 27c-15 0 -27 -12 -27 -27s12 -27 27 -27zM186 998c41 0 73 -32 73 -73s-32 -73 -73 -73s-72 32 -72 73s31 73 72 73z" />
    <glyph glyph-name="thorn" unicode="&#xfe;" horiz-adv-x="425" 
d="M379 209c0 -139 -79 -168 -146 -168h-89v-222v-19h-18h-107h-19v19v982l150 -1l-1 -240h84c67 0 146 -29 146 -168v-183zM235 209v183c0 9 0 24 -34 24h-57v-231l57 -1c34 0 34 15 34 25z" />
    <glyph glyph-name="threequarters" unicode="&#xbe;" horiz-adv-x="330" 
d="M71 576h-6h-15l11 18l122 209l9 14h15h5h15l-9 -14l-122 -209l-11 -18h-14zM259 744h3v-3v-154v-3h-3h-17h-3v3v78h-14h-3h-17h-3v3v73v3h3h17h3v-3v-53h14v53v3h3h17zM79 749c0 -5 -1 -12 -8 -15c7 -4 8 -11 8 -16v-51c0 -22 -12 -27 -23 -27h-33h-3v3v20h25v0h7
c3 0 4 1 4 4v51c0 3 -4 4 -7 4h-4v0h-13v22h11v0h6c3 0 7 2 7 5v24c0 3 -4 4 -7 4h-4h-2h-23v20v3h3h33c11 0 23 -4 23 -27v-24z" />
    <glyph glyph-name="twosuperior" unicode="&#xb2;" horiz-adv-x="330" 
d="M50 690c-1 -1 -2 -4 -2 -7v-16c0 -2 1 -3 4 -4h34v-23h-27h-7h-27v22v1v28c0 7 5 17 14 29c8 9 15 18 20 28c4 5 4 9 4 9v15c0 1 -1 5 -7 5c-8 0 -8 -5 -8 -5v-19h-23v0v0v13c0 28 15 34 27 34h7c12 0 27 -6 27 -34v-17c0 -8 -5 -17 -15 -29c-7 -10 -15 -20 -21 -30z" />
    <glyph glyph-name="registered" unicode="&#xae;" horiz-adv-x="210" 
d="M-14 711c0 56 45 102 101 102s101 -46 101 -102s-45 -101 -101 -101s-101 45 -101 101zM92 760v-27c0 -1 0 -3 -5 -3h-5v33h5c5 0 5 -2 5 -3zM91 784h-28h-2v-2v-141v-3h2h16h3v3v69h6c3 0 4 -1 4 -4v-68h21v62c0 7 -3 15 -9 19c7 4 9 10 9 15v26c0 20 -12 24 -22 24z
" />
    <glyph glyph-name="minus" unicode="&#x2212;" horiz-adv-x="551" 
d="M500 308h15v-15v-84v-15h-15h-178v0v0h-15h-84h-15v0v0h-178h-15v15v84v15h15h178v0v0h15h84h15v0v0h178z" />
    <glyph glyph-name="eth" unicode="&#xf0;" horiz-adv-x="499" 
d="M144 275v-106v-2v-159v0v-46c0 -10 4 -32 40 -32c50 0 51 26 51 32v59v49v102v0v103c0 9 -4 31 -40 31c-50 0 -51 -25 -51 -31zM1 299c0 0 11 144 128 144h92c4 0 -4 -1 0 -1l14 1v248v104h144v-101h88v-136h-88v-479v-68v-15c0 -175 -91 -211 -168 -211h-33h-10h-21
c-67 0 -147 29 -147 168v43v224v62c0 5 0 11 1 17z" />
    <glyph glyph-name="multiply" unicode="&#xd7;" horiz-adv-x="536" 
d="M391 457l11 11l10 -11l60 -59l10 -10l-10 -11l-127 -126l127 -127l10 -10l-10 -10l-60 -60l-10 -10l-11 10l-126 127l-126 -127l-11 -10l-10 10l-60 60l-10 10l10 10l127 127l-127 126l-10 11l10 10l60 59l10 11l11 -11l126 -126z" />
    <glyph glyph-name="threesuperior" unicode="&#xb3;" horiz-adv-x="126" 
d="M79 749c0 -5 -1 -12 -8 -15c7 -4 8 -11 8 -16v-51c0 -22 -12 -27 -23 -27h-33h-3v3v20h25v0h7c3 0 4 1 4 4v51c0 3 -4 4 -7 4h-4v0h-13v22h11v0h6c3 0 7 2 7 5v24c0 3 -4 4 -7 4h-4h-2h-23v20v3h3h33c11 0 23 -4 23 -27v-24z" />
    <glyph glyph-name="copyright" unicode="&#xa9;" horiz-adv-x="590" 
d="M290 118h17c31 0 68 15 68 85v35v7h-8h-43h-7v-7v-52c0 -7 -3 -10 -10 -10h-17c-8 0 -10 3 -10 10v268c0 7 2 10 10 10h17c7 0 10 -3 10 -10v-82v-7h7h43h8v7v65c0 70 -37 85 -68 85h-17c-31 0 -68 -15 -68 -85v-234c0 -70 37 -85 68 -85zM22 320c0 153 124 278 278 278
c153 0 277 -125 277 -278s-124 -278 -277 -278c-154 0 -278 125 -278 278z" />
    <glyph glyph-name="Aacute" unicode="&#xc1;" horiz-adv-x="433" 
d="M233 981h124l-117 -128h-85zM100 791h169c-12 5 -24 7 -36 9h-98c-12 -2 -23 -4 -35 -9zM229 185v-21h139v21h-139zM0 185v-21h140v21h-140zM229 211v-21h139v21h-139zM0 211v-21h140v21h-140zM229 237v-21h139v21h-139zM0 237v-21h140v21h-140zM229 545v-14h139v14h-139
zM140 531v14h-140v-14h140zM0 108v-23h140v23h-140zM229 108v-23h139v23h-139zM229 134v-23h139v23h-139zM0 134v-23h140v23h-140zM0 159v-22h140v22h-140zM229 159v-22h139v22h-139zM229 263v-21h139v21h-139zM0 263v-21h140v21h-140zM0 365v-17h368v17h-368zM229 467v-14
h139v14h-139zM140 453v14h-140v-14h140zM140 505v14h-140v-14h140zM229 519v-14h139v14h-139zM229 493v-14h139v14h-139zM140 479v14h-140v-14h140zM0 288v-20h140v20h-140zM229 288v-20h139v20h-139zM0 441v-16h368v16h-368zM0 339v-17h368v17h-368zM0 313v-19h140v10h16
h56h17v-10h139v19h-368zM0 417v-18h368v18h-368zM0 391v-17h368v17h-368zM229 82v-23h139v23h-139zM0 82v-23h140v23h-140zM229 30v-23h139v23h-139zM0 30v-23h140v23h-140zM229 4v-186v-18h18h103h18v18v186h-139zM0 4v-186v-18h18h104h18v18v186h-140zM0 56v-23h140v23
h-140zM229 56v-23h139v23h-139zM229 638v-2h138c-1 4 -1 8 -2 12h-137c0 -3 1 -6 1 -10zM140 636v2c0 4 0 7 1 10h-138c0 -4 -1 -8 -1 -12h138zM20 714h328c-2 4 -4 8 -5 11h-317c-2 -3 -4 -7 -6 -11zM11 688h346c-1 4 -2 8 -3 11h-339c-2 -3 -3 -7 -4 -11zM35 740h299
c-2 3 -5 7 -7 10h-285c-3 -3 -5 -7 -7 -10zM59 767h251c-4 3 -8 6 -11 9h-229c-4 -3 -8 -6 -11 -9zM140 583v13h-140v-13h140zM229 596v-13h139v13h-139zM5 662h358c0 4 -1 8 -2 11h-353c-1 -3 -2 -7 -3 -11zM229 571v-14h139v14h-139zM140 557v14h-140v-14h140zM140 610v12
h-139c0 -4 -1 -8 -1 -12h140zM229 622v-12h139v12h-139z" />
    <glyph glyph-name="Acircumflex" unicode="&#xc2;" horiz-adv-x="433" 
d="M136 857h-103l98 122h108l97 -122h-103l-49 60zM100 791h169c-12 5 -24 7 -36 9h-98c-12 -2 -23 -4 -35 -9zM229 185v-21h139v21h-139zM0 185v-21h140v21h-140zM229 211v-21h139v21h-139zM0 211v-21h140v21h-140zM229 237v-21h139v21h-139zM0 237v-21h140v21h-140z
M229 545v-14h139v14h-139zM140 531v14h-140v-14h140zM0 108v-23h140v23h-140zM229 108v-23h139v23h-139zM229 134v-23h139v23h-139zM0 134v-23h140v23h-140zM0 159v-22h140v22h-140zM229 159v-22h139v22h-139zM229 263v-21h139v21h-139zM0 263v-21h140v21h-140zM0 365v-17
h368v17h-368zM229 467v-14h139v14h-139zM140 453v14h-140v-14h140zM140 505v14h-140v-14h140zM229 519v-14h139v14h-139zM229 493v-14h139v14h-139zM140 479v14h-140v-14h140zM0 288v-20h140v20h-140zM229 288v-20h139v20h-139zM0 441v-16h368v16h-368zM0 339v-17h368v17
h-368zM0 313v-19h140v10h16h56h17v-10h139v19h-368zM0 417v-18h368v18h-368zM0 391v-17h368v17h-368zM229 82v-23h139v23h-139zM0 82v-23h140v23h-140zM229 30v-23h139v23h-139zM0 30v-23h140v23h-140zM229 4v-186v-18h18h103h18v18v186h-139zM0 4v-186v-18h18h104h18v18
v186h-140zM0 56v-23h140v23h-140zM229 56v-23h139v23h-139zM229 638v-2h138c-1 4 -1 8 -2 12h-137c0 -3 1 -6 1 -10zM140 636v2c0 4 0 7 1 10h-138c0 -4 -1 -8 -1 -12h138zM20 714h328c-2 4 -4 8 -5 11h-317c-2 -3 -4 -7 -6 -11zM11 688h346c-1 4 -2 8 -3 11h-339
c-2 -3 -3 -7 -4 -11zM35 740h299c-2 3 -5 7 -7 10h-285c-3 -3 -5 -7 -7 -10zM59 767h251c-4 3 -8 6 -11 9h-229c-4 -3 -8 -6 -11 -9zM140 583v13h-140v-13h140zM229 596v-13h139v13h-139zM5 662h358c0 4 -1 8 -2 11h-353c-1 -3 -2 -7 -3 -11zM229 571v-14h139v14h-139z
M140 557v14h-140v-14h140zM140 610v12h-139c0 -4 -1 -8 -1 -12h140zM229 622v-12h139v12h-139z" />
    <glyph glyph-name="Adieresis" unicode="&#xc4;" horiz-adv-x="433" 
d="M229 610v12h139v-12h-139zM140 622v-12h-140c0 4 1 8 1 12h139zM140 571v-14h-140v14h140zM229 557v14h139v-14h-139zM5 662c1 4 2 8 3 11h353c1 -3 2 -7 2 -11h-358zM229 583v13h139v-13h-139zM140 596v-13h-140v13h140zM59 767c3 3 7 6 11 9h229c3 -3 7 -6 11 -9h-251z
M35 740c2 3 4 7 7 10h285c2 -3 5 -7 7 -10h-299zM11 688c1 4 2 8 4 11h339c1 -3 2 -7 3 -11h-346zM20 714c2 4 4 8 6 11h317c1 -3 3 -7 5 -11h-328zM140 638v-2h-138c0 4 1 8 1 12h138c-1 -3 -1 -6 -1 -10zM229 638c0 4 -1 7 -1 10h137c1 -4 1 -8 2 -12h-138v2zM229 33v23
h139v-23h-139zM0 33v23h140v-23h-140zM0 -182v186h140v-186v-18h-18h-104h-18v18zM229 -182v186h139v-186v-18h-18h-103h-18v18zM0 7v23h140v-23h-140zM229 7v23h139v-23h-139zM0 59v23h140v-23h-140zM229 59v23h139v-23h-139zM0 374v17h368v-17h-368zM0 399v18h368v-18
h-368zM0 294v19h368v-19h-139v10h-17h-56h-16v-10h-140zM0 322v17h368v-17h-368zM0 425v16h368v-16h-368zM229 268v20h139v-20h-139zM0 268v20h140v-20h-140zM140 493v-14h-140v14h140zM229 479v14h139v-14h-139zM229 505v14h139v-14h-139zM140 519v-14h-140v14h140z
M140 467v-14h-140v14h140zM229 453v14h139v-14h-139zM0 348v17h368v-17h-368zM0 242v21h140v-21h-140zM229 242v21h139v-21h-139zM229 137v22h139v-22h-139zM0 137v22h140v-22h-140zM0 111v23h140v-23h-140zM229 111v23h139v-23h-139zM229 85v23h139v-23h-139zM0 85v23h140
v-23h-140zM140 545v-14h-140v14h140zM229 531v14h139v-14h-139zM0 216v21h140v-21h-140zM229 216v21h139v-21h-139zM0 190v21h140v-21h-140zM229 190v21h139v-21h-139zM0 164v21h140v-21h-140zM229 164v21h139v-21h-139zM100 791c12 5 23 7 35 9h98c12 -2 24 -4 36 -9h-169z
M323 947v-77v-13h-13h-73h-14v13v77v13h14h73h13v-13zM157 947v-77v-13h-14h-73h-14v13v77v13h14h73h14v-13z" />
    <glyph glyph-name="Agrave" unicode="&#xc0;" horiz-adv-x="433" 
d="M229 610v12h139v-12h-139zM140 622v-12h-140c0 4 1 8 1 12h139zM140 571v-14h-140v14h140zM229 557v14h139v-14h-139zM5 662c1 4 2 8 3 11h353c1 -3 2 -7 2 -11h-358zM229 583v13h139v-13h-139zM140 596v-13h-140v13h140zM59 767c3 3 7 6 11 9h229c3 -3 7 -6 11 -9h-251z
M35 740c2 3 4 7 7 10h285c2 -3 5 -7 7 -10h-299zM11 688c1 4 2 8 4 11h339c1 -3 2 -7 3 -11h-346zM20 714c2 4 4 8 6 11h317c1 -3 3 -7 5 -11h-328zM140 638v-2h-138c0 4 1 8 1 12h138c-1 -3 -1 -6 -1 -10zM229 638c0 4 -1 7 -1 10h137c1 -4 1 -8 2 -12h-138v2zM229 33v23
h139v-23h-139zM0 33v23h140v-23h-140zM0 -182v186h140v-186v-18h-18h-104h-18v18zM229 -182v186h139v-186v-18h-18h-103h-18v18zM0 7v23h140v-23h-140zM229 7v23h139v-23h-139zM0 59v23h140v-23h-140zM229 59v23h139v-23h-139zM0 374v17h368v-17h-368zM0 399v18h368v-18
h-368zM0 294v19h368v-19h-139v10h-17h-56h-16v-10h-140zM0 322v17h368v-17h-368zM0 425v16h368v-16h-368zM229 268v20h139v-20h-139zM0 268v20h140v-20h-140zM140 493v-14h-140v14h140zM229 479v14h139v-14h-139zM229 505v14h139v-14h-139zM140 519v-14h-140v14h140z
M140 467v-14h-140v14h140zM229 453v14h139v-14h-139zM0 348v17h368v-17h-368zM0 242v21h140v-21h-140zM229 242v21h139v-21h-139zM229 137v22h139v-22h-139zM0 137v22h140v-22h-140zM0 111v23h140v-23h-140zM229 111v23h139v-23h-139zM229 85v23h139v-23h-139zM0 85v23h140
v-23h-140zM140 545v-14h-140v14h140zM229 531v14h139v-14h-139zM0 216v21h140v-21h-140zM229 216v21h139v-21h-139zM0 190v21h140v-21h-140zM229 190v21h139v-21h-139zM0 164v21h140v-21h-140zM229 164v21h139v-21h-139zM100 791c12 5 23 7 35 9h98c12 -2 24 -4 36 -9h-169z
M25 981h124l78 -128h-85z" />
    <glyph glyph-name="Aring" unicode="&#xc5;" horiz-adv-x="433" 
d="M186 898c16 0 28 12 28 27s-12 27 -28 27c-15 0 -27 -12 -27 -27s12 -27 27 -27zM186 998c41 0 73 -32 73 -73s-32 -73 -73 -73s-72 32 -72 73s31 73 72 73zM100 791h169c-12 5 -24 7 -36 9h-98c-12 -2 -23 -4 -35 -9zM229 185v-21h139v21h-139zM0 185v-21h140v21h-140z
M229 211v-21h139v21h-139zM0 211v-21h140v21h-140zM229 237v-21h139v21h-139zM0 237v-21h140v21h-140zM229 545v-14h139v14h-139zM140 531v14h-140v-14h140zM0 108v-23h140v23h-140zM229 108v-23h139v23h-139zM229 134v-23h139v23h-139zM0 134v-23h140v23h-140zM0 159v-22
h140v22h-140zM229 159v-22h139v22h-139zM229 263v-21h139v21h-139zM0 263v-21h140v21h-140zM0 365v-17h368v17h-368zM229 467v-14h139v14h-139zM140 453v14h-140v-14h140zM140 505v14h-140v-14h140zM229 519v-14h139v14h-139zM229 493v-14h139v14h-139zM140 479v14h-140v-14
h140zM0 288v-20h140v20h-140zM229 288v-20h139v20h-139zM0 441v-16h368v16h-368zM0 339v-17h368v17h-368zM0 313v-19h140v10h16h56h17v-10h139v19h-368zM0 417v-18h368v18h-368zM0 391v-17h368v17h-368zM229 82v-23h139v23h-139zM0 82v-23h140v23h-140zM229 30v-23h139v23
h-139zM0 30v-23h140v23h-140zM229 4v-186v-18h18h103h18v18v186h-139zM0 4v-186v-18h18h104h18v18v186h-140zM0 56v-23h140v23h-140zM229 56v-23h139v23h-139zM229 638v-2h138c-1 4 -1 8 -2 12h-137c0 -3 1 -6 1 -10zM140 636v2c0 4 0 7 1 10h-138c0 -4 -1 -8 -1 -12h138z
M20 714h328c-2 4 -4 8 -5 11h-317c-2 -3 -4 -7 -6 -11zM11 688h346c-1 4 -2 8 -3 11h-339c-2 -3 -3 -7 -4 -11zM35 740h299c-2 3 -5 7 -7 10h-285c-3 -3 -5 -7 -7 -10zM59 767h251c-4 3 -8 6 -11 9h-229c-4 -3 -8 -6 -11 -9zM140 583v13h-140v-13h140zM229 596v-13h139v13
h-139zM5 662h358c0 4 -1 8 -2 11h-353c-1 -3 -2 -7 -3 -11zM229 571v-14h139v14h-139zM140 557v14h-140v-14h140zM140 610v12h-139c0 -4 -1 -8 -1 -12h140zM229 622v-12h139v12h-139z" />
    <glyph glyph-name="Atilde" unicode="&#xc3;" horiz-adv-x="433" 
d="M229 610v12h139v-12h-139zM140 622v-12h-140c0 4 1 8 1 12h139zM140 571v-14h-140v14h140zM229 557v14h139v-14h-139zM5 662c1 4 2 8 3 11h353c1 -3 2 -7 2 -11h-358zM229 583v13h139v-13h-139zM140 596v-13h-140v13h140zM59 767c3 3 7 6 11 9h229c3 -3 7 -6 11 -9h-251z
M35 740c2 3 4 7 7 10h285c2 -3 5 -7 7 -10h-299zM11 688c1 4 2 8 4 11h339c1 -3 2 -7 3 -11h-346zM20 714c2 4 4 8 6 11h317c1 -3 3 -7 5 -11h-328zM140 638v-2h-138c0 4 1 8 1 12h138c-1 -3 -1 -6 -1 -10zM229 638c0 4 -1 7 -1 10h137c1 -4 1 -8 2 -12h-138v2zM229 33v23
h139v-23h-139zM0 33v23h140v-23h-140zM0 -182v186h140v-186v-18h-18h-104h-18v18zM229 -182v186h139v-186v-18h-18h-103h-18v18zM0 7v23h140v-23h-140zM229 7v23h139v-23h-139zM0 59v23h140v-23h-140zM229 59v23h139v-23h-139zM0 374v17h368v-17h-368zM0 399v18h368v-18
h-368zM0 294v19h368v-19h-139v10h-17h-56h-16v-10h-140zM0 322v17h368v-17h-368zM0 425v16h368v-16h-368zM229 268v20h139v-20h-139zM0 268v20h140v-20h-140zM140 493v-14h-140v14h140zM229 479v14h139v-14h-139zM229 505v14h139v-14h-139zM140 519v-14h-140v14h140z
M140 467v-14h-140v14h140zM229 453v14h139v-14h-139zM0 348v17h368v-17h-368zM0 242v21h140v-21h-140zM229 242v21h139v-21h-139zM229 137v22h139v-22h-139zM0 137v22h140v-22h-140zM0 111v23h140v-23h-140zM229 111v23h139v-23h-139zM229 85v23h139v-23h-139zM0 85v23h140
v-23h-140zM140 545v-14h-140v14h140zM229 531v14h139v-14h-139zM0 216v21h140v-21h-140zM229 216v21h139v-21h-139zM0 190v21h140v-21h-140zM229 190v21h139v-21h-139zM0 164v21h140v-21h-140zM229 164v21h139v-21h-139zM100 791c12 5 23 7 35 9h98c12 -2 24 -4 36 -9h-169z
M17 843c0 108 50 146 97 146c32 0 58 -16 80 -30c19 -11 36 -22 54 -22s36 6 36 49v3h87v-3c0 -94 -68 -147 -115 -147c-32 0 -56 16 -76 29c-17 12 -33 22 -51 22s-25 -12 -25 -47v-4h-87v4z" />
    <glyph glyph-name="Ccedilla" unicode="&#xc7;" horiz-adv-x="430" 
d="M235 616v11h143c0 -3 0 -7 1 -11h-144zM1 616c0 4 0 8 1 11h142v-11h-143zM235 562v15h144v-15h-144zM0 562v15h144v-15h-144zM8 668l3 12h358l3 -12h-364zM0 589v12h144v-13h-144v1zM235 588v13h144v-12v-1h-144zM88 783h204c5 -3 10 -6 14 -9h-233zM43 746
c3 4 6 7 9 11h275c3 -4 6 -7 9 -11h-293zM15 694c1 4 3 8 4 12h341c2 -4 3 -8 4 -12h-349zM26 720c2 4 4 8 7 12h314l6 -12h-327zM3 642c1 4 1 8 2 12h149c-5 -3 -8 -6 -9 -12h-142zM234 642c-1 6 -4 9 -8 12h148c1 -4 2 -8 2 -12h-142zM379 59v-24h-144v24h144zM0 35v24
h144v-24h-144zM168 -200c-76 0 -166 36 -168 206h144v-38c0 -18 6 -24 24 -24h43c18 0 24 6 24 24v38h144c-1 -170 -92 -206 -168 -206h-43zM379 11v-2h-144v23h144v-21zM0 11v21h144v-23h-144v2zM0 61v24h144v-24h-144zM379 85v-24h-144v24h144zM0 378v17h144v-17h-144z
M0 404v17h144v-17h-144zM235 411v10h144v-10h-18h-107h-19zM0 298v19h144v-19h-144zM0 326v17h144v-17h-144zM0 430v16h144v-16h-144zM235 430v16h144v-16h-144zM0 272v20h144v-20h-144zM0 484v14h144v-14h-144zM235 484v14h144v-14h-144zM0 510v14h144v-14h-144zM235 510
v14h144v-14h-144zM235 458v14h144v-14h-144zM0 458v14h144v-14h-144zM0 352v17h144v-17h-144zM0 246v20h144v-20h-144zM0 140v22h144v-22h-144zM379 115v-1h-144v1h19h107h18zM0 114v23h144v-23h-144zM379 97v-9h-144v9v14h144v-14zM0 88v23h144v-23h-144zM0 536v15h144v-15
h-144zM235 536v15h144v-15h-144zM0 220v20h144v-20h-144zM0 194v20h144v-20h-144zM0 167v21h144v-21h-144zM211 800c9 0 18 -1 28 -2h-98c9 1 18 2 27 2h43zM209 -214c49 0 74 -12 74 -47c0 -53 -42 -60 -101 -60c-54 0 -95 12 -95 57v10h73v-8c0 -15 11 -20 22 -20
c17 0 25 7 25 24c0 19 -12 26 -36 26h-10v40h48v-22z" />
    <glyph glyph-name="Eacute" unicode="&#xc9;" horiz-adv-x="392" 
d="M203 981h124l-117 -128h-85zM336 800h-317h-19v-2h342v2h-6zM0 188v-21h144v21h-144zM0 214v-20h144v20h-144zM0 240v-20h144v20h-144zM0 551v-15h144v15h-144zM0 111v-23h144v23h-144zM0 137v-23h144v23h-144zM0 162v-22h144v22h-144zM0 266v-20h144v20h-144zM0 369v-17
h330v17h-330zM0 472v-14h144v14h-144zM0 524v-14h144v14h-144zM0 498v-14h144v14h-144zM0 292v-20h144v20h-144zM0 446v-16h330v2v14h-330zM0 343v-17h330v17h-330zM0 317v-19h144v6h167h19v13h-330zM0 421v-17h330v17h-330zM0 395v-17h330v17h-330zM0 85v-24h144v24h-144z
M0 32v-23h144v23h-144zM0 6v-187v-19h19h317h6v19v107v18h-6h-192v62h-144zM0 59v-24h144v24h-144zM0 654v-12h144v12h-144zM0 732v-12h342v12h-342zM0 706v-12h342v12h-342zM0 757v-11h342v11h-342zM0 783v-2v-7h342v7v2h-342zM0 601v-13h144v13h-144zM0 680v-12h342v6v6
h-342zM0 577v-15h144v15h-144zM0 627v-11h144v11h-144z" />
    <glyph glyph-name="Ecircumflex" unicode="&#xca;" horiz-adv-x="392" 
d="M136 857h-103l98 122h108l97 -122h-103l-49 60zM336 800h-317h-19v-2h342v2h-6zM0 188v-21h144v21h-144zM0 214v-20h144v20h-144zM0 240v-20h144v20h-144zM0 551v-15h144v15h-144zM0 111v-23h144v23h-144zM0 137v-23h144v23h-144zM0 162v-22h144v22h-144zM0 266v-20h144
v20h-144zM0 369v-17h330v17h-330zM0 472v-14h144v14h-144zM0 524v-14h144v14h-144zM0 498v-14h144v14h-144zM0 292v-20h144v20h-144zM0 446v-16h330v2v14h-330zM0 343v-17h330v17h-330zM0 317v-19h144v6h167h19v13h-330zM0 421v-17h330v17h-330zM0 395v-17h330v17h-330z
M0 85v-24h144v24h-144zM0 32v-23h144v23h-144zM0 6v-187v-19h19h317h6v19v107v18h-6h-192v62h-144zM0 59v-24h144v24h-144zM0 654v-12h144v12h-144zM0 732v-12h342v12h-342zM0 706v-12h342v12h-342zM0 757v-11h342v11h-342zM0 783v-2v-7h342v7v2h-342zM0 601v-13h144v13
h-144zM0 680v-12h342v6v6h-342zM0 577v-15h144v15h-144zM0 627v-11h144v11h-144z" />
    <glyph glyph-name="Edieresis" unicode="&#xcb;" horiz-adv-x="392" 
d="M0 616v11h144v-11h-144zM0 562v15h144v-15h-144zM0 668v12h342v-6v-6h-342zM0 588v13h144v-13h-144zM0 781v2h342v-2v-7h-342v7zM0 746v11h342v-11h-342zM0 694v12h342v-12h-342zM0 720v12h342v-12h-342zM0 642v12h144v-12h-144zM0 35v24h144v-24h-144zM0 -181v187h144
v-62h192h6v-18v-107v-19h-6h-317h-19v19zM0 9v23h144v-23h-144zM0 61v24h144v-24h-144zM0 378v17h330v-17h-330zM0 404v17h330v-17h-330zM0 298v19h330v-13h-19h-167v-6h-144zM0 326v17h330v-17h-330zM0 430v16h330v-14v-2h-330zM0 272v20h144v-20h-144zM0 484v14h144v-14
h-144zM0 510v14h144v-14h-144zM0 458v14h144v-14h-144zM0 352v17h330v-17h-330zM0 246v20h144v-20h-144zM0 140v22h144v-22h-144zM0 114v23h144v-23h-144zM0 88v23h144v-23h-144zM0 536v15h144v-15h-144zM0 220v20h144v-20h-144zM0 194v20h144v-20h-144zM0 167v21h144v-21
h-144zM19 800h317h6v-2h-342v2h19zM313 947v-77v-13h-13h-73h-14v13v77v13h14h73h13v-13zM147 947v-77v-13h-14h-73h-14v13v77v13h14h73h14v-13z" />
    <glyph glyph-name="Egrave" unicode="&#xc8;" horiz-adv-x="392" 
d="M0 616v11h144v-11h-144zM0 562v15h144v-15h-144zM0 668v12h342v-6v-6h-342zM0 588v13h144v-13h-144zM0 781v2h342v-2v-7h-342v7zM0 746v11h342v-11h-342zM0 694v12h342v-12h-342zM0 720v12h342v-12h-342zM0 642v12h144v-12h-144zM0 35v24h144v-24h-144zM0 -181v187h144
v-62h192h6v-18v-107v-19h-6h-317h-19v19zM0 9v23h144v-23h-144zM0 61v24h144v-24h-144zM0 378v17h330v-17h-330zM0 404v17h330v-17h-330zM0 298v19h330v-13h-19h-167v-6h-144zM0 326v17h330v-17h-330zM0 430v16h330v-14v-2h-330zM0 272v20h144v-20h-144zM0 484v14h144v-14
h-144zM0 510v14h144v-14h-144zM0 458v14h144v-14h-144zM0 352v17h330v-17h-330zM0 246v20h144v-20h-144zM0 140v22h144v-22h-144zM0 114v23h144v-23h-144zM0 88v23h144v-23h-144zM0 536v15h144v-15h-144zM0 220v20h144v-20h-144zM0 194v20h144v-20h-144zM0 167v21h144v-21
h-144zM19 800h317h6v-2h-342v2h19zM45 981h124l78 -128h-85z" />
    <glyph glyph-name="Iacute" unicode="&#xcd;" 
d="M103 981h124l-117 -128h-85zM126 804h-107h-19v-6h144v6h-18zM0 188v-21h144v21h-144zM0 214v-20h144v20h-144zM0 240v-20h144v20h-144zM0 551v-15h144v15h-144zM0 111v-23h144v23h-144zM0 137v-23h144v23h-144zM0 162v-22h144v22h-144zM0 266v-20h144v20h-144zM0 369
v-17h144v17h-144zM0 472v-14h144v14h-144zM0 524v-14h144v14h-144zM0 498v-14h144v14h-144zM0 292v-20h144v20h-144zM0 446v-16h144v16h-144zM0 343v-17h144v17h-144zM0 317v-19h144v19h-144zM0 421v-17h144v17h-144zM0 395v-17h144v17h-144zM0 85v-23h144v23h-144zM0 32
v-23h144v23h-144zM0 6v-187v-19h19h107h18v19v187h-144zM0 59v-24h144v24h-144zM0 654v-12h144v12h-144zM0 732v-12h144v12h-144zM0 706v-12h144v12h-144zM0 757v-11h144v11h-144zM0 783v-2v-7h144v7v2h-144zM0 601v-13h144v13h-144zM0 680v-12h144v12h-144zM0 577v-15h144
v15h-144zM0 627v-11h144v11h-144z" />
    <glyph glyph-name="Icircumflex" unicode="&#xce;" 
d="M16 857h-103l98 122h108l97 -122h-103l-49 60zM126 804h-107h-19v-6h144v6h-18zM0 188v-21h144v21h-144zM0 214v-20h144v20h-144zM0 240v-20h144v20h-144zM0 551v-15h144v15h-144zM0 111v-23h144v23h-144zM0 137v-23h144v23h-144zM0 162v-22h144v22h-144zM0 266v-20h144
v20h-144zM0 369v-17h144v17h-144zM0 472v-14h144v14h-144zM0 524v-14h144v14h-144zM0 498v-14h144v14h-144zM0 292v-20h144v20h-144zM0 446v-16h144v16h-144zM0 343v-17h144v17h-144zM0 317v-19h144v19h-144zM0 421v-17h144v17h-144zM0 395v-17h144v17h-144zM0 85v-23h144
v23h-144zM0 32v-23h144v23h-144zM0 6v-187v-19h19h107h18v19v187h-144zM0 59v-24h144v24h-144zM0 654v-12h144v12h-144zM0 732v-12h144v12h-144zM0 706v-12h144v12h-144zM0 757v-11h144v11h-144zM0 783v-2v-7h144v7v2h-144zM0 601v-13h144v13h-144zM0 680v-12h144v12h-144z
M0 577v-15h144v15h-144zM0 627v-11h144v11h-144z" />
    <glyph glyph-name="Idieresis" unicode="&#xcf;" 
d="M0 616v11h144v-11h-144zM0 562v15h144v-15h-144zM0 668v12h144v-12h-144zM0 588v13h144v-13h-144zM0 781v2h144v-2v-7h-144v7zM0 746v11h144v-11h-144zM0 694v12h144v-12h-144zM0 720v12h144v-12h-144zM0 642v12h144v-12h-144zM0 35v24h144v-24h-144zM0 -181v187h144
v-187v-19h-18h-107h-19v19zM0 9v23h144v-23h-144zM0 62v23h144v-23h-144zM0 378v17h144v-17h-144zM0 404v17h144v-17h-144zM0 298v19h144v-19h-144zM0 326v17h144v-17h-144zM0 430v16h144v-16h-144zM0 272v20h144v-20h-144zM0 484v14h144v-14h-144zM0 510v14h144v-14h-144z
M0 458v14h144v-14h-144zM0 352v17h144v-17h-144zM0 246v20h144v-20h-144zM0 140v22h144v-22h-144zM0 114v23h144v-23h-144zM0 88v23h144v-23h-144zM0 536v15h144v-15h-144zM0 220v20h144v-20h-144zM0 194v20h144v-20h-144zM0 167v21h144v-21h-144zM19 804h107h18v-6h-144v6
h19zM203 947v-77v-13h-13h-73h-14v13v77v13h14h73h13v-13zM37 947v-77v-13h-14h-73h-14v13v77v13h14h73h14v-13z" />
    <glyph glyph-name="Igrave" unicode="&#xcc;" 
d="M0 616v11h144v-11h-144zM0 562v15h144v-15h-144zM0 668v12h144v-12h-144zM0 588v13h144v-13h-144zM0 781v2h144v-2v-7h-144v7zM0 746v11h144v-11h-144zM0 694v12h144v-12h-144zM0 720v12h144v-12h-144zM0 642v12h144v-12h-144zM0 35v24h144v-24h-144zM0 -181v187h144
v-187v-19h-18h-107h-19v19zM0 9v23h144v-23h-144zM0 62v23h144v-23h-144zM0 378v17h144v-17h-144zM0 404v17h144v-17h-144zM0 298v19h144v-19h-144zM0 326v17h144v-17h-144zM0 430v16h144v-16h-144zM0 272v20h144v-20h-144zM0 484v14h144v-14h-144zM0 510v14h144v-14h-144z
M0 458v14h144v-14h-144zM0 352v17h144v-17h-144zM0 246v20h144v-20h-144zM0 140v22h144v-22h-144zM0 114v23h144v-23h-144zM0 88v23h144v-23h-144zM0 536v15h144v-15h-144zM0 220v20h144v-20h-144zM0 194v20h144v-20h-144zM0 167v21h144v-21h-144zM19 804h107h18v-6h-144v6
h19zM-85 981h124l78 -128h-85z" />
    <glyph glyph-name="Ntilde" unicode="&#xd1;" horiz-adv-x="501" 
d="M201 642l2 -11h-203v11h201zM429 642v-11h-147v11h147zM211 591l4 -15h-215v15h211zM429 591v-15h-147v15h147zM429 695v-11h-147v11h147zM190 695l2 -11h-192v11h190zM206 616l3 -13h-209v13h206zM429 616v-13h-147v13h147zM168 800l1 -9h-169v5v4h168zM429 796v-5h-147
v5v4h147v-4zM429 773v-10h-147v10h147zM173 773l2 -10h-175v10h173zM184 722l2 -12h-186v12h184zM429 722v-12h-147v12h147zM429 748v-11h-147v11h147zM178 748l3 -11h-181v11h178zM429 669v-12h-147v12h147zM195 669l3 -12h-198v12h195zM429 65v-23h-220l-5 23h225zM0 42
v23h146v-23h-146zM429 12v-193v-19h-19h-131h-14l-4 14l-45 198h213zM0 -181v193h146v-193v-19h-19h-108h-19v19zM0 15v24h146v-24h-146zM429 39v-24h-214l-5 24h219zM0 68v24h146v-24h-146zM429 92v-24h-226l-5 24h231zM250 407l4 -18h-254v18h250zM429 407v-18h-147v18
h147zM245 433l3 -17h-248v17h245zM429 433v-17h-147v17h147zM429 327v-19h-147v19h147zM267 327l4 -19h-123l-2 8v-8h-146v19h267zM261 354l4 -18h-265v18h261zM429 354v-18h-147v18h147zM429 458v-16h-147v16h147zM239 458l4 -16h-243v16h239zM272 302l5 -20h-123l-5 20
h123zM0 282v20h146v-20h-146zM429 302v-20h-147v20h147zM228 511l3 -14h-231v14h228zM429 511v-14h-147v14h147zM429 538v-15h-147v15h147zM223 538l3 -15h-226v15h223zM234 485l3 -15h-237v15h234zM429 485v-15h-147v15h147zM256 380l4 -17h-260v17h256zM429 380v-17h-147
v17h147zM278 276l4 -21h-122l-5 21h123zM429 276v-21h-147v21h147zM0 255v21h146v-21h-146zM0 148v22h146v-22h-146zM429 170v-22h-244l-5 22h249zM0 121v24h146v-24h-146zM429 145v-24h-238l-6 24h244zM0 95v23h146v-23h-146zM429 118v-23h-232l-5 23h237zM429 564v-14
h-147v14h147zM217 564l3 -14h-220v14h217zM0 229v20h146v-20h-146zM429 249v-20h-263l-5 20h268zM429 223v-21h-257l-4 21h261zM0 202v21h146v-21h-146zM429 196v-20h-251l-4 20h255zM0 176v20h146v-20h-146zM47 843c0 108 50 146 97 146c32 0 58 -16 80 -30
c19 -11 36 -22 54 -22s36 6 36 49v3h87v-3c0 -94 -68 -147 -115 -147c-32 0 -56 16 -76 29c-17 12 -33 22 -51 22s-25 -12 -25 -47v-4h-87v4z" />
    <glyph glyph-name="Oacute" unicode="&#xd3;" horiz-adv-x="450" 
d="M233 981h124l-117 -128h-85zM146 174v21h-148v-21h148zM239 195v-21h148v21h-148zM146 201v21h-148v-21h148zM239 222v-21h148v21h-148zM146 228v21h-148v-21h148zM239 249v-21h148v21h-148zM146 552v15h-148v-15h148zM239 567v-15h148v15h-148zM146 93v23h-148v-23h148z
M239 116v-23h148v23h-148zM146 119v24h-148v-24h148zM239 143v-24h148v24h-148zM146 146v22h-148v-22h148zM239 168v-22h148v22h-148zM239 275v-20h148v20h-148zM146 255v20h-148v-20h148zM146 363v18h-148v-18h148zM239 381v-18h148v18h-148zM146 472v15h-148v-15h148z
M239 487v-15h148v15h-148zM146 525v15h-148v-15h148zM239 540v-15h148v15h-148zM146 499v14h-148v-14h148zM239 513v-14h148v14h-148zM239 302v-21h148v21h-148zM146 281v21h-148v-21h148zM239 460v-16h148v16h-148zM146 444v16h-148v-16h148zM239 354v-18h148v18h-148z
M146 336v18h-148v-18h148zM239 328v-20h148v20h-148zM146 308v20h-148v-20h148zM146 417v18h-148v-18h148zM239 435v-18h148v18h-148zM146 390v18h-148v-18h148zM239 408v-18h148v18h-148zM146 66v24h-148v-24h148zM239 90v-24h148v24h-148zM239 36v-24h148v24h-148zM146 12
v24h-148v-24h148zM387 9h-148v-41c0 -19 -6 -25 -25 -25h-43c-19 0 -25 6 -25 25v41h-148c1 -177 94 -214 173 -214h43c79 0 172 37 173 214zM239 63v-24h148v24h-148zM146 39v24h-148v-24h148zM171 672h43c14 0 21 -3 24 -11h145c0 4 -1 8 -2 12h-377c-1 -4 -2 -8 -2 -12
h146c2 8 9 11 23 11zM352 753h-319c-2 -4 -4 -8 -7 -12h333c-2 4 -5 8 -7 12zM366 726h-347c-1 -4 -3 -8 -5 -12h357c-2 4 -3 8 -5 12zM331 778h-277l-10 -10h297c-3 4 -7 7 -10 10zM291 805h-197c-6 -3 -12 -6 -17 -9h231c-5 3 -11 6 -17 9zM146 606v13h-148v-13h148z
M239 619v-13h148v13h-148zM375 699h-365c-1 -3 -2 -7 -3 -11h371c-1 4 -2 8 -3 11zM239 594v-15h148v15h-148zM146 579v15h-148v-15h148zM239 646v-12h147c0 4 -1 8 -1 12h-146zM146 634v12h-146c0 -4 -1 -8 -1 -12h147z" />
    <glyph glyph-name="Ocircumflex" unicode="&#xd4;" horiz-adv-x="450" 
d="M146 857h-103l98 122h108l97 -122h-103l-49 60zM146 174v21h-148v-21h148zM239 195v-21h148v21h-148zM146 201v21h-148v-21h148zM239 222v-21h148v21h-148zM146 228v21h-148v-21h148zM239 249v-21h148v21h-148zM146 552v15h-148v-15h148zM239 567v-15h148v15h-148z
M146 93v23h-148v-23h148zM239 116v-23h148v23h-148zM146 119v24h-148v-24h148zM239 143v-24h148v24h-148zM146 146v22h-148v-22h148zM239 168v-22h148v22h-148zM239 275v-20h148v20h-148zM146 255v20h-148v-20h148zM146 363v18h-148v-18h148zM239 381v-18h148v18h-148z
M146 472v15h-148v-15h148zM239 487v-15h148v15h-148zM146 525v15h-148v-15h148zM239 540v-15h148v15h-148zM146 499v14h-148v-14h148zM239 513v-14h148v14h-148zM239 302v-21h148v21h-148zM146 281v21h-148v-21h148zM239 460v-16h148v16h-148zM146 444v16h-148v-16h148z
M239 354v-18h148v18h-148zM146 336v18h-148v-18h148zM239 328v-20h148v20h-148zM146 308v20h-148v-20h148zM146 417v18h-148v-18h148zM239 435v-18h148v18h-148zM146 390v18h-148v-18h148zM239 408v-18h148v18h-148zM146 66v24h-148v-24h148zM239 90v-24h148v24h-148z
M239 36v-24h148v24h-148zM146 12v24h-148v-24h148zM387 9h-148v-41c0 -19 -6 -25 -25 -25h-43c-19 0 -25 6 -25 25v41h-148c1 -177 94 -214 173 -214h43c79 0 172 37 173 214zM239 63v-24h148v24h-148zM146 39v24h-148v-24h148zM171 672h43c14 0 21 -3 24 -11h145
c0 4 -1 8 -2 12h-377c-1 -4 -2 -8 -2 -12h146c2 8 9 11 23 11zM352 753h-319c-2 -4 -4 -8 -7 -12h333c-2 4 -5 8 -7 12zM366 726h-347c-1 -4 -3 -8 -5 -12h357c-2 4 -3 8 -5 12zM331 778h-277l-10 -10h297c-3 4 -7 7 -10 10zM291 805h-197c-6 -3 -12 -6 -17 -9h231
c-5 3 -11 6 -17 9zM146 606v13h-148v-13h148zM239 619v-13h148v13h-148zM375 699h-365c-1 -3 -2 -7 -3 -11h371c-1 4 -2 8 -3 11zM239 594v-15h148v15h-148zM146 579v15h-148v-15h148zM239 646v-12h147c0 4 -1 8 -1 12h-146zM146 634v12h-146c0 -4 -1 -8 -1 -12h147z" />
    <glyph glyph-name="Odieresis" unicode="&#xd6;" horiz-adv-x="450" 
d="M146 646v-12h-147c0 4 1 8 1 12h146zM239 634v12h146c0 -4 1 -8 1 -12h-147zM146 594v-15h-148v15h148zM239 579v15h148v-15h-148zM375 699c1 -3 2 -7 3 -11h-371c1 4 2 8 3 11h365zM239 606v13h148v-13h-148zM146 619v-13h-148v13h148zM291 805c6 -3 12 -6 17 -9h-231
c5 3 11 6 17 9h197zM331 778c3 -3 7 -6 10 -10h-297l10 10h277zM366 726c2 -4 3 -8 5 -12h-357c2 4 4 8 5 12h347zM352 753c2 -4 5 -8 7 -12h-333c3 4 5 8 7 12h319zM171 672c-14 0 -21 -3 -23 -11h-146c0 4 1 8 2 12h377c1 -4 2 -8 2 -12h-145c-3 8 -10 11 -24 11h-43z
M146 63v-24h-148v24h148zM239 39v24h148v-24h-148zM387 9c-1 -177 -94 -214 -173 -214h-43c-79 0 -172 37 -173 214h148v-41c0 -19 6 -25 25 -25h43c19 0 25 6 25 25v41h148zM146 36v-24h-148v24h148zM239 12v24h148v-24h-148zM239 66v24h148v-24h-148zM146 90v-24h-148v24
h148zM239 390v18h148v-18h-148zM146 408v-18h-148v18h148zM239 417v18h148v-18h-148zM146 435v-18h-148v18h148zM146 328v-20h-148v20h148zM239 308v20h148v-20h-148zM146 354v-18h-148v18h148zM239 336v18h148v-18h-148zM146 460v-16h-148v16h148zM239 444v16h148v-16h-148
zM146 302v-21h-148v21h148zM239 281v21h148v-21h-148zM239 499v14h148v-14h-148zM146 513v-14h-148v14h148zM239 525v15h148v-15h-148zM146 540v-15h-148v15h148zM239 472v15h148v-15h-148zM146 487v-15h-148v15h148zM239 363v18h148v-18h-148zM146 381v-18h-148v18h148z
M146 275v-20h-148v20h148zM239 255v20h148v-20h-148zM239 146v22h148v-22h-148zM146 168v-22h-148v22h148zM239 119v24h148v-24h-148zM146 143v-24h-148v24h148zM239 93v23h148v-23h-148zM146 116v-23h-148v23h148zM239 552v15h148v-15h-148zM146 567v-15h-148v15h148z
M239 228v21h148v-21h-148zM146 249v-21h-148v21h148zM239 201v21h148v-21h-148zM146 222v-21h-148v21h148zM239 174v21h148v-21h-148zM146 195v-21h-148v21h148zM323 947v-77v-13h-13h-73h-14v13v77v13h14h73h13v-13zM157 947v-77v-13h-14h-73h-14v13v77v13h14h73h14v-13z
" />
    <glyph glyph-name="Ograve" unicode="&#xd2;" horiz-adv-x="450" 
d="M146 646v-12h-147c0 4 1 8 1 12h146zM239 634v12h146c0 -4 1 -8 1 -12h-147zM146 594v-15h-148v15h148zM239 579v15h148v-15h-148zM375 699c1 -3 2 -7 3 -11h-371c1 4 2 8 3 11h365zM239 606v13h148v-13h-148zM146 619v-13h-148v13h148zM291 805c6 -3 12 -6 17 -9h-231
c5 3 11 6 17 9h197zM331 778c3 -3 7 -6 10 -10h-297l10 10h277zM366 726c2 -4 3 -8 5 -12h-357c2 4 4 8 5 12h347zM352 753c2 -4 5 -8 7 -12h-333c3 4 5 8 7 12h319zM171 672c-14 0 -21 -3 -23 -11h-146c0 4 1 8 2 12h377c1 -4 2 -8 2 -12h-145c-3 8 -10 11 -24 11h-43z
M146 63v-24h-148v24h148zM239 39v24h148v-24h-148zM387 9c-1 -177 -94 -214 -173 -214h-43c-79 0 -172 37 -173 214h148v-41c0 -19 6 -25 25 -25h43c19 0 25 6 25 25v41h148zM146 36v-24h-148v24h148zM239 12v24h148v-24h-148zM239 66v24h148v-24h-148zM146 90v-24h-148v24
h148zM239 390v18h148v-18h-148zM146 408v-18h-148v18h148zM239 417v18h148v-18h-148zM146 435v-18h-148v18h148zM146 328v-20h-148v20h148zM239 308v20h148v-20h-148zM146 354v-18h-148v18h148zM239 336v18h148v-18h-148zM146 460v-16h-148v16h148zM239 444v16h148v-16h-148
zM146 302v-21h-148v21h148zM239 281v21h148v-21h-148zM239 499v14h148v-14h-148zM146 513v-14h-148v14h148zM239 525v15h148v-15h-148zM146 540v-15h-148v15h148zM239 472v15h148v-15h-148zM146 487v-15h-148v15h148zM239 363v18h148v-18h-148zM146 381v-18h-148v18h148z
M146 275v-20h-148v20h148zM239 255v20h148v-20h-148zM239 146v22h148v-22h-148zM146 168v-22h-148v22h148zM239 119v24h148v-24h-148zM146 143v-24h-148v24h148zM239 93v23h148v-23h-148zM146 116v-23h-148v23h148zM239 552v15h148v-15h-148zM146 567v-15h-148v15h148z
M239 228v21h148v-21h-148zM146 249v-21h-148v21h148zM239 201v21h148v-21h-148zM146 222v-21h-148v21h148zM239 174v21h148v-21h-148zM146 195v-21h-148v21h148zM55 981h124l78 -128h-85z" />
    <glyph glyph-name="Otilde" unicode="&#xd5;" horiz-adv-x="450" 
d="M146 646v-12h-147c0 4 1 8 1 12h146zM239 634v12h146c0 -4 1 -8 1 -12h-147zM146 594v-15h-148v15h148zM239 579v15h148v-15h-148zM375 699c1 -3 2 -7 3 -11h-371c1 4 2 8 3 11h365zM239 606v13h148v-13h-148zM146 619v-13h-148v13h148zM291 805c6 -3 12 -6 17 -9h-231
c5 3 11 6 17 9h197zM331 778c3 -3 7 -6 10 -10h-297l10 10h277zM366 726c2 -4 3 -8 5 -12h-357c2 4 4 8 5 12h347zM352 753c2 -4 5 -8 7 -12h-333c3 4 5 8 7 12h319zM171 672c-14 0 -21 -3 -23 -11h-146c0 4 1 8 2 12h377c1 -4 2 -8 2 -12h-145c-3 8 -10 11 -24 11h-43z
M146 63v-24h-148v24h148zM239 39v24h148v-24h-148zM387 9c-1 -177 -94 -214 -173 -214h-43c-79 0 -172 37 -173 214h148v-41c0 -19 6 -25 25 -25h43c19 0 25 6 25 25v41h148zM146 36v-24h-148v24h148zM239 12v24h148v-24h-148zM239 66v24h148v-24h-148zM146 90v-24h-148v24
h148zM239 390v18h148v-18h-148zM146 408v-18h-148v18h148zM239 417v18h148v-18h-148zM146 435v-18h-148v18h148zM146 328v-20h-148v20h148zM239 308v20h148v-20h-148zM146 354v-18h-148v18h148zM239 336v18h148v-18h-148zM146 460v-16h-148v16h148zM239 444v16h148v-16h-148
zM146 302v-21h-148v21h148zM239 281v21h148v-21h-148zM239 499v14h148v-14h-148zM146 513v-14h-148v14h148zM239 525v15h148v-15h-148zM146 540v-15h-148v15h148zM239 472v15h148v-15h-148zM146 487v-15h-148v15h148zM239 363v18h148v-18h-148zM146 381v-18h-148v18h148z
M146 275v-20h-148v20h148zM239 255v20h148v-20h-148zM239 146v22h148v-22h-148zM146 168v-22h-148v22h148zM239 119v24h148v-24h-148zM146 143v-24h-148v24h148zM239 93v23h148v-23h-148zM146 116v-23h-148v23h148zM239 552v15h148v-15h-148zM146 567v-15h-148v15h148z
M239 228v21h148v-21h-148zM146 249v-21h-148v21h148zM239 201v21h148v-21h-148zM146 222v-21h-148v21h148zM239 174v21h148v-21h-148zM146 195v-21h-148v21h148zM17 843c0 108 50 146 97 146c32 0 58 -16 80 -30c19 -11 36 -22 54 -22s36 6 36 49v3h87v-3
c0 -94 -68 -147 -115 -147c-32 0 -56 16 -76 29c-17 12 -33 22 -51 22s-25 -12 -25 -47v-4h-87v4z" />
    <glyph glyph-name="Scaron" unicode="&#x160;" horiz-adv-x="444" 
d="M-1 623c0 4 1 8 1 12h146v-12h-147zM240 623v12h146c0 -4 1 -8 1 -12h-147zM-2 568v15h148v-15h-148zM240 568v15h148v-15h-148zM6 677l3 12h368l3 -12h-374zM240 595v13h147c1 -4 1 -8 1 -13v0h-148zM-2 595v13h148v-13h-148v0zM90 795h206l15 -9h-237c5 3 11 6 16 9z
M43 758c3 3 6 7 9 10h281c4 -3 7 -7 10 -10h-300zM14 704c1 4 3 8 4 12h349c2 -4 4 -8 5 -12h-358zM25 731c3 4 5 8 7 12h322l6 -12h-335zM2 650c0 4 1 8 1 12h161c-10 -3 -15 -7 -17 -12h-145zM236 650c-3 5 -11 9 -26 12h172c1 -4 2 -8 2 -12h-148zM240 45v4h148v-24h-148
v20zM146 49v-24h-148v24h148zM240 -42v37h148v-37c0 -113 -60 -173 -173 -173h-44c-113 0 -173 60 -173 173v37h148v-37c0 -13 3 -26 35 -28c39 2 59 11 59 28zM240 -2v24h148v-24h-148zM146 22v-24h-148v24h148zM240 58c0 6 -1 12 -2 18h150v-24h-148v3v3zM146 68v-16h-148
v16v8h148v-8zM34 378c-4 6 -7 12 -10 18h199c4 -6 8 -12 13 -18h-202zM20 405c-3 6 -6 12 -8 18h192l12 -18h-196zM90 297c-5 6 -9 12 -14 18h207c4 -5 8 -10 13 -16c1 -1 2 -2 2 -3h-206c-1 0 -1 1 -2 1zM70 324c-5 6 -9 12 -13 18h205c5 -6 9 -12 14 -18h-206zM8 432
c-2 5 -3 11 -5 16h184c3 -5 7 -11 11 -16h-190zM113 269c-6 7 -11 14 -17 21h207c6 -7 11 -14 16 -21h-206zM-2 487v15h158c2 -5 4 -10 7 -15h-165zM-2 514v15h149c1 -4 2 -9 4 -15h-153zM240 514v15h148v-15h-148zM1 460c-1 5 -2 10 -2 15h170l2 -2c2 -4 5 -9 8 -13h-178z
M51 351l-12 18h203c5 -6 9 -12 14 -18h-205zM133 242c-5 7 -10 14 -16 21h206l15 -21h-205zM209 133c-4 7 -9 15 -14 22h186c2 -7 4 -15 5 -22h-177zM222 113c-3 6 -7 11 -11 17h175c1 -6 2 -12 2 -18v-6h-162c-2 3 -3 5 -4 7zM237 79c-3 9 -6 18 -9 24h160v-24h-151z
M146 87v-8h-148v8h19h110h19zM240 541v15h148v-15h-148zM-2 541v15h148v-15h-148zM153 215l-15 21h203c5 -7 9 -14 13 -21h-201zM172 188l-15 21h200c4 -7 8 -14 11 -21h-196zM191 161l-15 21h195c3 -7 6 -14 8 -21h-188zM43 969h103l48 -61l49 61h103l-97 -122h-108z" />
    <glyph glyph-name="Uacute" unicode="&#xda;" horiz-adv-x="451" 
d="M233 981h124l-117 -128h-85zM361 800h-107h-19v-1h144v1h-18zM144 799v1h-18h-107h-19v-1h144zM144 167v20h-144v-20h144zM235 187v-20h144v20h-144zM235 213v-20h144v20h-144zM144 193v20h-144v-20h144zM235 239v-20h144v20h-144zM144 219v20h-144v-20h144zM144 535v15
h-144v-15h144zM235 550v-15h144v15h-144zM144 87v23h-144v-23h144zM235 110v-23h144v23h-144zM144 113v23h-144v-23h144zM235 136v-23h144v23h-144zM144 139v22h-144v-22h144zM235 161v-22h144v22h-144zM144 245v20h-144v-20h144zM235 265v-20h144v20h-144zM235 369v-18h144
v18h-144zM144 351v18h-144v-18h144zM144 457v15h-144v-15h144zM235 472v-15h144v15h-144zM235 524v-15h144v15h-144zM144 509v15h-144v-15h144zM144 483v15h-144v-15h144zM235 498v-15h144v15h-144zM235 292v-21h144v21h-144zM144 271v21h-144v-21h144zM235 445v-16h144v16
h-144zM144 429v16h-144v-16h144zM235 342v-17h144v17h-144zM144 325v17h-144v-17h144zM144 297v19h-144v-19h144zM235 316v-19h144v19h-144zM235 421v-18h144v18h-144zM144 403v18h-144v-18h144zM144 377v18h-144v-18h144zM235 395v-18h144v18h-144zM235 84v-23h144v23h-144
zM144 61v23h-144v-23h144zM144 9v23h-144v-21v-2h144zM235 32v-23h144v2v21h-144zM235 6v-38c0 -18 -5 -24 -24 -24h-43c-18 0 -24 6 -24 24v38h-144c2 -170 92 -206 168 -206h43c76 0 166 36 168 206h-144zM235 58v-23h144v23h-144zM144 35v23h-144v-23h144zM235 653v-12
h144v12h-144zM144 641v12h-144v-12h144zM235 731v-11h144v11h-144zM144 720v11h-144v-11h144zM235 705v-11h144v11h-144zM144 694v11h-144v-11h144zM235 756v-10h144v10h-144zM144 746v10h-144v-10h144zM144 773v8v1h-144v-1v-8h144zM235 782v-1v-8h144v8v1h-144zM144 588
v13h-144v-13h144zM235 601v-13h144v13h-144zM235 679v-12h144v12h-144zM144 667v12h-144v-12h144zM235 576v-14h144v14h-144zM144 562v14h-144v-14h144zM235 627v-12h144v12h-144zM144 615v12h-144v-12h144z" />
    <glyph glyph-name="Ucircumflex" unicode="&#xdb;" horiz-adv-x="451" 
d="M136 857h-103l98 122h108l97 -122h-103l-49 60zM361 800h-107h-19v-1h144v1h-18zM144 799v1h-18h-107h-19v-1h144zM144 167v20h-144v-20h144zM235 187v-20h144v20h-144zM235 213v-20h144v20h-144zM144 193v20h-144v-20h144zM235 239v-20h144v20h-144zM144 219v20h-144
v-20h144zM144 535v15h-144v-15h144zM235 550v-15h144v15h-144zM144 87v23h-144v-23h144zM235 110v-23h144v23h-144zM144 113v23h-144v-23h144zM235 136v-23h144v23h-144zM144 139v22h-144v-22h144zM235 161v-22h144v22h-144zM144 245v20h-144v-20h144zM235 265v-20h144v20
h-144zM235 369v-18h144v18h-144zM144 351v18h-144v-18h144zM144 457v15h-144v-15h144zM235 472v-15h144v15h-144zM235 524v-15h144v15h-144zM144 509v15h-144v-15h144zM144 483v15h-144v-15h144zM235 498v-15h144v15h-144zM235 292v-21h144v21h-144zM144 271v21h-144v-21
h144zM235 445v-16h144v16h-144zM144 429v16h-144v-16h144zM235 342v-17h144v17h-144zM144 325v17h-144v-17h144zM144 297v19h-144v-19h144zM235 316v-19h144v19h-144zM235 421v-18h144v18h-144zM144 403v18h-144v-18h144zM144 377v18h-144v-18h144zM235 395v-18h144v18h-144
zM235 84v-23h144v23h-144zM144 61v23h-144v-23h144zM144 9v23h-144v-21v-2h144zM235 32v-23h144v2v21h-144zM235 6v-38c0 -18 -5 -24 -24 -24h-43c-18 0 -24 6 -24 24v38h-144c2 -170 92 -206 168 -206h43c76 0 166 36 168 206h-144zM235 58v-23h144v23h-144zM144 35v23
h-144v-23h144zM235 653v-12h144v12h-144zM144 641v12h-144v-12h144zM235 731v-11h144v11h-144zM144 720v11h-144v-11h144zM235 705v-11h144v11h-144zM144 694v11h-144v-11h144zM235 756v-10h144v10h-144zM144 746v10h-144v-10h144zM144 773v8v1h-144v-1v-8h144zM235 782v-1
v-8h144v8v1h-144zM144 588v13h-144v-13h144zM235 601v-13h144v13h-144zM235 679v-12h144v12h-144zM144 667v12h-144v-12h144zM235 576v-14h144v14h-144zM144 562v14h-144v-14h144zM235 627v-12h144v12h-144zM144 615v12h-144v-12h144z" />
    <glyph glyph-name="Udieresis" unicode="&#xdc;" horiz-adv-x="451" 
d="M254 800h107h18v-19v-770c0 -174 -91 -211 -168 -211h-43c-76 0 -168 37 -168 211v770v19h19h107h18v-19v-813c0 -18 6 -24 24 -24h43c18 0 24 6 24 24v813v19h19zM323 947v-77v-13h-13h-73h-14v13v77v13h14h73h13v-13zM157 947v-77v-13h-14h-73h-14v13v77v13h14h73h14
v-13z" />
    <glyph glyph-name="Ugrave" unicode="&#xd9;" horiz-adv-x="451" 
d="M144 627v-12h-144v12h144zM235 615v12h144v-12h-144zM144 576v-14h-144v14h144zM235 562v14h144v-14h-144zM144 679v-12h-144v12h144zM235 667v12h144v-12h-144zM235 588v13h144v-13h-144zM144 601v-13h-144v13h144zM235 781v1h144v-1v-8h-144v8zM144 781v-8h-144v8v1
h144v-1zM144 756v-10h-144v10h144zM235 746v10h144v-10h-144zM144 705v-11h-144v11h144zM235 694v11h144v-11h-144zM144 731v-11h-144v11h144zM235 720v11h144v-11h-144zM144 653v-12h-144v12h144zM235 641v12h144v-12h-144zM144 58v-23h-144v23h144zM235 35v23h144v-23
h-144zM235 -32v38h144c-2 -170 -92 -206 -168 -206h-43c-76 0 -166 36 -168 206h144v-38c0 -18 6 -24 24 -24h43c19 0 24 6 24 24zM235 9v23h144v-21v-2h-144zM144 32v-23h-144v2v21h144zM144 84v-23h-144v23h144zM235 61v23h144v-23h-144zM235 377v18h144v-18h-144z
M144 395v-18h-144v18h144zM144 421v-18h-144v18h144zM235 403v18h144v-18h-144zM235 297v19h144v-19h-144zM144 316v-19h-144v19h144zM144 342v-17h-144v17h144zM235 325v17h144v-17h-144zM144 445v-16h-144v16h144zM235 429v16h144v-16h-144zM144 292v-21h-144v21h144z
M235 271v21h144v-21h-144zM235 483v15h144v-15h-144zM144 498v-15h-144v15h144zM144 524v-15h-144v15h144zM235 509v15h144v-15h-144zM235 457v15h144v-15h-144zM144 472v-15h-144v15h144zM144 369v-18h-144v18h144zM235 351v18h144v-18h-144zM235 245v20h144v-20h-144z
M144 265v-20h-144v20h144zM235 139v22h144v-22h-144zM144 161v-22h-144v22h144zM235 113v23h144v-23h-144zM144 136v-23h-144v23h144zM235 87v23h144v-23h-144zM144 110v-23h-144v23h144zM235 535v15h144v-15h-144zM144 550v-15h-144v15h144zM144 239v-20h-144v20h144z
M235 219v20h144v-20h-144zM144 213v-20h-144v20h144zM235 193v20h144v-20h-144zM235 167v20h144v-20h-144zM144 187v-20h-144v20h144zM144 800v-1h-144v1h19h107h18zM254 800h107h18v-1h-144v1h19zM45 981h124l78 -128h-85z" />
    <glyph glyph-name="Yacute" unicode="&#xdd;" horiz-adv-x="483" 
d="M151 800h-14h-112h-25v0h151zM415 800h-112h-15v0h151v0h-24zM156 187v-20h144v20h-144zM156 213v-20h144v20h-144zM156 239v-20h144v20h-144zM219 535l-4 15h-142l4 -15h142zM234 550l-3 -15h139l4 15h-140zM156 110v-23h144v23h-144zM156 136v-23h144v23h-144zM156 161
v-22h144v22h-144zM156 265v-20h144v20h-144zM126 369l5 -18h191l5 18h-201zM96 472l4 -15h250l4 15h-258zM229 524l-3 -14l-4 14h-141l4 -15h278l4 15h-138zM88 498l4 -15h265l3 15h-272zM148 292l6 -21h148l5 21h-159zM103 445l5 -16h235l4 16h-244zM133 342l6 -17h176
l5 17h-187zM141 316l6 -19h161l5 19h-172zM111 421l5 -18h220l4 18h-229zM118 395l5 -18h206l5 18h-216zM156 84v-23h144v23h-144zM156 32v-23h144v23h-144zM156 6v-188v-18h19h107h18v18v188h-144zM156 58v-23h144v23h-144zM256 653l-2 -12h144l3 12h-145zM192 641l-3 12
h-146l3 -12h146zM172 720l-3 11h-149l3 -11h149zM273 731l-2 -11h147l3 11h-148zM178 694l-3 11h-147l3 -11h147zM268 705l-3 -11h146l3 11h-146zM278 756l-2 -10h149l2 10h-149zM165 746l-3 10h-149l3 -10h149zM284 782l-2 -9h150l1 4l1 5h-150zM158 773l-2 9h-151l2 -6
l1 -3h150zM206 588l-4 13h-144l4 -13h144zM245 601l-3 -13h142l3 13h-142zM262 679l-3 -12h145l3 12h-145zM185 667l-3 12h-147l4 -12h146zM240 576l-3 -14h140l4 14h-141zM213 562l-4 14h-144l5 -14h143zM199 615l-3 12h-145l3 -12h145zM251 627l-3 -12h143l3 12h-143z
M233 981h124l-117 -128h-85z" />
    <glyph glyph-name="Ydieresis" unicode="&#x178;" horiz-adv-x="483" 
d="M248 615l3 12h143l-3 -12h-143zM196 627l3 -12h-145l-3 12h145zM209 576l4 -14h-143l-5 14h144zM237 562l3 14h141l-4 -14h-140zM182 679l3 -12h-146l-4 12h147zM259 667l3 12h145l-3 -12h-145zM242 588l3 13h142l-3 -13h-142zM202 601l4 -13h-144l-4 13h144zM156 782
l2 -9h-150l-1 3l-2 6h151zM282 773l2 9h150l-1 -5l-1 -4h-150zM162 756l3 -10h-149l-3 10h149zM276 746l2 10h149l-2 -10h-149zM265 694l3 11h146l-3 -11h-146zM175 705l3 -11h-147l-3 11h147zM271 720l2 11h148l-3 -11h-147zM169 731l3 -11h-149l-3 11h149zM189 653l3 -12
h-146l-3 12h146zM254 641l2 12h145l-3 -12h-144zM156 35v23h144v-23h-144zM156 -182v188h144v-188v-18h-18h-107h-19v18zM156 9v23h144v-23h-144zM156 61v23h144v-23h-144zM123 377l-5 18h216l-5 -18h-206zM116 403l-5 18h229l-4 -18h-220zM147 297l-6 19h172l-5 -19h-161z
M139 325l-6 17h187l-5 -17h-176zM108 429l-5 16h244l-4 -16h-235zM154 271l-6 21h159l-5 -21h-148zM92 483l-4 15h272l-3 -15h-265zM226 510l3 14h138l-4 -15h-278l-4 15h141zM100 457l-4 15h258l-4 -15h-250zM131 351l-5 18h201l-5 -18h-191zM156 265h144v-20h-144v20z
M156 139v22h144v-22h-144zM156 113v23h144v-23h-144zM156 87v23h144v-23h-144zM231 535l3 15h140l-4 -15h-139zM215 550l4 -15h-142l-4 15h142zM156 219v20h144v-20h-144zM156 193v20h144v-20h-144zM156 167v20h144v-20h-144zM303 800h112h24v0h-151v0h15zM151 800h-151v0
h25h112h14zM363 947v-77v-13h-13h-73h-14v13v77v13h14h73h13v-13zM197 947v-77v-13h-14h-73h-14v13v77v13h14h73h14v-13z" />
    <glyph glyph-name="Zcaron" unicode="&#x17d;" horiz-adv-x="455" 
d="M235 615l4 12h154l-4 -12h-154zM216 562l5 14h154l-5 -14h-154zM0 674v5h401v-12h-401v7zM225 588l5 13h154l-5 -13h-154zM0 781v1h401v-1v-8h-401v8zM0 746v10h401v-10h-401zM0 694v11h401v-11h-401zM0 720v11h401v-11h-401zM244 641l4 12h153v-3l-1 -3l-2 -6h-154z
M30 35l8 23h154l-8 -23h-154zM1 -47l19 53h154l-22 -62h230h19v-18v-108v-18h-19h-363h-19v18v129v3zM21 9l8 23h154l-8 -23h-154zM39 61l8 23h154l-8 -23h-154zM151 377l6 18h154l-6 -18h-154zM160 403l6 18h154l-6 -18h-154zM123 297l6 19h154l-7 -19h-153zM132 325l6 17
h154l-6 -17h-154zM169 429l6 16h154l-6 -16h-154zM113 271l8 21h153l-7 -21h-154zM188 483l5 15h154l-5 -15h-154zM197 509l5 15h154l-5 -15h-154zM179 457l5 15h154l-5 -15h-154zM142 351l6 18h154l-7 -18h-153zM104 245l7 20h154l-7 -20h-154zM67 139l7 22h154l-7 -22
h-154zM58 113l8 23h154l-9 -23h-153zM48 87l9 23h153l-8 -23h-154zM207 535l5 15h154l-6 -15h-153zM95 219l7 20h154l-7 -20h-154zM86 193l7 20h154l-7 -20h-154zM77 167l7 20h154l-8 -20h-153zM19 800h363h19v0h-401v0h19zM43 969h103l48 -61l49 61h103l-97 -122h-108z" />
    <glyph glyph-name="aacute" unicode="&#xe1;" horiz-adv-x="434" 
d="M233 981h124l-117 -128h-85zM140 455v192c0 18 5 23 23 23h42c17 0 23 -5 23 -23v-192h-39h-9h-40zM18 -200h104h18v18v495h16h56h16v-495v-18h18h104h18v18v787c0 169 -89 205 -163 205h-42c-74 0 -163 -36 -163 -205v-787v-18h18z" />
    <glyph glyph-name="acircumflex" unicode="&#xe2;" horiz-adv-x="434" 
d="M136 857h-103l98 122h108l97 -122h-103l-49 60zM140 455v192c0 18 5 23 23 23h42c17 0 23 -5 23 -23v-192h-39h-9h-40zM18 -200h104h18v18v495h16h56h16v-495v-18h18h104h18v18v787c0 169 -89 205 -163 205h-42c-74 0 -163 -36 -163 -205v-787v-18h18z" />
    <glyph glyph-name="adieresis" unicode="&#xe4;" horiz-adv-x="424" 
d="M122 -200h-104h-18v18v787c0 169 89 205 163 205h42c74 0 163 -36 163 -205v-787v-18h-18h-104h-18v18v495h-16h-56h-16v-495v-18h-18zM140 647v-192h40h9h39v192c0 18 -6 23 -23 23h-42c-18 0 -23 -5 -23 -23zM313 947v-77v-13h-13h-73h-14v13v77v13h14h73h13v-13z
M147 947v-77v-13h-14h-73h-14v13v77v13h14h73h14v-13z" />
    <glyph glyph-name="agrave" unicode="&#xe0;" horiz-adv-x="434" 
d="M122 -200h-104h-18v18v787c0 169 89 205 163 205h42c74 0 163 -36 163 -205v-787v-18h-18h-104h-18v18v495h-16h-56h-16v-495v-18h-18zM140 647v-192h40h9h39v192c0 18 -6 23 -23 23h-42c-18 0 -23 -5 -23 -23zM35 981h124l78 -128h-85z" />
    <glyph glyph-name="aring" unicode="&#xe5;" horiz-adv-x="434" 
d="M186 898c16 0 28 12 28 27s-12 27 -28 27c-15 0 -27 -12 -27 -27s12 -27 27 -27zM186 998c41 0 73 -32 73 -73s-32 -73 -73 -73s-72 32 -72 73s31 73 72 73zM140 455v192c0 18 5 23 23 23h42c17 0 23 -5 23 -23v-192h-39h-9h-40zM18 -200h104h18v18v495h16h56h16v-495
v-18h18h104h18v18v787c0 169 -89 205 -163 205h-42c-74 0 -163 -36 -163 -205v-787v-18h18z" />
    <glyph glyph-name="atilde" unicode="&#xe3;" horiz-adv-x="434" 
d="M122 -200h-104h-18v18v787c0 169 89 205 163 205h42c74 0 163 -36 163 -205v-787v-18h-18h-104h-18v18v495h-16h-56h-16v-495v-18h-18zM140 647v-192h40h9h39v192c0 18 -6 23 -23 23h-42c-18 0 -23 -5 -23 -23zM17 843c0 108 50 146 97 146c32 0 58 -16 80 -30
c19 -11 36 -22 54 -22s36 6 36 49v3h87v-3c0 -94 -68 -147 -115 -147c-32 0 -56 16 -76 29c-17 12 -33 22 -51 22s-25 -12 -25 -47v-4h-87v4z" />
    <glyph glyph-name="ccedilla" unicode="&#xe7;" horiz-adv-x="431" 
d="M168 -205c-77 0 -170 37 -170 213v584c0 176 93 213 170 213h43c78 0 170 -37 170 -213v-162v-18h-18h-108h-19v18v205c0 19 -6 24 -25 24h-43c-18 0 -24 -5 -24 -24v-670c0 -19 6 -25 24 -25h43c19 0 25 6 25 25v130v18h19h108h18v-18v-87c0 -176 -92 -213 -170 -213
h-43zM209 -214c49 0 74 -12 74 -47c0 -53 -42 -60 -101 -60c-54 0 -95 12 -95 57v10h73v-8c0 -15 11 -20 22 -20c17 0 25 7 25 24c0 19 -12 26 -36 26h-10v40h48v-22z" />
    <glyph glyph-name="eacute" unicode="&#xe9;" horiz-adv-x="392" 
d="M233 981h124l-117 -128h-85zM336 -200h6v19v107v18h-6h-192v360h167h19v18v110v19h-19h-167v204h192h6v19v107v19h-6h-317h-19v-19v-962v-19h19h317z" />
    <glyph glyph-name="ecircumflex" unicode="&#xea;" horiz-adv-x="392" 
d="M116 857h-103l98 122h108l97 -122h-103l-49 60zM336 -200h6v19v107v18h-6h-192v360h167h19v18v110v19h-19h-167v204h192h6v19v107v19h-6h-317h-19v-19v-962v-19h19h317z" />
    <glyph glyph-name="edieresis" unicode="&#xeb;" horiz-adv-x="392" 
d="M342 -200h-6h-317h-19v19v962v19h19h317h6v-19v-107v-19h-6h-192v-204h167h19v-19v-110v-18h-19h-167v-360h192h6v-18v-107v-19zM313 947v-77v-13h-13h-73h-14v13v77v13h14h73h13v-13zM147 947v-77v-13h-14h-73h-14v13v77v13h14h73h14v-13z" />
    <glyph glyph-name="egrave" unicode="&#xe8;" horiz-adv-x="392" 
d="M342 -200h-6h-317h-19v19v962v19h19h317h6v-19v-107v-19h-6h-192v-204h167h19v-19v-110v-18h-19h-167v-360h192h6v-18v-107v-19zM35 981h124l78 -128h-85z" />
    <glyph glyph-name="iacute" unicode="&#xed;" 
d="M90 981h124l-117 -128h-85zM19 -200h107h18v19v962v19h-18h-107h-19v-19v-962v-19h19z" />
    <glyph glyph-name="icircumflex" unicode="&#xee;" 
d="M26 857h-103l98 122h108l97 -122h-103l-49 60zM19 -200h107h18v19v962v19h-18h-107h-19v-19v-962v-19h19z" />
    <glyph glyph-name="idieresis" unicode="&#xef;" horiz-adv-x="242" 
d="M126 -200h-107h-19v19v962v19h19h107h18v-19v-962v-19h-18zM203 947v-77v-13h-13h-73h-14v13v77v13h14h73h13v-13zM37 947v-77v-13h-14h-73h-14v13v77v13h14h73h14v-13z" />
    <glyph glyph-name="igrave" unicode="&#xec;" 
d="M126 -200h-107h-19v19v962v19h19h107h18v-19v-962v-19h-18zM-78 981h124l78 -128h-85z" />
    <glyph glyph-name="ntilde" unicode="&#xf1;" horiz-adv-x="495" 
d="M144 -200h-18h-107h-19v19v962v19h19h128h15l3 -14l113 -539v534v19h19h107h18v-19v-962v-19h-18h-129h-14l-4 14l-113 494v-489v-19zM47 843c0 108 50 146 97 146c32 0 58 -16 80 -30c19 -11 36 -22 54 -22s36 6 36 49v3h87v-3c0 -94 -68 -147 -115 -147
c-32 0 -56 16 -76 29c-17 12 -33 22 -51 22s-25 -12 -25 -47v-4h-87v4z" />
    <glyph glyph-name="oacute" unicode="&#xf3;" horiz-adv-x="444" 
d="M233 981h124l-117 -128h-85zM236 635v-670c0 -19 -6 -24 -25 -24h-43c-18 0 -24 5 -24 24v670c0 19 6 24 24 24h43c19 0 25 -5 25 -24zM381 8v584c0 176 -92 213 -170 213h-43c-77 0 -170 -37 -170 -213v-584c0 -176 93 -213 170 -213h43c78 0 170 37 170 213z" />
    <glyph glyph-name="ocircumflex" unicode="&#xf4;" horiz-adv-x="444" 
d="M146 857h-103l98 122h108l97 -122h-103l-49 60zM236 635v-670c0 -19 -6 -24 -25 -24h-43c-18 0 -24 5 -24 24v670c0 19 6 24 24 24h43c19 0 25 -5 25 -24zM381 8v584c0 176 -92 213 -170 213h-43c-77 0 -170 -37 -170 -213v-584c0 -176 93 -213 170 -213h43
c78 0 170 37 170 213z" />
    <glyph glyph-name="odieresis" unicode="&#xf6;" horiz-adv-x="444" 
d="M381 8c0 -176 -92 -213 -170 -213h-43c-77 0 -170 37 -170 213v584c0 176 93 213 170 213h43c78 0 170 -37 170 -213v-584zM236 -35v670c0 19 -6 24 -25 24h-43c-18 0 -24 -5 -24 -24v-670c0 -19 6 -24 24 -24h43c19 0 25 5 25 24zM323 947v-77v-13h-13h-73h-14v13v77v13
h14h73h13v-13zM157 947v-77v-13h-14h-73h-14v13v77v13h14h73h14v-13z" />
    <glyph glyph-name="ograve" unicode="&#xf2;" horiz-adv-x="444" 
d="M381 8c0 -176 -92 -213 -170 -213h-43c-77 0 -170 37 -170 213v584c0 176 93 213 170 213h43c78 0 170 -37 170 -213v-584zM236 -35v670c0 19 -6 24 -25 24h-43c-18 0 -24 -5 -24 -24v-670c0 -19 6 -24 24 -24h43c19 0 25 5 25 24zM45 981h124l78 -128h-85z" />
    <glyph glyph-name="otilde" unicode="&#xf5;" horiz-adv-x="444" 
d="M381 8c0 -176 -92 -213 -170 -213h-43c-77 0 -170 37 -170 213v584c0 176 93 213 170 213h43c78 0 170 -37 170 -213v-584zM236 -35v670c0 19 -6 24 -25 24h-43c-18 0 -24 -5 -24 -24v-670c0 -19 6 -24 24 -24h43c19 0 25 5 25 24zM17 843c0 108 50 146 97 146
c32 0 58 -16 80 -30c19 -11 36 -22 54 -22s36 6 36 49v3h87v-3c0 -94 -68 -147 -115 -147c-32 0 -56 16 -76 29c-17 12 -33 22 -51 22s-25 -12 -25 -47v-4h-87v4z" />
    <glyph glyph-name="scaron" unicode="&#x161;" horiz-adv-x="437" 
d="M211 815c78 0 170 -37 170 -213v-65v-19v0v0h-19h-108h-18v18v108c0 6 -4 24 -45 24c-36 0 -47 -14 -47 -24v-96c0 -4 0 -27 21 -62c36 -59 79 -117 126 -175c61 -76 90 -137 90 -185v-161c0 -111 -58 -170 -170 -170h-43c-111 0 -170 59 -170 170v108v19h1v0h18h108h19
v-18v-108c0 -12 12 -25 44 -27c38 1 48 11 48 27v85v11v2c0 20 -9 50 -15 59c-38 62 -83 124 -132 186c-61 76 -91 137 -91 185v108c0 176 93 213 170 213h43zM43 969h103l48 -61l49 61h103l-97 -122h-108z" />
    <glyph glyph-name="uacute" unicode="&#xfa;" horiz-adv-x="451" 
d="M233 981h124l-117 -128h-85zM361 800h-107h-19v-19v-813c0 -18 -6 -24 -24 -24h-43c-18 0 -24 6 -24 24v813v19h-18h-107h-19v-19v-770c0 -174 92 -211 168 -211h43c77 0 168 37 168 211v770v19h-18z" />
    <glyph glyph-name="ucircumflex" unicode="&#xfb;" horiz-adv-x="451" 
d="M146 857h-103l98 122h108l97 -122h-103l-49 60zM361 800h-107h-19v-19v-813c0 -18 -6 -24 -24 -24h-43c-18 0 -24 6 -24 24v813v19h-18h-107h-19v-19v-770c0 -175 92 -211 168 -211h43c77 0 168 36 168 211v770v19h-18z" />
    <glyph glyph-name="udieresis" unicode="&#xfc;" horiz-adv-x="451" 
d="M254 800h107h18v-19v-770c0 -174 -91 -211 -168 -211h-43c-76 0 -168 37 -168 211v770v19h19h107h18v-19v-813c0 -18 6 -24 24 -24h43c18 0 24 6 24 24v813v19h19zM323 947v-77v-13h-13h-73h-14v13v77v13h14h73h13v-13zM157 947v-77v-13h-14h-73h-14v13v77v13h14h73h14
v-13z" />
    <glyph glyph-name="ugrave" unicode="&#xf9;" horiz-adv-x="451" 
d="M254 800h107h18v-19v-770c0 -174 -91 -211 -168 -211h-43c-76 0 -168 37 -168 211v770v19h19h107h18v-19v-813c0 -18 6 -24 24 -24h43c18 0 24 6 24 24v813v19h19zM65 981h124l78 -128h-85z" />
    <glyph glyph-name="yacute" unicode="&#xfd;" horiz-adv-x="483" 
d="M233 981h124l-117 -128h-85zM415 800h-112h-15l-3 -15l-59 -275l-71 276l-4 14h-14h-112h-25l7 -24l149 -511v-446v-19h19h106h19v19v447l133 511l6 23h-24z" />
    <glyph glyph-name="ydieresis" unicode="&#xff;" horiz-adv-x="483" 
d="M303 800h112h24l-6 -23l-133 -511v-447v-19h-19h-106h-19v19v446l-149 511l-7 24h25h112h14l4 -14l71 -276l59 275l3 15h15zM363 947v-77v-13h-13h-73h-14v13v77v13h14h73h13v-13zM197 947v-77v-13h-14h-73h-14v13v77v13h14h73h14v-13z" />
    <glyph glyph-name="zcaron" unicode="&#x17e;" horiz-adv-x="455" 
d="M19 800h363h19v-19v-128v-3l-1 -3l-248 -703h230h19v-18v-107v-19h-19h-363h-19v19v128v3l1 3l248 703h-230h-19v18v107v19h19zM43 969h103l48 -61l49 61h103l-97 -122h-108z" />
    <glyph glyph-name="notequal" unicode="&#x2260;" horiz-adv-x="499" 
d="M430 192h15v-15v-84v-15h-15h-178v0v0h-15h-84h-15v0v0h-88h-15v15v84v15h15h88v0v0h15h84h15v0v0h178zM430 408h15v-15v-84v-15h-15h-178v0v0h-15h-84h-15v0v0h-88h-15v15v84v15h15h88v0v0h15h84h15v0v0h178zM183 -10h-117l227 491l121 -2z" />
    <glyph glyph-name="infinity" unicode="&#x221e;" horiz-adv-x="298" 
d="M180 254l78 -52l-92 18l19 -92l-53 78l-52 -78l19 92l-93 -18l79 52l-79 52l93 -18l-19 92l52 -78l53 78l-19 -92l92 18z" />
    <glyph glyph-name="lessequal" unicode="&#x2264;" horiz-adv-x="337" 
d="M312 147h-13h8v0v0h-13h-76h-13v0v0h-161h-13v-13v-36v-13h13h161v0v0h13h76h13v0v0h-8h13v13v36v13zM49 376l231 156l-4 -327z" />
    <glyph glyph-name="greaterequal" unicode="&#x2265;" horiz-adv-x="337" 
d="M49 532l231 -156l-227 -171zM299 147h13v-13v-36v-13h-13h8v0v0h-13h-76h-13v0v0h-161h-13v13v36v13h13h161v0v0h13h76h13v0v0h-8z" />
    <glyph glyph-name="partialdiff" unicode="&#x2202;" horiz-adv-x="379" 
d="M144 275v-106v-2v-159v0v-46c0 -10 4 -32 40 -32c50 0 51 26 51 32v59v49v102v0v103c0 9 -4 31 -40 31c-50 0 -51 -25 -51 -31zM1 299c0 0 11 144 128 144h92c4 0 -4 -1 0 -1l14 1v208v144h144v-139v-5v-237v-108v-227v-68v-15c0 -174 -91 -211 -168 -211h-33h-10h-21
c-67 0 -147 29 -147 168v43v224v62c0 5 0 11 1 17z" />
    <glyph glyph-name="product" unicode="&#x220f;" horiz-adv-x="430" 
d="M371 782v-982h-94l-1 906h-169v-905h-95v981v18h18h322h19v-18z" />
    <glyph glyph-name="pi" unicode="&#x3c0;" horiz-adv-x="430" 
d="M371 432v-632h-94l-1 556h-169v-555h-95v631v18h18h322h19v-18z" />
    <glyph glyph-name="integral" unicode="&#x222b;" horiz-adv-x="11444" 
 />
    <glyph glyph-name="Omega" unicode="&#x2126;" horiz-adv-x="451" 
d="M126 -200h-107h-19v19v770c0 174 92 211 168 211h43c77 0 168 -37 168 -211v-770v-19h-18h-107h-19v19v813c0 18 -6 24 -24 24h-43c-18 0 -24 -6 -24 -24v-813v-19h-18z" />
    <glyph glyph-name="radical" unicode="&#x221a;" horiz-adv-x="514" 
d="M330 800h107h22l-4 -22l-143 -963l-3 -15h-15h-128h-16l-2 15l-92 569h22h106h17l2 -15l27 -280l82 696l2 15h16z" />
    <glyph glyph-name="approxequal" unicode="&#x2248;" horiz-adv-x="361" 
d="M33 161c0 86 40 117 77 117c26 0 46 -13 64 -24c15 -9 29 -18 43 -18c15 0 29 5 29 40v2h70v-2c0 -76 -55 -118 -93 -118c-25 0 -44 13 -60 23c-14 9 -27 18 -41 18c-15 0 -20 -10 -20 -38v-3h-69v3zM33 334c0 87 40 117 77 117c26 0 46 -12 64 -23c15 -10 29 -18 43 -18
c15 0 29 5 29 39v3h70v-3c0 -76 -55 -117 -93 -117c-25 0 -44 12 -60 23c-14 9 -27 17 -41 17c-15 0 -20 -10 -20 -38v-2h-69v2z" />
    <glyph glyph-name="Delta" unicode="&#x2206;" horiz-adv-x="420" 
d="M208 502l174 -397l-363 5z" />
    <glyph glyph-name="lozenge" unicode="&#x25ca;" horiz-adv-x="353" 
d="M163 69l-147 254l290 -4zM159 587l147 -254l-290 4z" />
    <glyph glyph-name="Euro" unicode="&#x20ac;" horiz-adv-x="474" 
d="M224 655v-361v-350h192h6v-18v-107v-19h-6h-317h-19v19v962v19h19h317h6v-19v-107v-19h-6h-192zM353 449h14v-14v-114v-15h-14h-59v0v0h-15h-84h-14v0v0h-179h-15v15v114v14h15h179v0v0h14h84h15v0v0h59z" />
    <glyph glyph-name="apple" unicode="&#xf8ff;" horiz-adv-x="693" 
d="M394 469c37 0 82 -18 82 -103v-31v-9v0v-1h-9h-53h-9v9v49c0 3 0 15 -25 15c-17 0 -19 -11 -19 -15v-43c0 -2 0 -13 10 -30c18 -28 39 -56 61 -85c30 -36 44 -66 44 -89v-73c0 -54 -29 -82 -82 -82h-21c-54 0 -82 28 -82 82v52v9v0v1h9h52h9v-9v-52c0 -6 1 -13 17 -14
c18 1 27 6 27 14v41v5v1c0 9 -4 19 -7 24c-18 30 -40 60 -64 90c-29 36 -43 66 -43 89v52c0 85 44 103 82 103h21zM207 470h52h11l-2 -11l-70 -472l-2 -7h-7h-63h-7l-2 7l-72 483h11h52h8l1 -7l40 -341l41 341l1 7h8zM579 -9v70h-70v-70h70z" />
    </font>
</defs>
</svg>
